<svg width="108" height="81" viewBox="0 0 108 81" fill="none" xmlns="http://www.w3.org/2000/svg">
<g clip-path="url(#clip0_2009_2439)">
<path d="M22.5672 33.7344C23.9173 33.7344 25.1924 34.0032 26.3917 34.5405C27.5905 35.0779 28.6446 35.8016 29.5545 36.7109C30.464 37.6205 31.1876 38.6819 31.725 39.8944C32.2624 41.1079 32.5312 42.4028 32.5312 43.7807C32.5312 45.1593 32.2689 46.4475 31.7456 47.6464C31.2216 48.8453 30.5117 49.8996 29.6162 50.8092C28.7202 51.7187 27.666 52.4357 26.4534 52.9591C25.2401 53.4832 23.9314 53.7448 22.5257 53.7448C21.1472 53.7448 19.852 53.4968 18.6394 53.0007C17.4262 52.5044 16.3656 51.8088 15.456 50.9128C14.5466 50.0173 13.8294 48.9632 13.3061 47.7499C12.7822 46.5372 12.5205 45.2141 12.5205 43.7807C12.5205 42.4028 12.775 41.114 13.2853 39.9151C13.7949 38.7161 14.5048 37.6689 15.4146 36.7732C16.3241 35.8776 17.392 35.1605 18.6188 34.6233C19.8449 34.0857 21.1614 33.7899 22.5672 33.7344ZM22.5258 37.8273C21.7261 37.8273 20.9613 37.9793 20.2313 38.2821C19.5008 38.5857 18.867 39.0057 18.3293 39.5432C17.792 40.0805 17.3644 40.7079 17.0478 41.4243C16.7306 42.1413 16.5724 42.9269 16.5724 43.7808C16.5724 44.5805 16.7308 45.3455 17.0478 46.0755C17.3644 46.806 17.792 47.4469 18.3293 47.998C18.8668 48.5497 19.5005 48.9839 20.2313 49.3004C20.9613 49.6176 21.7261 49.7757 22.5258 49.7757C23.3154 49.7777 24.0967 49.6159 24.8205 49.3004C25.5505 48.9839 26.1846 48.5497 26.7224 47.998C27.2598 47.4469 27.6868 46.8063 28.004 46.0755C28.3194 45.3517 28.4812 44.5703 28.4792 43.7808C28.3966 42.1551 27.8177 40.7836 26.743 39.6671C25.668 38.5508 24.2758 37.9376 22.5673 37.8271L22.5258 37.8273ZM51.3424 27.3675C51.8108 27.3403 52.2518 27.5261 52.6654 27.9256C53.0789 28.3255 53.2854 28.7596 53.2854 29.228V43.7396C53.2854 45.0904 53.0097 46.372 52.4586 47.5845C51.9068 48.7979 51.1628 49.8585 50.2261 50.768C49.2888 51.6776 48.2209 52.4012 47.022 52.9385C45.823 53.4759 44.562 53.7448 43.239 53.7448C41.8882 53.7448 40.6066 53.4832 39.394 52.9591C38.1808 52.4357 37.1201 51.7187 36.2105 50.8092C35.301 49.8999 34.5774 48.8391 34.04 47.6257C33.5026 46.4132 33.2338 45.1179 33.2338 43.7396C33.2338 42.2512 33.4749 40.9424 33.9574 39.8119C34.4392 38.6819 35.1628 37.6205 36.1278 36.6284V36.6699C37.1473 35.7055 38.2706 34.9747 39.4973 34.4785C40.7233 33.9823 41.9842 33.7344 43.2802 33.7344C44.0514 33.7344 44.9681 33.8584 46.0296 34.1065C47.0902 34.3544 48.1445 34.8371 49.1925 35.5536V29.4347C49.1925 29.1595 49.2473 28.8972 49.3578 28.6489C49.4674 28.4011 49.6138 28.1711 49.792 27.9669C49.9675 27.7627 50.1864 27.6003 50.4328 27.4915C50.6808 27.3817 50.929 27.3403 51.177 27.3675H51.3424ZM49.1925 43.7396C49.1925 42.9955 49.0336 42.2652 48.717 41.5481C48.4017 40.8344 47.9605 40.1833 47.4146 39.6257C46.8685 39.0648 46.2238 38.6093 45.5126 38.282C44.7956 37.9515 44.0378 37.7859 43.2388 37.7859C42.4493 37.784 41.6679 37.9458 40.9441 38.2611C40.2136 38.5784 39.58 39.0053 39.0422 39.5428C38.5049 40.0801 38.0772 40.7145 37.7606 41.4447C37.4434 42.1752 37.2854 42.9403 37.2854 43.7393C37.2854 44.5661 37.4437 45.3381 37.7606 46.0545C38.0772 46.7716 38.5049 47.3981 39.0422 47.9355C39.5797 48.4729 40.2134 48.9005 40.9441 49.2171C41.6744 49.5343 42.439 49.6924 43.2388 49.6924C44.0378 49.6924 44.7956 49.534 45.5126 49.2171C46.229 48.9005 46.8629 48.4729 47.4146 47.9355C47.9657 47.3981 48.3998 46.7716 48.717 46.0545C49.0334 45.3385 49.1925 44.5665 49.1925 43.7396ZM64.4896 33.7344C65.8398 33.7344 67.1148 34.0032 68.3141 34.5405C69.513 35.0779 70.5672 35.8016 71.4769 36.7109C72.3864 37.6205 73.11 38.6819 73.6474 39.8944C74.1849 41.1079 74.4536 42.4028 74.4536 43.7807C74.4536 45.1593 74.1913 46.4475 73.668 47.6464C73.144 48.8453 72.4341 49.8996 71.5386 50.8092C70.6426 51.7187 69.5884 52.4357 68.3758 52.9591C67.1626 53.4832 65.8538 53.7448 64.4481 53.7448C63.0696 53.7448 61.7744 53.4968 60.562 53.0007C59.3486 52.5044 58.288 51.8088 57.3784 50.9128C56.469 50.0173 55.752 48.9632 55.2285 47.7499C54.7046 46.5372 54.4429 45.2141 54.4429 43.7807C54.4429 42.4028 54.6974 41.114 55.2077 39.9151C55.7173 38.7161 56.4272 37.6689 57.337 36.7732C58.2465 35.8776 59.3144 35.1605 60.5412 34.6233C61.7674 34.0857 63.0838 33.7899 64.4896 33.7344ZM64.4482 37.8273C63.6485 37.8273 62.8838 37.9793 62.1537 38.2821C61.4232 38.5857 60.7896 39.0057 60.2518 39.5432C59.7144 40.0805 59.2868 40.7079 58.9702 41.4243C58.653 42.1413 58.4948 42.9269 58.4948 43.7808C58.4948 44.5805 58.6532 45.3455 58.9702 46.0755C59.2868 46.806 59.7144 47.4469 60.2518 47.998C60.7892 48.5497 61.423 48.9839 62.1537 49.3004C62.8838 49.6176 63.6485 49.7757 64.4482 49.7757C65.2378 49.7777 66.0191 49.6159 66.7429 49.3004C67.4729 48.9839 68.1072 48.5497 68.6448 47.998C69.1822 47.4469 69.6092 46.8063 69.9264 46.0755C70.2418 45.3517 70.4036 44.5703 70.4017 43.7808C70.319 42.1551 69.7402 40.7836 68.6654 39.6671C67.5904 38.5508 66.1982 37.9376 64.4898 37.8271L64.4482 37.8273ZM85.4921 33.7344C86.8422 33.7344 88.1173 34.0032 89.3165 34.5405C90.5154 35.0779 91.5696 35.8016 92.4794 36.7109C93.3888 37.6205 94.1125 38.6819 94.6498 39.8944C95.1873 41.1079 95.456 42.4028 95.456 43.7807C95.456 45.1593 95.1937 46.4475 94.6705 47.6464C94.1465 48.8453 93.4366 49.8996 92.5412 50.8092C91.6452 51.7187 90.5909 52.4357 89.3782 52.9591C88.165 53.4832 86.8564 53.7448 85.4506 53.7448C84.072 53.7448 82.7768 53.4968 81.5644 53.0007C80.3512 52.5044 79.2905 51.8088 78.3809 50.9128C77.4714 50.0173 76.7544 48.9632 76.231 47.7499C75.7072 46.5372 75.4454 45.2141 75.4454 43.7807C75.4454 42.4028 75.6998 41.114 76.2101 39.9151C76.7198 38.7161 77.4297 37.6689 78.3394 36.7732C79.2489 35.8776 80.3168 35.1605 81.5436 34.6233C82.7698 34.0857 84.0864 33.7899 85.4921 33.7344ZM85.4508 37.8273C84.651 37.8273 83.8862 37.9793 83.1562 38.2821C82.4257 38.5857 81.792 39.0057 81.2542 39.5432C80.7169 40.0805 80.2893 40.7079 79.9726 41.4243C79.6554 42.1413 79.4973 42.9269 79.4973 43.7808C79.4973 44.5805 79.6557 45.3455 79.9726 46.0755C80.2893 46.806 80.7169 47.4469 81.2542 47.998C81.7917 48.5497 82.4254 48.9839 83.1562 49.3004C83.8862 49.6176 84.651 49.7757 85.4508 49.7757C86.2402 49.7777 87.0216 49.6159 87.7453 49.3004C88.4754 48.9839 89.1096 48.5497 89.6473 47.998C90.1846 47.4469 90.6117 46.8063 90.9289 46.0755C91.2442 45.3516 91.406 44.5703 91.4041 43.7808C91.3214 42.1551 90.7426 40.7836 89.6677 39.6671C88.5928 38.5508 87.2008 37.9376 85.4922 37.8271L85.4508 37.8273Z" fill="#A24689"/>
</g>
<defs>
<clipPath id="clip0_2009_2439">
<rect width="106.667" height="80" fill="white" transform="translate(0.407227 0.277344)"/>
</clipPath>
</defs>
</svg>
