<svg width="115" height="85" viewBox="0 0 115 85" fill="none" xmlns="http://www.w3.org/2000/svg">
<path d="M49.7617 44.4957H57.2484L53.289 38.1258L46.0224 49.6429H42.7153L51.5541 35.8088C51.9386 35.2499 52.5783 34.9121 53.289 34.9121C53.9763 34.9121 54.6169 35.2382 54.9888 35.7854L63.8618 49.6429H60.5546L58.995 47.0689H51.4139L49.7617 44.4957ZM84.1135 47.0689V35.0523H81.3077V48.2458C81.3077 48.607 81.4478 48.9565 81.7155 49.2242C81.9833 49.492 82.3445 49.6429 82.7407 49.6429H95.538L97.192 47.0689H84.1135ZM37.6849 44.9153C40.4099 44.9153 42.6227 42.715 42.6227 39.9901C42.6227 37.2651 40.4108 35.0523 37.6849 35.0523H25.4078V49.6438H28.2136V37.6254H37.4989C38.8035 37.6254 39.8511 38.6855 39.8511 39.9892C39.8511 41.2928 38.8026 42.353 37.4989 42.353L29.5873 42.3413L37.9643 49.6429H42.0414L36.4046 44.9144L37.6849 44.9153ZM8.13891 49.6429C4.11121 49.6429 0.841797 46.3825 0.841797 42.353C0.841797 38.3235 4.11031 35.0514 8.13891 35.0514H16.6193C20.6487 35.0514 23.9155 38.3244 23.9155 42.353C23.9155 46.3816 20.6487 49.6429 16.6193 49.6429H8.13891ZM16.4306 47.0689C19.0405 47.0689 21.1546 44.9611 21.1546 42.353C21.1546 39.7448 19.0405 37.6245 16.4306 37.6245H8.32578C5.71852 37.6245 3.60359 39.7439 3.60359 42.353C3.60359 44.9611 5.71852 47.0689 8.32578 47.0689H16.4306ZM69.7205 49.6429C65.6919 49.6429 62.4198 46.3825 62.4198 42.353C62.4198 38.3235 65.6919 35.0514 69.7205 35.0514H79.7938L78.1505 37.6245H69.9074C67.2983 37.6245 65.178 39.7439 65.178 42.353C65.178 44.9611 67.2983 47.0689 69.9074 47.0689H80.0265L78.3734 49.6429H69.7205ZM104.038 47.0689C101.885 47.0689 100.055 45.6251 99.4965 43.6332H111.491L113.144 41.0601H99.4965C100.055 39.0809 101.885 37.6245 104.038 37.6245H112.271L113.936 35.0514H103.851C99.8227 35.0514 96.5505 38.3244 96.5505 42.353C96.5505 46.3816 99.8227 49.6429 103.851 49.6429H112.504L114.158 47.0689H104.038Z" fill="#EA1B22"/>
</svg>
