<svg width="56" height="57" viewBox="0 0 56 57" fill="none" xmlns="http://www.w3.org/2000/svg">
<mask id="mask0_2009_2424" style="mask-type:luminance" maskUnits="userSpaceOnUse" x="0" y="0" width="56" height="57">
<path d="M0 0.277344H55.9995V56.2773H0V0.277344Z" fill="white"/>
</mask>
<g mask="url(#mask0_2009_2424)">
<path d="M3.98048 28.2771C3.98048 37.7852 9.50584 46.0013 17.518 49.8954L6.06009 18.5015C4.68654 21.5773 3.97788 24.9085 3.98048 28.2771ZM44.2161 27.065C44.2161 24.0964 43.1498 22.0405 42.2352 20.4404C41.0176 18.4618 39.8768 16.7862 39.8768 14.8076C39.8768 12.5996 41.551 10.5442 43.9099 10.5442C44.0164 10.5442 44.1174 10.5574 44.2216 10.5634C39.9477 6.64822 34.2541 4.25781 28.0007 4.25781C19.6091 4.25781 12.2262 8.56329 7.93128 15.0846C8.49483 15.1015 9.02639 15.1129 9.47704 15.1129C11.9895 15.1129 15.8786 14.8081 15.8786 14.8081C17.1734 14.7317 17.3261 16.6335 16.0331 16.7867C16.0331 16.7867 14.7314 16.9398 13.2834 17.0156L22.0306 43.0336L27.2876 27.2683L23.5448 17.0152C22.2513 16.9393 21.026 16.7862 21.026 16.7862C19.7316 16.7103 19.8833 14.7313 21.1777 14.8076C21.1777 14.8076 25.1445 15.1125 27.5047 15.1125C30.0167 15.1125 33.9063 14.8076 33.9063 14.8076C35.202 14.7313 35.3542 16.6331 34.0603 16.7862C34.0603 16.7862 32.7563 16.9393 31.3111 17.0152L39.9915 42.8362L42.387 34.8299C43.4259 31.5076 44.2161 29.1213 44.2161 27.065Z" fill="#00749A"/>
<path d="M28.4217 30.3773L21.2148 51.3187C23.4182 51.9681 25.7033 52.2978 28.0003 52.2977C30.7975 52.2977 33.48 51.8137 35.9769 50.9362C35.9099 50.8313 35.8527 50.7205 35.8059 50.6053L28.4217 30.3773ZM49.077 16.752C49.1803 17.5171 49.2388 18.3389 49.2388 19.2219C49.2388 21.6594 48.7836 24.3994 47.4124 27.8255L40.0753 49.0389C47.2164 44.8747 52.0196 37.1381 52.0196 28.2762C52.026 24.2481 51.0138 20.2839 49.077 16.752Z" fill="#00749A"/>
<path d="M28.0002 0.277344C12.5613 0.277344 0 12.8377 0 28.2767C0 43.7174 12.5608 56.2778 28.0002 56.2778C43.4387 56.2778 56.0018 43.7179 56.0018 28.2767C56.0014 12.8377 43.4387 0.277344 28.0002 0.277344ZM28.0002 54.9939C13.2693 54.9939 1.28387 43.0085 1.28387 28.2767C1.28387 13.5462 13.2688 1.56167 28.0002 1.56167C42.7307 1.56167 54.7152 13.5462 54.7152 28.2767C54.7152 43.0085 42.7303 54.9939 28.0002 54.9939Z" fill="#00749A"/>
</g>
</svg>
