<svg width="25" height="24" viewBox="0 0 25 24" fill="none" xmlns="http://www.w3.org/2000/svg">
<path d="M21.4599 17.8405L19.8299 18.3905C19.3799 18.5405 19.0199 18.8905 18.8699 19.3505L18.3199 20.9805C17.8499 22.3905 15.8699 22.3605 15.4299 20.9505L13.5799 15.0005C13.2199 13.8205 14.3099 12.7205 15.4799 13.0905L21.4399 14.9405C22.8399 15.3805 22.8599 17.3705 21.4599 17.8405Z" fill="white"/>
<path d="M21.4999 11.5004C21.4999 11.9304 21.4699 12.3604 21.4199 12.7804C21.3799 13.0804 21.0699 13.2604 20.7799 13.1704L15.9299 11.6604C14.8499 11.3304 13.6999 11.6104 12.8999 12.4004C12.0999 13.2004 11.8099 14.3704 12.1499 15.4504L13.6499 20.2804C13.7399 20.5704 13.5499 20.8804 13.2499 20.9204C12.8299 20.9704 12.4199 21.0004 11.9999 21.0004C6.65991 21.0004 2.35991 16.6104 2.49991 11.2304C2.63991 6.27039 6.76991 2.14039 11.7299 2.00039C17.1099 1.86039 21.4999 6.16039 21.4999 11.5004Z" fill="white"/>
</svg>
