<svg width="157" height="65" viewBox="0 0 157 65" fill="none" xmlns="http://www.w3.org/2000/svg">
<path fill-rule="evenodd" clip-rule="evenodd" d="M156.987 60.7672C156.987 62.7798 155.377 64.3898 153.365 64.3898C151.403 64.3898 149.742 62.7798 149.742 60.7672C149.742 58.7546 151.403 57.1445 153.365 57.1445C155.377 57.1445 156.987 58.7546 156.987 60.7672ZM156.535 60.7672C156.535 59.0062 155.126 57.5974 153.365 57.5974C151.654 57.5974 150.245 59.0062 150.245 60.7672C150.245 62.4779 151.654 63.8867 153.365 63.8867C155.126 63.8867 156.535 62.4779 156.535 60.7672Z" fill="#231F20"/>
<path d="M153.466 61.9242C152.61 61.9242 152.258 61.3204 152.258 60.7166C152.208 60.1129 152.61 59.4588 153.466 59.4588C153.768 59.4588 154.12 59.5594 154.321 59.811L154.824 59.3581C154.422 59.0059 153.969 58.8047 153.466 58.8047C152.158 58.8047 151.554 59.7607 151.554 60.7166C151.554 61.6726 152.158 62.5783 153.466 62.5783C154.019 62.5783 154.472 62.4273 154.824 62.0248L154.371 61.572C154.17 61.8236 153.768 61.9242 153.466 61.9242Z" fill="#231F20"/>
<path d="M124.082 52.8178L129.113 47.8367L137.264 55.9876L139.428 53.8241L148.585 44.6668L146.472 42.5033L139.428 35.4593L138.271 34.3021L132.283 28.3146L137.264 23.2832L143.302 29.3209L144.459 30.4279L151.453 37.4719L152.61 38.6291L155.83 41.8492C157.39 43.409 157.39 45.8744 155.83 47.4341L143.302 60.0128L140.082 63.2329C138.522 64.7423 136.007 64.7423 134.497 63.2329L124.082 52.8178Z" fill="#244453"/>
<path d="M107.729 52.8153L114.874 45.6706L121.918 38.6266L123.075 37.4694L129.113 31.4316L134.094 36.4631L128.107 42.5008L126.95 43.658L118.748 51.809L112.761 57.8467L107.729 52.8153Z" fill="#244453"/>
<path d="M117.189 27.0054L119.655 24.54C120.359 23.8356 121.516 23.8356 122.221 24.54L124.636 27.0054C125.34 27.7098 125.34 28.8671 124.636 29.5715L122.171 32.0369C121.466 32.7413 120.359 32.7413 119.655 32.0369L117.189 29.5715C116.485 28.8671 116.485 27.7098 117.189 27.0054Z" fill="#EF4136"/>
<path d="M120.912 16.9423L112.761 25.1435L107.729 20.1121L120.912 6.92969L134.094 20.1121L129.113 25.1435L120.912 16.9423Z" fill="#EF4136"/>
<path d="M85.994 47.4341C84.4343 45.8744 84.4343 43.409 85.994 41.8492L98.5223 29.3209L104.56 23.2832L117.742 36.4656L112.761 41.497L104.56 33.2958L93.2393 44.6668L109.592 61.019L107.378 63.2329C105.818 64.7423 103.302 64.7423 101.793 63.2329L85.994 47.4341Z" fill="#244453"/>
<path d="M52.686 5.67287L53.9439 4.46532C54.2961 4.11312 54.8495 4.11312 55.2017 4.46532L56.4596 5.67287C56.8118 6.02507 56.8118 6.62884 56.4596 6.98105L55.2017 8.18859C54.8495 8.54079 54.2961 8.54079 53.9439 8.18859L52.686 6.98105C52.3338 6.62884 52.3338 6.02507 52.686 5.67287Z" fill="#EF4136"/>
<path d="M26.6225 7.83647L27.8804 6.5786C28.2326 6.2264 28.7861 6.2264 29.1383 6.5786L30.3961 7.83647C30.7483 8.18867 30.7483 8.74213 30.3961 9.09433L29.1383 10.3522C28.7861 10.7044 28.2326 10.7044 27.8804 10.3522L26.6225 9.09433C26.2703 8.74213 26.2703 8.18867 26.6225 7.83647Z" fill="#EF4136"/>
<path d="M21.9435 8.23881L23.151 6.98095C23.5032 6.62875 24.0567 6.62875 24.4089 6.98095L25.6668 8.23881C26.019 8.59101 26.019 9.14447 25.6668 9.49667L24.4089 10.7545C24.0567 11.1067 23.5032 11.1067 23.151 10.7545L21.9435 9.49667C21.541 9.14447 21.541 8.59101 21.9435 8.23881Z" fill="#EF4136"/>
<path d="M7.10106 30.9307L8.35893 29.7231C8.71113 29.3709 9.26459 29.3709 9.61679 29.7231L10.8746 30.9307C11.2269 31.2829 11.2269 31.8867 10.8746 32.2389L9.61679 33.4464C9.26459 33.7986 8.71113 33.7986 8.35893 33.4464L7.10106 32.2389C6.74886 31.8867 6.74886 31.2829 7.10106 30.9307Z" fill="#EF4136"/>
<path d="M2.42138 31.333L3.62892 30.1255C3.98112 29.7733 4.5849 29.7733 4.9371 30.1255L6.14464 31.333C6.49685 31.6852 6.49685 32.289 6.14464 32.6412L4.88678 33.8487C4.53458 34.2009 3.98112 34.2009 3.62892 33.8487L2.42138 32.6412C2.06918 32.289 2.06918 31.6852 2.42138 31.333Z" fill="#EF4136"/>
<path d="M40.56 52.6162L41.8179 51.4087C42.1701 51.0565 42.7236 51.0565 43.0758 51.4087L44.3336 52.6162C44.6858 52.9684 44.6858 53.5722 44.3336 53.9244L43.0758 55.1319C42.7236 55.4841 42.1701 55.4841 41.8179 55.1319L40.56 53.9244C40.2078 53.5722 40.2078 52.9684 40.56 52.6162Z" fill="#EF4136"/>
<path d="M35.8804 53.0186L37.0879 51.811C37.4401 51.4588 37.9936 51.4588 38.3458 51.811L39.6036 53.0186C39.9558 53.3708 39.9558 53.9745 39.6036 54.3267L38.3458 55.5343C37.9936 55.8865 37.4401 55.8865 37.0879 55.5343L35.8804 54.3267C35.5282 53.9745 35.5282 53.3708 35.8804 53.0186Z" fill="#EF4136"/>
<path d="M73.4153 48.1895L65.9688 48.9442V47.8876L67.4279 47.7367V8.44107L65.9688 8.59202V7.53541L71.9562 6.93164V47.2838L73.4153 47.1329V48.1895Z" fill="#244453"/>
<path fill-rule="evenodd" clip-rule="evenodd" d="M13.239 40.0384V46.7806C13.239 48.4577 12.6185 49.9336 11.3774 51.2082C10.1363 52.4829 8.55979 53.2208 6.64784 53.4221C4.73589 53.6233 3.15937 53.204 1.91828 52.1642C0.677192 51.1579 0.0566406 49.8162 0.0566406 48.139V41.3466C0.0566406 39.703 0.677192 38.2439 1.91828 36.9692C3.15937 35.6611 4.73589 34.9231 6.64784 34.7554C8.55979 34.5541 10.1363 34.9567 11.3774 35.963C12.6185 37.0028 13.239 38.3613 13.239 40.0384ZM8.66042 37.9252C8.66042 36.3822 7.98956 35.6778 6.64784 35.812C5.27258 35.9462 4.58494 36.7847 4.58494 38.3277V50.2523C4.58494 51.7952 5.27258 52.4996 6.64784 52.3655C7.98956 52.2313 8.66042 51.3927 8.66042 49.8497V37.9252Z" fill="#244453"/>
<path d="M28.6354 51.6099V45.5721L27.78 45.6728C28.5515 44.7336 28.9373 43.5763 28.9373 42.2011C28.9373 38.8803 27.1427 37.3877 23.5536 37.7231L16.8115 38.1759V36.7168L15.7549 36.8174V42.8048L25.5159 42.1004C26.9918 41.9663 27.7297 42.4694 27.7297 43.6099C27.7297 44.3143 27.3943 45.0355 26.7234 45.7734L16.8115 46.5281L15.7549 46.5784V51.157L27.5788 50.2514V51.7105L28.6354 51.6099Z" fill="#244453"/>
<path d="M71.8046 2.85603V0.390625L67.9807 0.742825V2.35289V3.25855V4.06358L66.3203 4.26484V6.73025L71.8046 6.17679V3.71138L68.5845 4.01326V3.15792L71.8046 2.85603Z" fill="#244453"/>
<path fill-rule="evenodd" clip-rule="evenodd" d="M62.849 17.7492L63.7044 17.6485V23.6863L62.6478 23.7869V22.3278L37.9937 24.8435L6.09433 27.9127C4.43395 28.114 3.02515 27.9127 1.86792 26.8561C0.727454 25.7827 0.157227 24.3068 0.157227 22.4284C0.157227 20.6842 0.727454 19.0909 1.86792 17.6485C3.04192 16.2397 4.45072 15.4515 6.09433 15.2838L7.15093 15.1831V19.7114L3.52829 20.114C1.98531 20.2481 1.21382 20.9861 1.21382 22.3278C1.21382 23.5353 1.98531 24.0553 3.52829 23.8875L10.0188 23.2334C9.2809 22.462 8.91194 21.3718 8.91194 19.963C8.91194 16.6423 10.7065 14.7974 14.2956 14.4284L33.6163 12.4662C37.2054 12.0972 39 13.5731 39 16.8938C39 18.2523 38.7484 19.3592 38.044 20.2649L45.5912 19.5102C44.8532 18.7051 44.4843 17.615 44.4843 16.2397C44.4843 12.919 46.2788 11.0741 49.8679 10.7051L58.6226 9.79949C62.1782 9.43051 63.956 10.9064 63.956 14.2272C63.956 15.636 63.587 16.81 62.849 17.7492ZM37.7924 18.3026C37.7924 17.1622 37.0545 16.6758 35.5786 16.8435L12.283 19.2083C10.8071 19.3425 10.0692 19.9798 10.0692 21.1202C10.0692 21.8582 10.4046 22.5291 11.0755 23.1328L36.8365 20.5165C37.4738 19.7785 37.7924 19.0406 37.7924 18.3026ZM62.7987 15.636C62.7987 14.529 62.0608 14.0427 60.5849 14.1768L47.9056 15.485C46.3962 15.6192 45.6415 16.2565 45.6415 17.397C45.6415 18.1349 45.9769 18.8058 46.6478 19.4095L61.7924 17.8498C62.4633 17.1119 62.7987 16.3739 62.7987 15.636Z" fill="#244453"/>
<path d="M65.2141 47.9879L63.7047 48.1388V44.6671L63.755 44.6168H63.7047V24.9941L57.7173 25.5979V26.6545L59.1764 26.5036V45.0696L54.2959 45.5728V35.1074V34.0507L49.7676 34.5539V35.6105V44.013V53.0696V54.1262V54.9312L54.2959 54.4784V50.1514L65.2141 49.0445V47.9879Z" fill="#244453"/>
<path d="M43.6796 38.6794V43.5096L34.9249 44.4655V26.8555L28.9375 27.4592V28.5158L30.3463 28.3649V49.4467L34.9249 48.9938L47.2017 47.736V49.2454L48.2079 49.0945V43.107V37.975L43.6796 38.6794Z" fill="#244453"/>
</svg>
