<svg width="41" height="32" viewBox="0 0 41 32" fill="none" xmlns="http://www.w3.org/2000/svg">
<path fill-rule="evenodd" clip-rule="evenodd" d="M40.9928 29.9824C40.9928 31.1032 40.0961 31.9999 38.9753 31.9999C37.8825 31.9999 36.9578 31.1032 36.9578 29.9824C36.9578 28.8615 37.8825 27.9648 38.9753 27.9648C40.0961 27.9648 40.9928 28.8615 40.9928 29.9824ZM40.7406 29.9824C40.7406 29.0016 39.956 28.217 38.9753 28.217C38.0226 28.217 37.238 29.0016 37.238 29.9824C37.238 30.9351 38.0226 31.7197 38.9753 31.7197C39.956 31.7197 40.7406 30.9351 40.7406 29.9824Z" fill="#231F20"/>
<path d="M39.0314 30.6269C38.555 30.6269 38.3589 30.2907 38.3589 29.9544C38.3308 29.6182 38.555 29.2539 39.0314 29.2539C39.1995 29.2539 39.3956 29.31 39.5077 29.4501L39.7879 29.1979C39.5638 29.0017 39.3116 28.8896 39.0314 28.8896C38.3028 28.8896 37.9666 29.422 37.9666 29.9544C37.9666 30.4868 38.3028 30.9912 39.0314 30.9912C39.3396 30.9912 39.5918 30.9072 39.7879 30.683L39.5357 30.4308C39.4237 30.5709 39.1995 30.6269 39.0314 30.6269Z" fill="#231F20"/>
<path d="M22.667 25.5548L25.4691 22.7807L30.0085 27.3201L31.2134 26.1152L36.3132 21.0154L35.1363 19.8105L31.2134 15.8875L30.5689 15.243L27.2344 11.9085L30.0085 9.10645L33.371 12.469L34.0155 13.0854L37.9104 17.0084L38.5549 17.6529L40.3482 19.4462C41.2169 20.3148 41.2169 21.6879 40.3482 22.5565L33.371 29.5618L31.5777 31.3551C30.709 32.1958 29.308 32.1958 28.4673 31.3551L22.667 25.5548Z" fill="#244453"/>
<path d="M13.5603 25.5554L17.5393 21.5764L21.4622 17.6535L22.1067 17.009L25.4692 13.6465L28.2433 16.4486L24.9088 19.8111L24.2643 20.4556L19.6969 24.995L16.3624 28.3575L13.5603 25.5554Z" fill="#244453"/>
<path d="M18.8282 11.1799L20.2012 9.80692C20.5935 9.41462 21.238 9.41462 21.6303 9.80692L22.9753 11.1799C23.3676 11.5722 23.3676 12.2167 22.9753 12.609L21.6022 13.982C21.2099 14.3743 20.5935 14.3743 20.2012 13.982L18.8282 12.609C18.4359 12.2167 18.4359 11.5722 18.8282 11.1799Z" fill="#EF4136"/>
<path d="M20.9018 5.57618L16.3624 10.1436L13.5603 7.34151L20.9018 0L28.2433 7.34151L25.4692 10.1436L20.9018 5.57618Z" fill="#EF4136"/>
<path d="M1.4552 22.5565C0.586548 21.6879 0.586548 20.3148 1.4552 19.4462L8.43244 12.469L11.795 9.10645L19.1365 16.448L16.3624 19.2501L11.795 14.6826L5.49023 21.0154L14.5971 30.1222L13.3641 31.3551C12.4955 32.1958 11.0944 32.1958 10.2538 31.3551L1.4552 22.5565Z" fill="#244453"/>
</svg>
