<svg width="185" height="863" viewBox="0 0 185 863" fill="none" xmlns="http://www.w3.org/2000/svg">
<path fill-rule="evenodd" clip-rule="evenodd" d="M184.512 111.663C184.512 115.732 180.395 119.176 175.249 119.176C170.232 119.176 165.987 115.732 165.987 111.663C165.987 107.488 170.232 104.149 175.249 104.149C180.395 104.149 184.512 107.488 184.512 111.663ZM183.354 111.663C183.354 108.01 179.752 105.088 175.249 105.088C170.875 105.088 167.273 108.01 167.273 111.663C167.273 115.211 170.875 118.133 175.249 118.133C179.752 118.133 183.354 115.211 183.354 111.663Z" fill="white"/>
<path d="M175.507 114.061C173.32 114.061 172.419 112.809 172.419 111.557C172.291 110.305 173.32 108.948 175.507 108.948C176.279 108.948 177.179 109.157 177.694 109.678L178.98 108.739C177.951 108.009 176.793 107.591 175.507 107.591C172.162 107.591 170.618 109.574 170.618 111.557C170.618 113.54 172.162 115.418 175.507 115.418C176.922 115.418 178.08 115.001 178.98 114.27L177.822 113.331C177.308 113.853 176.279 114.061 175.507 114.061Z" fill="white"/>
<path d="M100.377 95.1717L113.242 84.7362L134.082 101.746L139.614 97.2588L163.028 78.1618L157.625 73.7788L139.614 59.1691L136.655 56.7689L121.346 44.2463L134.082 33.915L149.52 46.3334L152.479 48.7335L170.361 63.3433L173.32 65.7435L181.553 72.4222C185.541 75.6572 185.541 80.7706 181.553 84.0057L149.52 109.99L141.287 116.773C137.299 119.904 130.866 119.904 127.007 116.773L100.377 95.1717Z" fill="white"/>
<path d="M58.5664 95.1714L76.8343 80.2486L94.8449 65.7431L97.8037 63.343L113.241 50.8203L125.977 61.2559L110.668 73.7785L107.71 76.0744L86.7401 93.0843L71.4311 105.503L58.5664 95.1714Z" fill="white"/>
<path d="M82.7522 41.6374L89.0559 36.524C90.857 35.063 93.8158 35.063 95.6169 36.524L101.792 41.6374C103.593 43.0984 103.593 45.4985 101.792 46.9595L95.4882 52.0729C93.6872 53.5339 90.857 53.5339 89.0559 52.0729L82.7522 46.9595C80.9511 45.4985 80.9511 43.0984 82.7522 41.6374Z" fill="#9C9898"/>
<path d="M92.2719 20.7668L71.4311 37.6724L58.5664 27.3411L92.2719 0L125.977 27.3411L113.241 37.6724L92.2719 20.7668Z" fill="#9C9898"/>
<path d="M2.99104 84.0057C-0.997014 80.7706 -0.997014 75.6572 2.99104 72.4222L35.0242 46.3334L50.4618 33.915L84.1673 61.2562L71.4313 71.5874L50.4618 54.6818L21.5162 78.1618L63.3265 112.077L57.666 116.773C53.678 119.904 47.2456 119.904 43.3862 116.773L2.99104 84.0057Z" fill="white"/>
<path fill-rule="evenodd" clip-rule="evenodd" d="M184.512 260.428C184.512 264.498 180.395 267.941 175.249 267.941C170.232 267.941 165.987 264.498 165.987 260.428C165.987 256.253 170.232 252.914 175.249 252.914C180.395 252.914 184.512 256.253 184.512 260.428ZM183.354 260.428C183.354 256.775 179.752 253.853 175.249 253.853C170.875 253.853 167.273 256.775 167.273 260.428C167.273 263.976 170.875 266.898 175.249 266.898C179.752 266.898 183.354 263.976 183.354 260.428Z" fill="white"/>
<path d="M175.507 262.826C173.32 262.826 172.419 261.574 172.419 260.322C172.291 259.07 173.32 257.713 175.507 257.713C176.279 257.713 177.179 257.922 177.694 258.444L178.98 257.504C177.951 256.774 176.793 256.356 175.507 256.356C172.162 256.356 170.618 258.339 170.618 260.322C170.618 262.305 172.162 264.183 175.507 264.183C176.922 264.183 178.08 263.766 178.98 263.035L177.822 262.096C177.308 262.618 176.279 262.826 175.507 262.826Z" fill="white"/>
<path d="M100.377 243.937L113.242 233.501L134.082 250.511L139.614 246.024L163.028 226.927L157.625 222.544L139.614 207.934L136.655 205.534L121.346 193.011L134.082 182.68L149.52 195.099L152.479 197.499L170.361 212.108L173.32 214.509L181.553 221.187C185.541 224.422 185.541 229.536 181.553 232.771L149.52 258.755L141.287 265.538C137.299 268.669 130.866 268.669 127.007 265.538L100.377 243.937Z" fill="white"/>
<path d="M58.5664 243.937L76.8343 229.014L94.8449 214.509L97.8037 212.109L113.241 199.586L125.977 210.021L110.668 222.544L107.71 224.84L86.7401 241.85L71.4311 254.268L58.5664 243.937Z" fill="white"/>
<path d="M82.7522 190.403L89.0559 185.289C90.857 183.828 93.8158 183.828 95.6169 185.289L101.792 190.403C103.593 191.864 103.593 194.264 101.792 195.725L95.4882 200.838C93.6872 202.299 90.857 202.299 89.0559 200.838L82.7522 195.725C80.9511 194.264 80.9511 191.864 82.7522 190.403Z" fill="#9C9898"/>
<path d="M92.2719 169.532L71.4311 186.438L58.5664 176.106L92.2719 148.765L125.977 176.106L113.241 186.438L92.2719 169.532Z" fill="#9C9898"/>
<path d="M2.99104 232.771C-0.997014 229.536 -0.997014 224.422 2.99104 221.187L35.0242 195.099L50.4618 182.68L84.1673 210.021L71.4313 220.353L50.4618 203.447L21.5162 226.927L63.3265 260.842L57.666 265.538C53.678 268.669 47.2456 268.669 43.3862 265.538L2.99104 232.771Z" fill="white"/>
<path fill-rule="evenodd" clip-rule="evenodd" d="M184.512 409.193C184.512 413.263 180.395 416.706 175.249 416.706C170.232 416.706 165.987 413.263 165.987 409.193C165.987 405.019 170.232 401.679 175.249 401.679C180.395 401.679 184.512 405.019 184.512 409.193ZM183.354 409.193C183.354 405.54 179.752 402.618 175.249 402.618C170.875 402.618 167.273 405.54 167.273 409.193C167.273 412.741 170.875 415.663 175.249 415.663C179.752 415.663 183.354 412.741 183.354 409.193Z" fill="white"/>
<path d="M175.507 411.591C173.32 411.591 172.419 410.339 172.419 409.087C172.291 407.834 173.32 406.478 175.507 406.478C176.279 406.478 177.179 406.686 177.694 407.208L178.98 406.269C177.951 405.538 176.793 405.121 175.507 405.121C172.162 405.121 170.618 407.104 170.618 409.087C170.618 411.069 172.162 412.948 175.507 412.948C176.922 412.948 178.08 412.53 178.98 411.8L177.822 410.861C177.308 411.382 176.279 411.591 175.507 411.591Z" fill="white"/>
<path d="M100.377 392.703L113.242 382.268L134.082 399.278L139.614 394.791L163.028 375.694L157.625 371.311L139.614 356.701L136.655 354.301L121.346 341.778L134.082 331.447L149.52 343.865L152.479 346.265L170.361 360.875L173.32 363.275L181.553 369.954C185.541 373.189 185.541 378.302 181.553 381.537L149.52 407.522L141.287 414.305C137.299 417.436 130.866 417.436 127.007 414.305L100.377 392.703Z" fill="white"/>
<path d="M58.5664 392.702L76.8343 377.779L94.8449 363.273L97.8037 360.873L113.241 348.351L125.977 358.786L110.668 371.309L107.71 373.605L86.7401 390.615L71.4311 403.033L58.5664 392.702Z" fill="white"/>
<path d="M82.7522 339.168L89.0559 334.054C90.857 332.593 93.8158 332.593 95.6169 334.054L101.792 339.168C103.593 340.629 103.593 343.029 101.792 344.49L95.4882 349.603C93.6872 351.064 90.857 351.064 89.0559 349.603L82.7522 344.49C80.9511 343.029 80.9511 340.629 82.7522 339.168Z" fill="#9C9898"/>
<path d="M92.2719 318.297L71.4311 335.203L58.5664 324.871L92.2719 297.53L125.977 324.871L113.241 335.203L92.2719 318.297Z" fill="#9C9898"/>
<path d="M2.99104 381.537C-0.997014 378.302 -0.997014 373.189 2.99104 369.954L35.0242 343.865L50.4618 331.447L84.1673 358.788L71.4313 369.119L50.4618 352.214L21.5162 375.694L63.3265 409.609L57.666 414.305C53.678 417.436 47.2456 417.436 43.3862 414.305L2.99104 381.537Z" fill="white"/>
<path fill-rule="evenodd" clip-rule="evenodd" d="M184.512 557.957C184.512 562.027 180.395 565.471 175.249 565.471C170.232 565.471 165.987 562.027 165.987 557.957C165.987 553.783 170.232 550.444 175.249 550.444C180.395 550.444 184.512 553.783 184.512 557.957ZM183.354 557.957C183.354 554.305 179.752 551.383 175.249 551.383C170.875 551.383 167.273 554.305 167.273 557.957C167.273 561.506 170.875 564.428 175.249 564.428C179.752 564.428 183.354 561.506 183.354 557.957Z" fill="white"/>
<path d="M175.507 560.356C173.32 560.356 172.419 559.104 172.419 557.852C172.291 556.599 173.32 555.243 175.507 555.243C176.279 555.243 177.179 555.452 177.694 555.973L178.98 555.034C177.951 554.304 176.793 553.886 175.507 553.886C172.162 553.886 170.618 555.869 170.618 557.852C170.618 559.834 172.162 561.713 175.507 561.713C176.922 561.713 178.08 561.295 178.98 560.565L177.822 559.626C177.308 560.148 176.279 560.356 175.507 560.356Z" fill="white"/>
<path d="M100.377 541.466L113.242 531.031L134.082 548.041L139.614 543.553L163.028 524.456L157.625 520.073L139.614 505.464L136.655 503.063L121.346 490.541L134.082 480.209L149.52 492.628L152.479 495.028L170.361 509.638L173.32 512.038L181.553 518.717C185.541 521.952 185.541 527.065 181.553 530.3L149.52 556.285L141.287 563.068C137.299 566.198 130.866 566.198 127.007 563.068L100.377 541.466Z" fill="white"/>
<path d="M58.5664 541.467L76.8343 526.544L94.8449 512.039L97.8037 509.638L113.241 497.116L125.977 507.551L110.668 520.074L107.71 522.37L86.7401 539.38L71.4311 551.798L58.5664 541.467Z" fill="white"/>
<path d="M82.7522 487.932L89.0559 482.819C90.857 481.358 93.8158 481.358 95.6169 482.819L101.792 487.932C103.593 489.393 103.593 491.793 101.792 493.254L95.4882 498.368C93.6872 499.829 90.857 499.829 89.0559 498.368L82.7522 493.254C80.9511 491.793 80.9511 489.393 82.7522 487.932Z" fill="#9C9898"/>
<path d="M92.2719 467.062L71.4311 483.967L58.5664 473.636L92.2719 446.295L125.977 473.636L113.241 483.967L92.2719 467.062Z" fill="#9C9898"/>
<path d="M2.99104 530.3C-0.997014 527.065 -0.997014 521.952 2.99104 518.717L35.0242 492.628L50.4618 480.209L84.1673 507.551L71.4313 517.882L50.4618 500.976L21.5162 524.456L63.3265 558.372L57.666 563.068C53.678 566.198 47.2456 566.198 43.3862 563.068L2.99104 530.3Z" fill="white"/>
<path fill-rule="evenodd" clip-rule="evenodd" d="M184.512 706.722C184.512 710.792 180.395 714.236 175.249 714.236C170.232 714.236 165.987 710.792 165.987 706.722C165.987 702.548 170.232 699.208 175.249 699.208C180.395 699.208 184.512 702.548 184.512 706.722ZM183.354 706.722C183.354 703.07 179.752 700.148 175.249 700.148C170.875 700.148 167.273 703.07 167.273 706.722C167.273 710.27 170.875 713.192 175.249 713.192C179.752 713.192 183.354 710.27 183.354 706.722Z" fill="white"/>
<path d="M175.507 709.121C173.32 709.121 172.419 707.869 172.419 706.616C172.291 705.364 173.32 704.007 175.507 704.007C176.279 704.007 177.179 704.216 177.694 704.738L178.98 703.799C177.951 703.068 176.793 702.651 175.507 702.651C172.162 702.651 170.618 704.634 170.618 706.616C170.618 708.599 172.162 710.478 175.507 710.478C176.922 710.478 178.08 710.06 178.98 709.33L177.822 708.39C177.308 708.912 176.279 709.121 175.507 709.121Z" fill="white"/>
<path d="M100.377 690.231L113.242 679.795L134.082 696.805L139.614 692.318L163.028 673.221L157.625 668.838L139.614 654.228L136.655 651.828L121.346 639.305L134.082 628.974L149.52 641.392L152.479 643.793L170.361 658.402L173.32 660.803L181.553 667.481C185.541 670.716 185.541 675.83 181.553 679.065L149.52 705.049L141.287 711.832C137.299 714.963 130.866 714.963 127.007 711.832L100.377 690.231Z" fill="white"/>
<path d="M58.5664 690.231L76.8343 675.309L94.8449 660.803L97.8037 658.403L113.241 645.88L125.977 656.316L110.668 668.839L107.71 671.134L86.7401 688.144L71.4311 700.563L58.5664 690.231Z" fill="white"/>
<path d="M82.7522 636.697L89.0559 631.584C90.857 630.123 93.8158 630.123 95.6169 631.584L101.792 636.697C103.593 638.158 103.593 640.558 101.792 642.019L95.4882 647.133C93.6872 648.593 90.857 648.593 89.0559 647.133L82.7522 642.019C80.9511 640.558 80.9511 638.158 82.7522 636.697Z" fill="#9C9898"/>
<path d="M92.2719 615.826L71.4311 632.732L58.5664 622.401L92.2719 595.06L125.977 622.401L113.241 632.732L92.2719 615.826Z" fill="#9C9898"/>
<path d="M2.99104 679.065C-0.997014 675.83 -0.997014 670.716 2.99104 667.481L35.0242 641.392L50.4618 628.974L84.1673 656.315L71.4313 666.646L50.4618 649.741L21.5162 673.221L63.3265 707.136L57.666 711.832C53.678 714.963 47.2456 714.963 43.3862 711.832L2.99104 679.065Z" fill="white"/>
<path fill-rule="evenodd" clip-rule="evenodd" d="M184.512 855.486C184.512 859.556 180.395 863 175.249 863C170.232 863 165.987 859.556 165.987 855.486C165.987 851.312 170.232 847.973 175.249 847.973C180.395 847.973 184.512 851.312 184.512 855.486ZM183.354 855.486C183.354 851.834 179.752 848.912 175.249 848.912C170.875 848.912 167.273 851.834 167.273 855.486C167.273 859.034 170.875 861.956 175.249 861.956C179.752 861.956 183.354 859.034 183.354 855.486Z" fill="white"/>
<path d="M175.507 857.885C173.32 857.885 172.419 856.633 172.419 855.381C172.291 854.128 173.32 852.772 175.507 852.772C176.279 852.772 177.179 852.98 177.694 853.502L178.98 852.563C177.951 851.832 176.793 851.415 175.507 851.415C172.162 851.415 170.618 853.398 170.618 855.381C170.618 857.363 172.162 859.242 175.507 859.242C176.922 859.242 178.08 858.824 178.98 858.094L177.822 857.155C177.308 857.676 176.279 857.885 175.507 857.885Z" fill="white"/>
<path d="M100.377 838.997L113.242 828.562L134.082 845.572L139.614 841.085L163.028 821.987L157.625 817.605L139.614 802.995L136.655 800.595L121.346 788.072L134.082 777.741L149.52 790.159L152.479 792.559L170.361 807.169L173.32 809.569L181.553 816.248C185.541 819.483 185.541 824.596 181.553 827.831L149.52 853.816L141.287 860.599C137.299 863.73 130.866 863.73 127.007 860.599L100.377 838.997Z" fill="white"/>
<path d="M58.5664 838.996L76.8343 824.073L94.8449 809.567L97.8037 807.167L113.241 794.645L125.977 805.08L110.668 817.603L107.71 819.899L86.7401 836.909L71.4311 849.327L58.5664 838.996Z" fill="white"/>
<path d="M82.7522 785.462L89.0559 780.349C90.857 778.888 93.8158 778.888 95.6169 780.349L101.792 785.462C103.593 786.923 103.593 789.323 101.792 790.784L95.4882 795.898C93.6872 797.359 90.857 797.359 89.0559 795.898L82.7522 790.784C80.9511 789.323 80.9511 786.923 82.7522 785.462Z" fill="#9C9898"/>
<path d="M92.2719 764.591L71.4311 781.497L58.5664 771.166L92.2719 743.825L125.977 771.166L113.241 781.497L92.2719 764.591Z" fill="#9C9898"/>
<path d="M2.99104 827.831C-0.997014 824.596 -0.997014 819.483 2.99104 816.248L35.0242 790.159L50.4618 777.741L84.1673 805.082L71.4313 815.413L50.4618 798.507L21.5162 821.987L63.3265 855.903L57.666 860.599C53.678 863.73 47.2456 863.73 43.3862 860.599L2.99104 827.831Z" fill="white"/>
</svg>
