<svg width="1440" height="835" viewBox="0 0 1440 835" fill="none" xmlns="http://www.w3.org/2000/svg">
<g clip-path="url(#clip0_50_7026)">
<rect width="1440" height="834.276" fill="#244453"/>
<g opacity="0.02">
<path fill-rule="evenodd" clip-rule="evenodd" d="M75.7855 97.9574C75.7855 102.027 71.6687 105.471 66.5229 105.471C61.5056 105.471 57.2603 102.027 57.2603 97.9574C57.2603 93.7832 61.5056 90.4438 66.5229 90.4438C71.6687 90.4438 75.7855 93.7832 75.7855 97.9574ZM74.6276 97.9574C74.6276 94.305 71.0255 91.383 66.5229 91.383C62.1489 91.383 58.5467 94.305 58.5467 97.9574C58.5467 101.505 62.1489 104.427 66.5229 104.427C71.0255 104.427 74.6276 101.505 74.6276 97.9574Z" fill="white"/>
<path d="M66.7802 100.356C64.5933 100.356 63.6927 99.1037 63.6927 97.8514C63.564 96.5992 64.5933 95.2425 66.7802 95.2425C67.5521 95.2425 68.4526 95.4513 68.9672 95.9731L70.2537 95.0338C69.2245 94.3033 68.0667 93.8859 66.7802 93.8859C63.4354 93.8859 61.8916 95.8687 61.8916 97.8514C61.8916 99.8342 63.4354 101.713 66.7802 101.713C68.1954 101.713 69.3531 101.295 70.2537 100.565L69.0959 99.6255C68.5813 100.147 67.5521 100.356 66.7802 100.356Z" fill="white"/>
<path d="M-8.34961 81.4663L4.51509 71.0308L25.3559 88.0407L30.8877 83.5534L54.3015 64.4564L48.8983 60.0734L30.8877 45.4637L27.9289 43.0635L12.6198 30.5408L25.3559 20.2096L40.7936 32.628L43.7524 35.0281L61.6344 49.6379L64.5932 52.038L72.8266 58.7168C76.8147 61.9518 76.8147 67.0652 72.8266 70.3002L40.7936 96.2848L32.5601 103.068C28.5721 106.199 22.1397 106.199 18.2803 103.068L-8.34961 81.4663Z" fill="white"/>
<path d="M-50.1602 81.4667L-31.8923 66.5439L-13.8817 52.0384L-10.9228 49.6383L4.51481 37.1156L17.2509 47.5511L1.94187 60.0738L-1.01699 62.3696L-21.9865 79.3796L-37.2955 91.7979L-50.1602 81.4667Z" fill="white"/>
<path d="M-16.4546 7.06178L-37.2955 23.9674L-50.1602 13.6362L-16.4546 -13.705L17.2509 13.6362L4.51481 23.9674L-16.4546 7.06178Z" fill="#9C9898"/>
<path fill-rule="evenodd" clip-rule="evenodd" d="M75.7855 246.722C75.7855 250.792 71.6687 254.236 66.5229 254.236C61.5056 254.236 57.2603 250.792 57.2603 246.722C57.2603 242.548 61.5056 239.209 66.5229 239.209C71.6687 239.209 75.7855 242.548 75.7855 246.722ZM74.6276 246.722C74.6276 243.07 71.0255 240.148 66.5229 240.148C62.1489 240.148 58.5467 243.07 58.5467 246.722C58.5467 250.27 62.1489 253.192 66.5229 253.192C71.0255 253.192 74.6276 250.27 74.6276 246.722Z" fill="white"/>
<path d="M66.7802 249.121C64.5933 249.121 63.6927 247.869 63.6927 246.616C63.564 245.364 64.5933 244.007 66.7802 244.007C67.5521 244.007 68.4526 244.216 68.9672 244.738L70.2537 243.799C69.2245 243.068 68.0667 242.651 66.7802 242.651C63.4354 242.651 61.8916 244.634 61.8916 246.616C61.8916 248.599 63.4354 250.477 66.7802 250.477C68.1954 250.477 69.3531 250.06 70.2537 249.329L69.0959 248.39C68.5813 248.912 67.5521 249.121 66.7802 249.121Z" fill="white"/>
<path d="M-8.34961 230.231L4.51509 219.796L25.3559 236.806L30.8877 232.318L54.3015 213.221L48.8983 208.838L30.8877 194.229L27.9289 191.828L12.6198 179.306L25.3559 168.974L40.7936 181.393L43.7524 183.793L61.6344 198.403L64.5932 200.803L72.8266 207.482C76.8147 210.717 76.8147 215.83 72.8266 219.065L40.7936 245.05L32.5601 251.833C28.5721 254.963 22.1397 254.963 18.2803 251.833L-8.34961 230.231Z" fill="white"/>
<path d="M-50.1602 230.231L-31.8923 215.309L-13.8817 200.803L-10.9228 198.403L4.51481 185.88L17.2509 196.316L1.94187 208.839L-1.01699 211.134L-21.9865 228.144L-37.2955 240.563L-50.1602 230.231Z" fill="white"/>
<path d="M-16.4546 155.827L-37.2955 172.732L-50.1602 162.401L-16.4546 135.06L17.2509 162.401L4.51481 172.732L-16.4546 155.827Z" fill="#9C9898"/>
<path fill-rule="evenodd" clip-rule="evenodd" d="M75.7855 395.486C75.7855 399.556 71.6687 403 66.5229 403C61.5056 403 57.2603 399.556 57.2603 395.486C57.2603 391.312 61.5056 387.973 66.5229 387.973C71.6687 387.973 75.7855 391.312 75.7855 395.486ZM74.6276 395.486C74.6276 391.834 71.0255 388.912 66.5229 388.912C62.1489 388.912 58.5467 391.834 58.5467 395.486C58.5467 399.034 62.1489 401.956 66.5229 401.956C71.0255 401.956 74.6276 399.034 74.6276 395.486Z" fill="white"/>
<path d="M66.7802 397.885C64.5933 397.885 63.6927 396.633 63.6927 395.381C63.564 394.128 64.5933 392.772 66.7802 392.772C67.5521 392.772 68.4526 392.98 68.9672 393.502L70.2537 392.563C69.2245 391.832 68.0667 391.415 66.7802 391.415C63.4354 391.415 61.8916 393.398 61.8916 395.381C61.8916 397.363 63.4354 399.242 66.7802 399.242C68.1954 399.242 69.3531 398.824 70.2537 398.094L69.0959 397.155C68.5813 397.676 67.5521 397.885 66.7802 397.885Z" fill="white"/>
<path d="M-8.34961 378.997L4.51509 368.562L25.3559 385.572L30.8877 381.084L54.3015 361.987L48.8983 357.604L30.8877 342.995L27.9289 340.595L12.6198 328.072L25.3559 317.741L40.7936 330.159L43.7524 332.559L61.6344 347.169L64.5932 349.569L72.8266 356.248C76.8147 359.483 76.8147 364.596 72.8266 367.831L40.7936 393.816L32.5601 400.599C28.5721 403.73 22.1397 403.73 18.2803 400.599L-8.34961 378.997Z" fill="white"/>
<path d="M-50.1602 378.996L-31.8923 364.073L-13.8817 349.567L-10.9228 347.167L4.51481 334.644L17.2509 345.08L1.94187 357.603L-1.01699 359.899L-21.9865 376.908L-37.2955 389.327L-50.1602 378.996Z" fill="white"/>
<path d="M-16.4546 304.591L-37.2955 321.497L-50.1602 311.166L-16.4546 283.825L17.2509 311.166L4.51481 321.497L-16.4546 304.591Z" fill="#9C9898"/>
<path fill-rule="evenodd" clip-rule="evenodd" d="M75.7855 544.251C75.7855 548.321 71.6687 551.765 66.5229 551.765C61.5056 551.765 57.2603 548.321 57.2603 544.251C57.2603 540.077 61.5056 536.738 66.5229 536.738C71.6687 536.738 75.7855 540.077 75.7855 544.251ZM74.6276 544.251C74.6276 540.599 71.0255 537.677 66.5229 537.677C62.1489 537.677 58.5467 540.599 58.5467 544.251C58.5467 547.799 62.1489 550.721 66.5229 550.721C71.0255 550.721 74.6276 547.799 74.6276 544.251Z" fill="white"/>
<path d="M66.7802 546.65C64.5933 546.65 63.6927 545.398 63.6927 544.146C63.564 542.893 64.5933 541.537 66.7802 541.537C67.5521 541.537 68.4526 541.745 68.9672 542.267L70.2537 541.328C69.2245 540.597 68.0667 540.18 66.7802 540.18C63.4354 540.18 61.8916 542.163 61.8916 544.146C61.8916 546.128 63.4354 548.007 66.7802 548.007C68.1954 548.007 69.3531 547.589 70.2537 546.859L69.0959 545.92C68.5813 546.441 67.5521 546.65 66.7802 546.65Z" fill="white"/>
<path d="M-8.34961 527.76L4.51509 517.325L25.3559 534.335L30.8877 529.848L54.3015 510.75L48.8983 506.368L30.8877 491.758L27.9289 489.358L12.6198 476.835L25.3559 466.504L40.7936 478.922L43.7524 481.322L61.6344 495.932L64.5932 498.332L72.8266 505.011C76.8147 508.246 76.8147 513.359 72.8266 516.594L40.7936 542.579L32.5601 549.362C28.5721 552.493 22.1397 552.493 18.2803 549.362L-8.34961 527.76Z" fill="white"/>
<path d="M-50.1602 527.76L-31.8923 512.837L-13.8817 498.332L-10.9228 495.932L4.51481 483.409L17.2509 493.845L1.94187 506.367L-1.01699 508.663L-21.9865 525.673L-37.2955 538.092L-50.1602 527.76Z" fill="white"/>
<path d="M-16.4546 453.355L-37.2955 470.261L-50.1602 459.93L-16.4546 432.589L17.2509 459.93L4.51481 470.261L-16.4546 453.355Z" fill="#9C9898"/>
<path fill-rule="evenodd" clip-rule="evenodd" d="M75.7855 693.016C75.7855 697.086 71.6687 700.53 66.5229 700.53C61.5056 700.53 57.2603 697.086 57.2603 693.016C57.2603 688.842 61.5056 685.503 66.5229 685.503C71.6687 685.503 75.7855 688.842 75.7855 693.016ZM74.6276 693.016C74.6276 689.364 71.0255 686.442 66.5229 686.442C62.1489 686.442 58.5467 689.364 58.5467 693.016C58.5467 696.564 62.1489 699.486 66.5229 699.486C71.0255 699.486 74.6276 696.564 74.6276 693.016Z" fill="white"/>
<path d="M66.7802 695.415C64.5933 695.415 63.6927 694.163 63.6927 692.911C63.564 691.658 64.5933 690.302 66.7802 690.302C67.5521 690.302 68.4526 690.51 68.9672 691.032L70.2537 690.093C69.2245 689.362 68.0667 688.945 66.7802 688.945C63.4354 688.945 61.8916 690.928 61.8916 692.911C61.8916 694.893 63.4354 696.772 66.7802 696.772C68.1954 696.772 69.3531 696.354 70.2537 695.624L69.0959 694.685C68.5813 695.206 67.5521 695.415 66.7802 695.415Z" fill="white"/>
<path d="M-8.34961 676.525L4.51509 666.09L25.3559 683.1L30.8877 678.613L54.3015 659.515L48.8983 655.133L30.8877 640.523L27.9289 638.123L12.6198 625.6L25.3559 615.269L40.7936 627.687L43.7524 630.087L61.6344 644.697L64.5932 647.097L72.8266 653.776C76.8147 657.011 76.8147 662.124 72.8266 665.359L40.7936 691.344L32.5601 698.127C28.5721 701.258 22.1397 701.258 18.2803 698.127L-8.34961 676.525Z" fill="white"/>
<path d="M-50.1602 676.525L-31.8923 661.603L-13.8817 647.097L-10.9228 644.697L4.51481 632.174L17.2509 642.61L1.94187 655.132L-1.01699 657.428L-21.9865 674.438L-37.2955 686.857L-50.1602 676.525Z" fill="white"/>
<path d="M-16.4546 602.12L-37.2955 619.026L-50.1602 608.695L-16.4546 581.354L17.2509 608.695L4.51481 619.026L-16.4546 602.12Z" fill="#9C9898"/>
<path fill-rule="evenodd" clip-rule="evenodd" d="M75.7855 841.781C75.7855 845.851 71.6687 849.295 66.5229 849.295C61.5056 849.295 57.2603 845.851 57.2603 841.781C57.2603 837.607 61.5056 834.268 66.5229 834.268C71.6687 834.268 75.7855 837.607 75.7855 841.781ZM74.6276 841.781C74.6276 838.129 71.0255 835.207 66.5229 835.207C62.1489 835.207 58.5467 838.129 58.5467 841.781C58.5467 845.33 62.1489 848.252 66.5229 848.252C71.0255 848.252 74.6276 845.33 74.6276 841.781Z" fill="white"/>
<path d="M-8.34961 825.291L4.51509 814.855L25.3559 831.865L30.8877 827.378L54.3015 808.281L48.8983 803.898L30.8877 789.288L27.9289 786.888L12.6198 774.365L25.3559 764.034L40.7936 776.452L43.7524 778.852L61.6344 793.462L64.5932 795.862L72.8266 802.541C76.8147 805.776 76.8147 810.889 72.8266 814.124L40.7936 840.109L32.5601 846.892C28.5721 850.023 22.1397 850.023 18.2803 846.892L-8.34961 825.291Z" fill="white"/>
<path d="M-50.1602 825.29L-31.8923 810.368L-13.8817 795.862L-10.9228 793.462L4.51481 780.939L17.2509 791.375L1.94187 803.898L-1.01699 806.193L-21.9865 823.203L-37.2955 835.622L-50.1602 825.29Z" fill="white"/>
<path d="M-16.4546 750.886L-37.2955 767.791L-50.1602 757.46L-16.4546 730.119L17.2509 757.46L4.51481 767.791L-16.4546 750.886Z" fill="#9C9898"/>
<path fill-rule="evenodd" clip-rule="evenodd" d="M286.059 97.6625C286.059 101.732 281.942 105.176 276.796 105.176C271.779 105.176 267.534 101.732 267.534 97.6625C267.534 93.4883 271.779 90.1489 276.796 90.1489C281.942 90.1489 286.059 93.4883 286.059 97.6625ZM284.901 97.6625C284.901 94.0101 281.299 91.0882 276.796 91.0882C272.422 91.0882 268.82 94.0101 268.82 97.6625C268.82 101.211 272.422 104.133 276.796 104.133C281.299 104.133 284.901 101.211 284.901 97.6625Z" fill="white"/>
<path d="M277.054 100.061C274.867 100.061 273.966 98.809 273.966 97.5567C273.837 96.3045 274.867 94.9479 277.054 94.9479C277.826 94.9479 278.726 95.1566 279.241 95.6784L280.527 94.7391C279.498 94.0086 278.34 93.5912 277.054 93.5912C273.709 93.5912 272.165 95.574 272.165 97.5567C272.165 99.5395 273.709 101.418 277.054 101.418C278.469 101.418 279.627 101 280.527 100.27L279.369 99.3308C278.855 99.8526 277.826 100.061 277.054 100.061Z" fill="white"/>
<path d="M201.924 81.1716L214.789 70.7361L235.629 87.746L241.161 83.2587L264.575 64.1617L259.172 59.7787L241.161 45.169L238.202 42.7688L222.893 30.2461L235.629 19.9149L251.067 32.3333L254.026 34.7334L271.908 49.3432L274.867 51.7433L283.1 58.4221C287.088 61.6571 287.088 66.7705 283.1 70.0056L251.067 95.9901L242.834 102.773C238.845 105.904 232.413 105.904 228.554 102.773L201.924 81.1716Z" fill="white"/>
<path d="M160.113 81.1715L178.381 66.2487L196.392 51.7433L199.351 49.3431L214.788 36.8205L227.524 47.256L212.215 59.7787L209.256 62.0745L188.287 79.0844L172.978 91.5028L160.113 81.1715Z" fill="white"/>
<path d="M184.299 27.6372L190.603 22.5238C192.404 21.0628 195.363 21.0628 197.164 22.5238L203.339 27.6372C205.14 29.0982 205.14 31.4984 203.339 32.9593L197.035 38.0728C195.234 39.5338 192.404 39.5338 190.603 38.0728L184.299 32.9593C182.498 31.4984 182.498 29.0982 184.299 27.6372Z" fill="#9C9898"/>
<path d="M193.819 6.76664L172.978 23.6722L160.113 13.341L193.819 -14.0001L227.524 13.341L214.788 23.6722L193.819 6.76664Z" fill="#9C9898"/>
<path d="M104.538 70.0056C100.55 66.7705 100.55 61.6571 104.538 58.4221L136.571 32.3333L152.009 19.9149L185.714 47.2561L172.978 57.5873L152.009 40.6817L123.063 64.1617L164.873 98.0772L159.213 102.773C155.225 105.904 148.793 105.904 144.933 102.773L104.538 70.0056Z" fill="white"/>
<path fill-rule="evenodd" clip-rule="evenodd" d="M286.059 246.428C286.059 250.498 281.942 253.941 276.796 253.941C271.779 253.941 267.534 250.498 267.534 246.428C267.534 242.253 271.779 238.914 276.796 238.914C281.942 238.914 286.059 242.253 286.059 246.428ZM284.901 246.428C284.901 242.775 281.299 239.853 276.796 239.853C272.422 239.853 268.82 242.775 268.82 246.428C268.82 249.976 272.422 252.898 276.796 252.898C281.299 252.898 284.901 249.976 284.901 246.428Z" fill="white"/>
<path d="M277.054 248.826C274.867 248.826 273.966 247.574 273.966 246.322C273.837 245.07 274.867 243.713 277.054 243.713C277.826 243.713 278.726 243.922 279.241 244.444L280.527 243.504C279.498 242.774 278.34 242.356 277.054 242.356C273.709 242.356 272.165 244.339 272.165 246.322C272.165 248.305 273.709 250.183 277.054 250.183C278.469 250.183 279.627 249.766 280.527 249.035L279.369 248.096C278.855 248.618 277.826 248.826 277.054 248.826Z" fill="white"/>
<path d="M201.924 229.937L214.789 219.501L235.629 236.511L241.161 232.024L264.575 212.927L259.172 208.544L241.161 193.934L238.202 191.534L222.893 179.011L235.629 168.68L251.067 181.098L254.026 183.499L271.908 198.108L274.867 200.509L283.1 207.187C287.088 210.422 287.088 215.536 283.1 218.771L251.067 244.755L242.834 251.538C238.845 254.669 232.413 254.669 228.554 251.538L201.924 229.937Z" fill="white"/>
<path d="M160.113 229.937L178.381 215.014L196.392 200.509L199.351 198.108L214.788 185.586L227.524 196.021L212.215 208.544L209.256 210.84L188.287 227.85L172.978 240.268L160.113 229.937Z" fill="white"/>
<path d="M184.299 176.402L190.603 171.289C192.404 169.828 195.363 169.828 197.164 171.289L203.339 176.402C205.14 177.863 205.14 180.263 203.339 181.724L197.035 186.838C195.234 188.299 192.404 188.299 190.603 186.838L184.299 181.724C182.498 180.263 182.498 177.863 184.299 176.402Z" fill="#9C9898"/>
<path d="M193.819 155.532L172.978 172.437L160.113 162.106L193.819 134.765L227.524 162.106L214.788 172.437L193.819 155.532Z" fill="#9C9898"/>
<path d="M104.538 218.771C100.55 215.536 100.55 210.422 104.538 207.187L136.571 181.098L152.009 168.68L185.714 196.021L172.978 206.352L152.009 189.447L123.063 212.927L164.873 246.842L159.213 251.538C155.225 254.669 148.793 254.669 144.933 251.538L104.538 218.771Z" fill="white"/>
<path fill-rule="evenodd" clip-rule="evenodd" d="M286.059 395.193C286.059 399.262 281.942 402.706 276.796 402.706C271.779 402.706 267.534 399.262 267.534 395.193C267.534 391.018 271.779 387.679 276.796 387.679C281.942 387.679 286.059 391.018 286.059 395.193ZM284.901 395.193C284.901 391.54 281.299 388.618 276.796 388.618C272.422 388.618 268.82 391.54 268.82 395.193C268.82 398.741 272.422 401.663 276.796 401.663C281.299 401.663 284.901 398.741 284.901 395.193Z" fill="white"/>
<path d="M277.054 397.591C274.867 397.591 273.966 396.339 273.966 395.087C273.837 393.834 274.867 392.478 277.054 392.478C277.826 392.478 278.726 392.686 279.241 393.208L280.527 392.269C279.498 391.538 278.34 391.121 277.054 391.121C273.709 391.121 272.165 393.104 272.165 395.087C272.165 397.069 273.709 398.948 277.054 398.948C278.469 398.948 279.627 398.53 280.527 397.8L279.369 396.861C278.855 397.382 277.826 397.591 277.054 397.591Z" fill="white"/>
<path d="M201.924 378.703L214.789 368.268L235.629 385.278L241.161 380.79L264.575 361.693L259.172 357.31L241.161 342.701L238.202 340.301L222.893 327.778L235.629 317.447L251.067 329.865L254.026 332.265L271.908 346.875L274.867 349.275L283.1 355.954C287.088 359.189 287.088 364.302 283.1 367.537L251.067 393.522L242.834 400.305C238.845 403.436 232.413 403.436 228.554 400.305L201.924 378.703Z" fill="white"/>
<path d="M160.113 378.702L178.381 363.779L196.392 349.273L199.351 346.873L214.788 334.35L227.524 344.786L212.215 357.309L209.256 359.605L188.287 376.614L172.978 389.033L160.113 378.702Z" fill="white"/>
<path d="M184.299 325.167L190.603 320.054C192.404 318.593 195.363 318.593 197.164 320.054L203.339 325.167C205.14 326.628 205.14 329.029 203.339 330.49L197.035 335.603C195.234 337.064 192.404 337.064 190.603 335.603L184.299 330.49C182.498 329.029 182.498 326.628 184.299 325.167Z" fill="#9C9898"/>
<path d="M193.819 304.297L172.978 321.203L160.113 310.871L193.819 283.53L227.524 310.871L214.788 321.203L193.819 304.297Z" fill="#9C9898"/>
<path d="M104.538 367.537C100.55 364.302 100.55 359.189 104.538 355.954L136.571 329.865L152.009 317.447L185.714 344.788L172.978 355.119L152.009 338.213L123.063 361.693L164.873 395.609L159.213 400.305C155.225 403.436 148.793 403.436 144.933 400.305L104.538 367.537Z" fill="white"/>
<path fill-rule="evenodd" clip-rule="evenodd" d="M286.059 543.957C286.059 548.027 281.942 551.471 276.796 551.471C271.779 551.471 267.534 548.027 267.534 543.957C267.534 539.783 271.779 536.444 276.796 536.444C281.942 536.444 286.059 539.783 286.059 543.957ZM284.901 543.957C284.901 540.305 281.299 537.383 276.796 537.383C272.422 537.383 268.82 540.305 268.82 543.957C268.82 547.505 272.422 550.427 276.796 550.427C281.299 550.427 284.901 547.505 284.901 543.957Z" fill="white"/>
<path d="M277.054 546.356C274.867 546.356 273.966 545.104 273.966 543.851C273.837 542.599 274.867 541.242 277.054 541.242C277.826 541.242 278.726 541.451 279.241 541.973L280.527 541.034C279.498 540.303 278.34 539.886 277.054 539.886C273.709 539.886 272.165 541.869 272.165 543.851C272.165 545.834 273.709 547.713 277.054 547.713C278.469 547.713 279.627 547.295 280.527 546.565L279.369 545.625C278.855 546.147 277.826 546.356 277.054 546.356Z" fill="white"/>
<path d="M201.924 527.466L214.789 517.031L235.629 534.041L241.161 529.553L264.575 510.456L259.172 506.073L241.161 491.464L238.202 489.063L222.893 476.541L235.629 466.21L251.067 478.628L254.026 481.028L271.908 495.638L274.867 498.038L283.1 504.717C287.088 507.952 287.088 513.065 283.1 516.3L251.067 542.285L242.834 549.068C238.845 552.198 232.413 552.198 228.554 549.068L201.924 527.466Z" fill="white"/>
<path d="M160.113 527.467L178.381 512.544L196.392 498.038L199.351 495.638L214.788 483.115L227.524 493.551L212.215 506.074L209.256 508.37L188.287 525.379L172.978 537.798L160.113 527.467Z" fill="white"/>
<path d="M184.299 473.932L190.603 468.819C192.404 467.358 195.363 467.358 197.164 468.819L203.339 473.932C205.14 475.393 205.14 477.793 203.339 479.254L197.035 484.368C195.234 485.829 192.404 485.829 190.603 484.368L184.299 479.254C182.498 477.793 182.498 475.393 184.299 473.932Z" fill="#9C9898"/>
<path d="M193.819 453.062L172.978 469.967L160.113 459.636L193.819 432.295L227.524 459.636L214.788 469.967L193.819 453.062Z" fill="#9C9898"/>
<path d="M104.538 516.3C100.55 513.065 100.55 507.952 104.538 504.717L136.571 478.628L152.009 466.21L185.714 493.551L172.978 503.882L152.009 486.976L123.063 510.456L164.873 544.372L159.213 549.068C155.225 552.198 148.793 552.198 144.933 549.068L104.538 516.3Z" fill="white"/>
<path fill-rule="evenodd" clip-rule="evenodd" d="M286.059 692.722C286.059 696.792 281.942 700.236 276.796 700.236C271.779 700.236 267.534 696.792 267.534 692.722C267.534 688.548 271.779 685.208 276.796 685.208C281.942 685.208 286.059 688.548 286.059 692.722ZM284.901 692.722C284.901 689.07 281.299 686.148 276.796 686.148C272.422 686.148 268.82 689.07 268.82 692.722C268.82 696.27 272.422 699.192 276.796 699.192C281.299 699.192 284.901 696.27 284.901 692.722Z" fill="white"/>
<path d="M277.054 695.121C274.867 695.121 273.966 693.868 273.966 692.616C273.837 691.364 274.867 690.007 277.054 690.007C277.826 690.007 278.726 690.216 279.241 690.738L280.527 689.799C279.498 689.068 278.34 688.651 277.054 688.651C273.709 688.651 272.165 690.633 272.165 692.616C272.165 694.599 273.709 696.477 277.054 696.477C278.469 696.477 279.627 696.06 280.527 695.329L279.369 694.39C278.855 694.912 277.826 695.121 277.054 695.121Z" fill="white"/>
<path d="M201.924 676.231L214.789 665.796L235.629 682.805L241.161 678.318L264.575 659.221L259.172 654.838L241.161 640.228L238.202 637.828L222.893 625.306L235.629 614.974L251.067 627.393L254.026 629.793L271.908 644.403L274.867 646.803L283.1 653.482C287.088 656.717 287.088 661.83 283.1 665.065L251.067 691.05L242.834 697.833C238.845 700.963 232.413 700.963 228.554 697.833L201.924 676.231Z" fill="white"/>
<path d="M160.113 676.231L178.381 661.309L196.392 646.803L199.351 644.403L214.788 631.88L227.524 642.316L212.215 654.839L209.256 657.134L188.287 674.144L172.978 686.563L160.113 676.231Z" fill="white"/>
<path d="M184.299 622.697L190.603 617.584C192.404 616.123 195.363 616.123 197.164 617.584L203.339 622.697C205.14 624.158 205.14 626.558 203.339 628.019L197.035 633.133C195.234 634.594 192.404 634.594 190.603 633.133L184.299 628.019C182.498 626.558 182.498 624.158 184.299 622.697Z" fill="#9C9898"/>
<path d="M193.819 601.827L172.978 618.732L160.113 608.401L193.819 581.06L227.524 608.401L214.788 618.732L193.819 601.827Z" fill="#9C9898"/>
<path d="M104.538 665.065C100.55 661.83 100.55 656.717 104.538 653.482L136.571 627.393L152.009 614.974L185.714 642.316L172.978 652.647L152.009 635.741L123.063 659.221L164.873 693.137L159.213 697.833C155.225 700.963 148.793 700.963 144.933 697.833L104.538 665.065Z" fill="white"/>
<path fill-rule="evenodd" clip-rule="evenodd" d="M286.059 841.486C286.059 845.556 281.942 849 276.796 849C271.779 849 267.534 845.556 267.534 841.486C267.534 837.312 271.779 833.973 276.796 833.973C281.942 833.973 286.059 837.312 286.059 841.486ZM284.901 841.486C284.901 837.834 281.299 834.912 276.796 834.912C272.422 834.912 268.82 837.834 268.82 841.486C268.82 845.034 272.422 847.956 276.796 847.956C281.299 847.956 284.901 845.034 284.901 841.486Z" fill="white"/>
<path d="M201.924 824.997L214.789 814.562L235.629 831.572L241.161 827.084L264.575 807.987L259.172 803.604L241.161 788.995L238.202 786.594L222.893 774.072L235.629 763.741L251.067 776.159L254.026 778.559L271.908 793.169L274.867 795.569L283.1 802.248C287.088 805.483 287.088 810.596 283.1 813.831L251.067 839.816L242.834 846.599C238.845 849.73 232.413 849.73 228.554 846.599L201.924 824.997Z" fill="white"/>
<path d="M160.113 824.995L178.381 810.073L196.392 795.567L199.351 793.167L214.788 780.644L227.524 791.08L212.215 803.603L209.256 805.898L188.287 822.908L172.978 835.327L160.113 824.995Z" fill="white"/>
<path d="M184.299 771.462L190.603 766.348C192.404 764.887 195.363 764.887 197.164 766.348L203.339 771.462C205.14 772.923 205.14 775.323 203.339 776.784L197.035 781.897C195.234 783.358 192.404 783.358 190.603 781.897L184.299 776.784C182.498 775.323 182.498 772.923 184.299 771.462Z" fill="#9C9898"/>
<path d="M193.819 750.591L172.978 767.497L160.113 757.166L193.819 729.825L227.524 757.166L214.788 767.497L193.819 750.591Z" fill="#9C9898"/>
<path d="M104.538 813.831C100.55 810.596 100.55 805.483 104.538 802.248L136.571 776.159L152.009 763.741L185.714 791.082L172.978 801.413L152.009 784.507L123.063 807.987L164.873 841.903L159.213 846.599C155.225 849.73 148.793 849.73 144.933 846.599L104.538 813.831Z" fill="white"/>
<path fill-rule="evenodd" clip-rule="evenodd" d="M496.332 97.9574C496.332 102.027 492.216 105.471 487.07 105.471C482.052 105.471 477.807 102.027 477.807 97.9574C477.807 93.7832 482.052 90.4438 487.07 90.4438C492.216 90.4438 496.332 93.7832 496.332 97.9574ZM495.174 97.9574C495.174 94.305 491.572 91.383 487.07 91.383C482.696 91.383 479.094 94.305 479.094 97.9574C479.094 101.505 482.696 104.427 487.07 104.427C491.572 104.427 495.174 101.505 495.174 97.9574Z" fill="white"/>
<path d="M487.327 100.356C485.14 100.356 484.24 99.1037 484.24 97.8514C484.111 96.5992 485.14 95.2425 487.327 95.2425C488.099 95.2425 488.999 95.4513 489.514 95.9731L490.801 95.0338C489.771 94.3033 488.614 93.8859 487.327 93.8859C483.982 93.8859 482.438 95.8687 482.438 97.8514C482.438 99.8342 483.982 101.713 487.327 101.713C488.742 101.713 489.9 101.295 490.801 100.565L489.643 99.6255C489.128 100.147 488.099 100.356 487.327 100.356Z" fill="white"/>
<path d="M412.197 81.4663L425.062 71.0308L445.903 88.0407L451.435 83.5534L474.848 64.4564L469.445 60.0734L451.435 45.4637L448.476 43.0635L433.167 30.5408L445.903 20.2096L461.34 32.628L464.299 35.0281L482.181 49.6379L485.14 52.038L493.373 58.7168C497.362 61.9518 497.362 67.0652 493.373 70.3002L461.34 96.2848L453.107 103.068C449.119 106.199 442.687 106.199 438.827 103.068L412.197 81.4663Z" fill="white"/>
<path d="M370.387 81.4667L388.655 66.5439L406.665 52.0384L409.624 49.6383L425.062 37.1156L437.798 47.5511L422.489 60.0738L419.53 62.3696L398.56 79.3796L383.251 91.7979L370.387 81.4667Z" fill="white"/>
<path d="M394.572 27.9324L400.876 22.8189C402.677 21.3579 405.636 21.3579 407.437 22.8189L413.612 27.9324C415.413 29.3933 415.413 31.7935 413.612 33.2545L407.309 38.3679C405.507 39.8289 402.677 39.8289 400.876 38.3679L394.572 33.2545C392.771 31.7935 392.771 29.3933 394.572 27.9324Z" fill="#9C9898"/>
<path d="M404.092 7.06178L383.251 23.9674L370.387 13.6362L404.092 -13.705L437.798 13.6362L425.062 23.9674L404.092 7.06178Z" fill="#9C9898"/>
<path d="M314.811 70.3002C310.823 67.0652 310.823 61.9518 314.811 58.7168L346.844 32.628L362.282 20.2096L395.988 47.5508L383.252 57.882L362.282 40.9764L333.337 64.4564L375.147 98.3719L369.486 103.068C365.498 106.199 359.066 106.199 355.207 103.068L314.811 70.3002Z" fill="white"/>
<path fill-rule="evenodd" clip-rule="evenodd" d="M496.332 246.722C496.332 250.792 492.216 254.236 487.07 254.236C482.052 254.236 477.807 250.792 477.807 246.722C477.807 242.548 482.052 239.209 487.07 239.209C492.216 239.209 496.332 242.548 496.332 246.722ZM495.174 246.722C495.174 243.07 491.572 240.148 487.07 240.148C482.696 240.148 479.094 243.07 479.094 246.722C479.094 250.27 482.696 253.192 487.07 253.192C491.572 253.192 495.174 250.27 495.174 246.722Z" fill="white"/>
<path d="M487.327 249.121C485.14 249.121 484.24 247.869 484.24 246.616C484.111 245.364 485.14 244.007 487.327 244.007C488.099 244.007 488.999 244.216 489.514 244.738L490.801 243.799C489.771 243.068 488.614 242.651 487.327 242.651C483.982 242.651 482.438 244.634 482.438 246.616C482.438 248.599 483.982 250.477 487.327 250.477C488.742 250.477 489.9 250.06 490.801 249.329L489.643 248.39C489.128 248.912 488.099 249.121 487.327 249.121Z" fill="white"/>
<path d="M412.197 230.231L425.062 219.796L445.903 236.806L451.435 232.318L474.848 213.221L469.445 208.838L451.435 194.229L448.476 191.828L433.167 179.306L445.903 168.974L461.34 181.393L464.299 183.793L482.181 198.403L485.14 200.803L493.373 207.482C497.362 210.717 497.362 215.83 493.373 219.065L461.34 245.05L453.107 251.833C449.119 254.963 442.687 254.963 438.827 251.833L412.197 230.231Z" fill="white"/>
<path d="M370.387 230.231L388.655 215.309L406.665 200.803L409.624 198.403L425.062 185.88L437.798 196.316L422.489 208.839L419.53 211.134L398.56 228.144L383.251 240.563L370.387 230.231Z" fill="white"/>
<path d="M394.572 176.697L400.876 171.584C402.677 170.123 405.636 170.123 407.437 171.584L413.612 176.697C415.413 178.158 415.413 180.558 413.612 182.019L407.309 187.133C405.507 188.594 402.677 188.594 400.876 187.133L394.572 182.019C392.771 180.558 392.771 178.158 394.572 176.697Z" fill="#9C9898"/>
<path d="M404.092 155.827L383.251 172.732L370.387 162.401L404.092 135.06L437.798 162.401L425.062 172.732L404.092 155.827Z" fill="#9C9898"/>
<path d="M314.811 219.065C310.823 215.83 310.823 210.717 314.811 207.482L346.844 181.393L362.282 168.974L395.988 196.316L383.252 206.647L362.282 189.741L333.337 213.221L375.147 247.137L369.486 251.833C365.498 254.963 359.066 254.963 355.207 251.833L314.811 219.065Z" fill="white"/>
<path fill-rule="evenodd" clip-rule="evenodd" d="M496.332 395.486C496.332 399.556 492.216 403 487.07 403C482.052 403 477.807 399.556 477.807 395.486C477.807 391.312 482.052 387.973 487.07 387.973C492.216 387.973 496.332 391.312 496.332 395.486ZM495.174 395.486C495.174 391.834 491.572 388.912 487.07 388.912C482.696 388.912 479.094 391.834 479.094 395.486C479.094 399.034 482.696 401.956 487.07 401.956C491.572 401.956 495.174 399.034 495.174 395.486Z" fill="white"/>
<path d="M487.327 397.885C485.14 397.885 484.24 396.633 484.24 395.381C484.111 394.128 485.14 392.772 487.327 392.772C488.099 392.772 488.999 392.98 489.514 393.502L490.801 392.563C489.771 391.832 488.614 391.415 487.327 391.415C483.982 391.415 482.438 393.398 482.438 395.381C482.438 397.363 483.982 399.242 487.327 399.242C488.742 399.242 489.9 398.824 490.801 398.094L489.643 397.155C489.128 397.676 488.099 397.885 487.327 397.885Z" fill="white"/>
<path d="M412.197 378.997L425.062 368.562L445.903 385.572L451.435 381.084L474.848 361.987L469.445 357.604L451.435 342.995L448.476 340.595L433.167 328.072L445.903 317.741L461.34 330.159L464.299 332.559L482.181 347.169L485.14 349.569L493.373 356.248C497.362 359.483 497.362 364.596 493.373 367.831L461.34 393.816L453.107 400.599C449.119 403.73 442.687 403.73 438.827 400.599L412.197 378.997Z" fill="white"/>
<path d="M370.387 378.996L388.655 364.073L406.665 349.567L409.624 347.167L425.062 334.644L437.798 345.08L422.489 357.603L419.53 359.899L398.56 376.908L383.251 389.327L370.387 378.996Z" fill="white"/>
<path d="M394.572 325.462L400.876 320.348C402.677 318.888 405.636 318.888 407.437 320.348L413.612 325.462C415.413 326.923 415.413 329.323 413.612 330.784L407.309 335.897C405.507 337.358 402.677 337.358 400.876 335.897L394.572 330.784C392.771 329.323 392.771 326.923 394.572 325.462Z" fill="#9C9898"/>
<path d="M404.092 304.591L383.251 321.497L370.387 311.166L404.092 283.825L437.798 311.166L425.062 321.497L404.092 304.591Z" fill="#9C9898"/>
<path d="M314.811 367.831C310.823 364.596 310.823 359.483 314.811 356.248L346.844 330.159L362.282 317.741L395.988 345.082L383.252 355.413L362.282 338.507L333.337 361.987L375.147 395.903L369.486 400.599C365.498 403.73 359.066 403.73 355.207 400.599L314.811 367.831Z" fill="white"/>
<path fill-rule="evenodd" clip-rule="evenodd" d="M496.332 544.251C496.332 548.321 492.216 551.765 487.07 551.765C482.052 551.765 477.807 548.321 477.807 544.251C477.807 540.077 482.052 536.738 487.07 536.738C492.216 536.738 496.332 540.077 496.332 544.251ZM495.174 544.251C495.174 540.599 491.572 537.677 487.07 537.677C482.696 537.677 479.094 540.599 479.094 544.251C479.094 547.799 482.696 550.721 487.07 550.721C491.572 550.721 495.174 547.799 495.174 544.251Z" fill="white"/>
<path d="M487.327 546.65C485.14 546.65 484.24 545.398 484.24 544.146C484.111 542.893 485.14 541.537 487.327 541.537C488.099 541.537 488.999 541.745 489.514 542.267L490.801 541.328C489.771 540.597 488.614 540.18 487.327 540.18C483.982 540.18 482.438 542.163 482.438 544.146C482.438 546.128 483.982 548.007 487.327 548.007C488.742 548.007 489.9 547.589 490.801 546.859L489.643 545.92C489.128 546.441 488.099 546.65 487.327 546.65Z" fill="white"/>
<path d="M412.197 527.76L425.062 517.325L445.903 534.335L451.435 529.848L474.848 510.75L469.445 506.368L451.435 491.758L448.476 489.358L433.167 476.835L445.903 466.504L461.34 478.922L464.299 481.322L482.181 495.932L485.14 498.332L493.373 505.011C497.362 508.246 497.362 513.359 493.373 516.594L461.34 542.579L453.107 549.362C449.119 552.493 442.687 552.493 438.827 549.362L412.197 527.76Z" fill="white"/>
<path d="M370.387 527.76L388.655 512.837L406.665 498.332L409.624 495.932L425.062 483.409L437.798 493.845L422.489 506.367L419.53 508.663L398.56 525.673L383.251 538.092L370.387 527.76Z" fill="white"/>
<path d="M394.572 474.226L400.876 469.113C402.677 467.652 405.636 467.652 407.437 469.113L413.612 474.226C415.413 475.687 415.413 478.087 413.612 479.548L407.309 484.662C405.507 486.123 402.677 486.123 400.876 484.662L394.572 479.548C392.771 478.087 392.771 475.687 394.572 474.226Z" fill="#9C9898"/>
<path d="M404.092 453.355L383.251 470.261L370.387 459.93L404.092 432.589L437.798 459.93L425.062 470.261L404.092 453.355Z" fill="#9C9898"/>
<path d="M314.811 516.594C310.823 513.359 310.823 508.246 314.811 505.011L346.844 478.922L362.282 466.504L395.988 493.845L383.252 504.176L362.282 487.27L333.337 510.75L375.147 544.666L369.486 549.362C365.498 552.493 359.066 552.493 355.207 549.362L314.811 516.594Z" fill="white"/>
<path fill-rule="evenodd" clip-rule="evenodd" d="M496.332 693.016C496.332 697.086 492.216 700.53 487.07 700.53C482.052 700.53 477.807 697.086 477.807 693.016C477.807 688.842 482.052 685.503 487.07 685.503C492.216 685.503 496.332 688.842 496.332 693.016ZM495.174 693.016C495.174 689.364 491.572 686.442 487.07 686.442C482.696 686.442 479.094 689.364 479.094 693.016C479.094 696.564 482.696 699.486 487.07 699.486C491.572 699.486 495.174 696.564 495.174 693.016Z" fill="white"/>
<path d="M487.327 695.415C485.14 695.415 484.24 694.163 484.24 692.911C484.111 691.658 485.14 690.302 487.327 690.302C488.099 690.302 488.999 690.51 489.514 691.032L490.801 690.093C489.771 689.362 488.614 688.945 487.327 688.945C483.982 688.945 482.438 690.928 482.438 692.911C482.438 694.893 483.982 696.772 487.327 696.772C488.742 696.772 489.9 696.354 490.801 695.624L489.643 694.685C489.128 695.206 488.099 695.415 487.327 695.415Z" fill="white"/>
<path d="M412.197 676.525L425.062 666.09L445.903 683.1L451.435 678.613L474.848 659.515L469.445 655.133L451.435 640.523L448.476 638.123L433.167 625.6L445.903 615.269L461.34 627.687L464.299 630.087L482.181 644.697L485.14 647.097L493.373 653.776C497.362 657.011 497.362 662.124 493.373 665.359L461.34 691.344L453.107 698.127C449.119 701.258 442.687 701.258 438.827 698.127L412.197 676.525Z" fill="white"/>
<path d="M370.387 676.525L388.655 661.603L406.665 647.097L409.624 644.697L425.062 632.174L437.798 642.61L422.489 655.132L419.53 657.428L398.56 674.438L383.251 686.857L370.387 676.525Z" fill="white"/>
<path d="M394.572 622.991L400.876 617.878C402.677 616.417 405.636 616.417 407.437 617.878L413.612 622.991C415.413 624.452 415.413 626.852 413.612 628.313L407.309 633.427C405.507 634.888 402.677 634.888 400.876 633.427L394.572 628.313C392.771 626.852 392.771 624.452 394.572 622.991Z" fill="#9C9898"/>
<path d="M404.092 602.12L383.251 619.026L370.387 608.695L404.092 581.354L437.798 608.695L425.062 619.026L404.092 602.12Z" fill="#9C9898"/>
<path d="M314.811 665.359C310.823 662.124 310.823 657.011 314.811 653.776L346.844 627.687L362.282 615.269L395.988 642.61L383.252 652.941L362.282 636.036L333.337 659.515L375.147 693.431L369.486 698.127C365.498 701.258 359.066 701.258 355.207 698.127L314.811 665.359Z" fill="white"/>
<path fill-rule="evenodd" clip-rule="evenodd" d="M496.332 841.781C496.332 845.851 492.216 849.295 487.07 849.295C482.052 849.295 477.807 845.851 477.807 841.781C477.807 837.607 482.052 834.268 487.07 834.268C492.216 834.268 496.332 837.607 496.332 841.781ZM495.174 841.781C495.174 838.129 491.572 835.207 487.07 835.207C482.696 835.207 479.094 838.129 479.094 841.781C479.094 845.33 482.696 848.252 487.07 848.252C491.572 848.252 495.174 845.33 495.174 841.781Z" fill="white"/>
<path d="M412.197 825.291L425.062 814.855L445.903 831.865L451.435 827.378L474.848 808.281L469.445 803.898L451.435 789.288L448.476 786.888L433.167 774.365L445.903 764.034L461.34 776.452L464.299 778.852L482.181 793.462L485.14 795.862L493.373 802.541C497.362 805.776 497.362 810.889 493.373 814.124L461.34 840.109L453.107 846.892C449.119 850.023 442.687 850.023 438.827 846.892L412.197 825.291Z" fill="white"/>
<path d="M370.387 825.29L388.655 810.368L406.665 795.862L409.624 793.462L425.062 780.939L437.798 791.375L422.489 803.898L419.53 806.193L398.56 823.203L383.251 835.622L370.387 825.29Z" fill="white"/>
<path d="M394.572 771.756L400.876 766.643C402.677 765.182 405.636 765.182 407.437 766.643L413.612 771.756C415.413 773.217 415.413 775.617 413.612 777.078L407.309 782.192C405.507 783.653 402.677 783.653 400.876 782.192L394.572 777.078C392.771 775.617 392.771 773.217 394.572 771.756Z" fill="#9C9898"/>
<path d="M404.092 750.886L383.251 767.791L370.387 757.46L404.092 730.119L437.798 757.46L425.062 767.791L404.092 750.886Z" fill="#9C9898"/>
<path d="M314.811 814.124C310.823 810.889 310.823 805.776 314.811 802.541L346.844 776.452L362.282 764.034L395.988 791.375L383.252 801.706L362.282 784.801L333.337 808.281L375.147 842.196L369.486 846.892C365.498 850.023 359.066 850.023 355.207 846.892L314.811 814.124Z" fill="white"/>
<path fill-rule="evenodd" clip-rule="evenodd" d="M706.605 97.6625C706.605 101.732 702.489 105.176 697.343 105.176C692.325 105.176 688.08 101.732 688.08 97.6625C688.08 93.4883 692.325 90.1489 697.343 90.1489C702.489 90.1489 706.605 93.4883 706.605 97.6625ZM705.447 97.6625C705.447 94.0101 701.845 91.0882 697.343 91.0882C692.969 91.0882 689.367 94.0101 689.367 97.6625C689.367 101.211 692.969 104.133 697.343 104.133C701.845 104.133 705.447 101.211 705.447 97.6625Z" fill="white"/>
<path d="M697.6 100.061C695.413 100.061 694.512 98.809 694.512 97.5567C694.383 96.3045 695.413 94.9479 697.6 94.9479C698.371 94.9479 699.272 95.1566 699.787 95.6784L701.073 94.7391C700.044 94.0086 698.886 93.5912 697.6 93.5912C694.255 93.5912 692.711 95.574 692.711 97.5567C692.711 99.5395 694.255 101.418 697.6 101.418C699.015 101.418 700.172 101 701.073 100.27L699.915 99.3308C699.401 99.8526 698.371 100.061 697.6 100.061Z" fill="white"/>
<path d="M622.471 81.1716L635.335 70.7361L656.176 87.746L661.708 83.2587L685.122 64.1617L679.719 59.7787L661.708 45.169L658.749 42.7688L643.44 30.2461L656.176 19.9149L671.614 32.3333L674.573 34.7334L692.455 49.3432L695.414 51.7433L703.647 58.4221C707.635 61.6571 707.635 66.7705 703.647 70.0056L671.614 95.9901L663.38 102.773C659.392 105.904 652.96 105.904 649.101 102.773L622.471 81.1716Z" fill="white"/>
<path d="M580.66 81.1715L598.928 66.2487L616.939 51.7433L619.897 49.3431L635.335 36.8205L648.071 47.256L632.762 59.7787L629.803 62.0745L608.834 79.0844L593.525 91.5028L580.66 81.1715Z" fill="white"/>
<path d="M604.846 27.6372L611.15 22.5238C612.951 21.0628 615.91 21.0628 617.711 22.5238L623.886 27.6372C625.687 29.0982 625.687 31.4984 623.886 32.9593L617.582 38.0728C615.781 39.5338 612.951 39.5338 611.15 38.0728L604.846 32.9593C603.045 31.4984 603.045 29.0982 604.846 27.6372Z" fill="#9C9898"/>
<path d="M614.366 6.76664L593.525 23.6722L580.66 13.341L614.366 -14.0001L648.071 13.341L635.335 23.6722L614.366 6.76664Z" fill="#9C9898"/>
<path d="M525.085 70.0056C521.097 66.7705 521.097 61.6571 525.085 58.4221L557.118 32.3333L572.556 19.9149L606.261 47.2561L593.525 57.5873L572.556 40.6817L543.61 64.1617L585.42 98.0772L579.76 102.773C575.772 105.904 569.339 105.904 565.48 102.773L525.085 70.0056Z" fill="white"/>
<path fill-rule="evenodd" clip-rule="evenodd" d="M706.605 246.428C706.605 250.498 702.489 253.941 697.343 253.941C692.325 253.941 688.08 250.498 688.08 246.428C688.08 242.253 692.325 238.914 697.343 238.914C702.489 238.914 706.605 242.253 706.605 246.428ZM705.447 246.428C705.447 242.775 701.845 239.853 697.343 239.853C692.969 239.853 689.367 242.775 689.367 246.428C689.367 249.976 692.969 252.898 697.343 252.898C701.845 252.898 705.447 249.976 705.447 246.428Z" fill="white"/>
<path d="M697.6 248.826C695.413 248.826 694.512 247.574 694.512 246.322C694.383 245.07 695.413 243.713 697.6 243.713C698.371 243.713 699.272 243.922 699.787 244.444L701.073 243.504C700.044 242.774 698.886 242.356 697.6 242.356C694.255 242.356 692.711 244.339 692.711 246.322C692.711 248.305 694.255 250.183 697.6 250.183C699.015 250.183 700.172 249.766 701.073 249.035L699.915 248.096C699.401 248.618 698.371 248.826 697.6 248.826Z" fill="white"/>
<path d="M622.471 229.937L635.335 219.501L656.176 236.511L661.708 232.024L685.122 212.927L679.719 208.544L661.708 193.934L658.749 191.534L643.44 179.011L656.176 168.68L671.614 181.098L674.573 183.499L692.455 198.108L695.414 200.509L703.647 207.187C707.635 210.422 707.635 215.536 703.647 218.771L671.614 244.755L663.38 251.538C659.392 254.669 652.96 254.669 649.101 251.538L622.471 229.937Z" fill="white"/>
<path d="M580.66 229.937L598.928 215.014L616.939 200.509L619.897 198.108L635.335 185.586L648.071 196.021L632.762 208.544L629.803 210.84L608.834 227.85L593.525 240.268L580.66 229.937Z" fill="white"/>
<path d="M604.846 176.402L611.15 171.289C612.951 169.828 615.91 169.828 617.711 171.289L623.886 176.402C625.687 177.863 625.687 180.263 623.886 181.724L617.582 186.838C615.781 188.299 612.951 188.299 611.15 186.838L604.846 181.724C603.045 180.263 603.045 177.863 604.846 176.402Z" fill="#9C9898"/>
<path d="M614.366 155.532L593.525 172.437L580.66 162.106L614.366 134.765L648.071 162.106L635.335 172.437L614.366 155.532Z" fill="#9C9898"/>
<path d="M525.085 218.771C521.097 215.536 521.097 210.422 525.085 207.187L557.118 181.098L572.556 168.68L606.261 196.021L593.525 206.352L572.556 189.447L543.61 212.927L585.42 246.842L579.76 251.538C575.772 254.669 569.339 254.669 565.48 251.538L525.085 218.771Z" fill="white"/>
<path fill-rule="evenodd" clip-rule="evenodd" d="M706.605 395.193C706.605 399.262 702.489 402.706 697.343 402.706C692.325 402.706 688.08 399.262 688.08 395.193C688.08 391.018 692.325 387.679 697.343 387.679C702.489 387.679 706.605 391.018 706.605 395.193ZM705.447 395.193C705.447 391.54 701.845 388.618 697.343 388.618C692.969 388.618 689.367 391.54 689.367 395.193C689.367 398.741 692.969 401.663 697.343 401.663C701.845 401.663 705.447 398.741 705.447 395.193Z" fill="white"/>
<path d="M697.6 397.591C695.413 397.591 694.512 396.339 694.512 395.087C694.383 393.834 695.413 392.478 697.6 392.478C698.371 392.478 699.272 392.686 699.787 393.208L701.073 392.269C700.044 391.538 698.886 391.121 697.6 391.121C694.255 391.121 692.711 393.104 692.711 395.087C692.711 397.069 694.255 398.948 697.6 398.948C699.015 398.948 700.172 398.53 701.073 397.8L699.915 396.861C699.401 397.382 698.371 397.591 697.6 397.591Z" fill="white"/>
<path d="M622.471 378.703L635.335 368.268L656.176 385.278L661.708 380.79L685.122 361.693L679.719 357.31L661.708 342.701L658.749 340.301L643.44 327.778L656.176 317.447L671.614 329.865L674.573 332.265L692.455 346.875L695.414 349.275L703.647 355.954C707.635 359.189 707.635 364.302 703.647 367.537L671.614 393.522L663.38 400.305C659.392 403.436 652.96 403.436 649.101 400.305L622.471 378.703Z" fill="white"/>
<path d="M580.66 378.702L598.928 363.779L616.939 349.273L619.897 346.873L635.335 334.35L648.071 344.786L632.762 357.309L629.803 359.605L608.834 376.614L593.525 389.033L580.66 378.702Z" fill="white"/>
<path d="M604.846 325.167L611.15 320.054C612.951 318.593 615.91 318.593 617.711 320.054L623.886 325.167C625.687 326.628 625.687 329.029 623.886 330.49L617.582 335.603C615.781 337.064 612.951 337.064 611.15 335.603L604.846 330.49C603.045 329.029 603.045 326.628 604.846 325.167Z" fill="#9C9898"/>
<path d="M614.366 304.297L593.525 321.203L580.66 310.871L614.366 283.53L648.071 310.871L635.335 321.203L614.366 304.297Z" fill="#9C9898"/>
<path d="M525.085 367.537C521.097 364.302 521.097 359.189 525.085 355.954L557.118 329.865L572.556 317.447L606.261 344.788L593.525 355.119L572.556 338.213L543.61 361.693L585.42 395.609L579.76 400.305C575.772 403.436 569.339 403.436 565.48 400.305L525.085 367.537Z" fill="white"/>
<path fill-rule="evenodd" clip-rule="evenodd" d="M706.605 543.957C706.605 548.027 702.489 551.471 697.343 551.471C692.325 551.471 688.08 548.027 688.08 543.957C688.08 539.783 692.325 536.444 697.343 536.444C702.489 536.444 706.605 539.783 706.605 543.957ZM705.447 543.957C705.447 540.305 701.845 537.383 697.343 537.383C692.969 537.383 689.367 540.305 689.367 543.957C689.367 547.505 692.969 550.427 697.343 550.427C701.845 550.427 705.447 547.505 705.447 543.957Z" fill="white"/>
<path d="M697.6 546.356C695.413 546.356 694.512 545.104 694.512 543.851C694.383 542.599 695.413 541.242 697.6 541.242C698.371 541.242 699.272 541.451 699.787 541.973L701.073 541.034C700.044 540.303 698.886 539.886 697.6 539.886C694.255 539.886 692.711 541.869 692.711 543.851C692.711 545.834 694.255 547.713 697.6 547.713C699.015 547.713 700.172 547.295 701.073 546.565L699.915 545.625C699.401 546.147 698.371 546.356 697.6 546.356Z" fill="white"/>
<path d="M622.471 527.466L635.335 517.031L656.176 534.041L661.708 529.553L685.122 510.456L679.719 506.073L661.708 491.464L658.749 489.063L643.44 476.541L656.176 466.21L671.614 478.628L674.573 481.028L692.455 495.638L695.414 498.038L703.647 504.717C707.635 507.952 707.635 513.065 703.647 516.3L671.614 542.285L663.38 549.068C659.392 552.198 652.96 552.198 649.101 549.068L622.471 527.466Z" fill="white"/>
<path d="M580.66 527.467L598.928 512.544L616.939 498.038L619.897 495.638L635.335 483.115L648.071 493.551L632.762 506.074L629.803 508.37L608.834 525.379L593.525 537.798L580.66 527.467Z" fill="white"/>
<path d="M604.846 473.932L611.15 468.819C612.951 467.358 615.91 467.358 617.711 468.819L623.886 473.932C625.687 475.393 625.687 477.793 623.886 479.254L617.582 484.368C615.781 485.829 612.951 485.829 611.15 484.368L604.846 479.254C603.045 477.793 603.045 475.393 604.846 473.932Z" fill="#9C9898"/>
<path d="M614.366 453.062L593.525 469.967L580.66 459.636L614.366 432.295L648.071 459.636L635.335 469.967L614.366 453.062Z" fill="#9C9898"/>
<path d="M525.085 516.3C521.097 513.065 521.097 507.952 525.085 504.717L557.118 478.628L572.556 466.21L606.261 493.551L593.525 503.882L572.556 486.976L543.61 510.456L585.42 544.372L579.76 549.068C575.772 552.198 569.339 552.198 565.48 549.068L525.085 516.3Z" fill="white"/>
<path fill-rule="evenodd" clip-rule="evenodd" d="M706.605 692.722C706.605 696.792 702.489 700.236 697.343 700.236C692.325 700.236 688.08 696.792 688.08 692.722C688.08 688.548 692.325 685.208 697.343 685.208C702.489 685.208 706.605 688.548 706.605 692.722ZM705.447 692.722C705.447 689.07 701.845 686.148 697.343 686.148C692.969 686.148 689.367 689.07 689.367 692.722C689.367 696.27 692.969 699.192 697.343 699.192C701.845 699.192 705.447 696.27 705.447 692.722Z" fill="white"/>
<path d="M697.6 695.121C695.413 695.121 694.512 693.868 694.512 692.616C694.383 691.364 695.413 690.007 697.6 690.007C698.371 690.007 699.272 690.216 699.787 690.738L701.073 689.799C700.044 689.068 698.886 688.651 697.6 688.651C694.255 688.651 692.711 690.633 692.711 692.616C692.711 694.599 694.255 696.477 697.6 696.477C699.015 696.477 700.172 696.06 701.073 695.329L699.915 694.39C699.401 694.912 698.371 695.121 697.6 695.121Z" fill="white"/>
<path d="M622.471 676.231L635.335 665.796L656.176 682.805L661.708 678.318L685.122 659.221L679.719 654.838L661.708 640.228L658.749 637.828L643.44 625.306L656.176 614.974L671.614 627.393L674.573 629.793L692.455 644.403L695.414 646.803L703.647 653.482C707.635 656.717 707.635 661.83 703.647 665.065L671.614 691.05L663.38 697.833C659.392 700.963 652.96 700.963 649.101 697.833L622.471 676.231Z" fill="white"/>
<path d="M580.66 676.231L598.928 661.309L616.939 646.803L619.897 644.403L635.335 631.88L648.071 642.316L632.762 654.839L629.803 657.134L608.834 674.144L593.525 686.563L580.66 676.231Z" fill="white"/>
<path d="M604.846 622.697L611.15 617.584C612.951 616.123 615.91 616.123 617.711 617.584L623.886 622.697C625.687 624.158 625.687 626.558 623.886 628.019L617.582 633.133C615.781 634.594 612.951 634.594 611.15 633.133L604.846 628.019C603.045 626.558 603.045 624.158 604.846 622.697Z" fill="#9C9898"/>
<path d="M614.366 601.827L593.525 618.732L580.66 608.401L614.366 581.06L648.071 608.401L635.335 618.732L614.366 601.827Z" fill="#9C9898"/>
<path d="M525.085 665.065C521.097 661.83 521.097 656.717 525.085 653.482L557.118 627.393L572.556 614.974L606.261 642.316L593.525 652.647L572.556 635.741L543.61 659.221L585.42 693.137L579.76 697.833C575.772 700.963 569.339 700.963 565.48 697.833L525.085 665.065Z" fill="white"/>
<path fill-rule="evenodd" clip-rule="evenodd" d="M706.605 841.486C706.605 845.556 702.489 849 697.343 849C692.325 849 688.08 845.556 688.08 841.486C688.08 837.312 692.325 833.973 697.343 833.973C702.489 833.973 706.605 837.312 706.605 841.486ZM705.447 841.486C705.447 837.834 701.845 834.912 697.343 834.912C692.969 834.912 689.367 837.834 689.367 841.486C689.367 845.034 692.969 847.956 697.343 847.956C701.845 847.956 705.447 845.034 705.447 841.486Z" fill="white"/>
<path d="M622.471 824.997L635.335 814.562L656.176 831.572L661.708 827.084L685.122 807.987L679.719 803.604L661.708 788.995L658.749 786.594L643.44 774.072L656.176 763.741L671.614 776.159L674.573 778.559L692.455 793.169L695.414 795.569L703.647 802.248C707.635 805.483 707.635 810.596 703.647 813.831L671.614 839.816L663.38 846.599C659.392 849.73 652.96 849.73 649.101 846.599L622.471 824.997Z" fill="white"/>
<path d="M580.66 824.995L598.928 810.073L616.939 795.567L619.897 793.167L635.335 780.644L648.071 791.08L632.762 803.603L629.803 805.898L608.834 822.908L593.525 835.327L580.66 824.995Z" fill="white"/>
<path d="M604.846 771.462L611.15 766.348C612.951 764.887 615.91 764.887 617.711 766.348L623.886 771.462C625.687 772.923 625.687 775.323 623.886 776.784L617.582 781.897C615.781 783.358 612.951 783.358 611.15 781.897L604.846 776.784C603.045 775.323 603.045 772.923 604.846 771.462Z" fill="#9C9898"/>
<path d="M614.366 750.591L593.525 767.497L580.66 757.166L614.366 729.825L648.071 757.166L635.335 767.497L614.366 750.591Z" fill="#9C9898"/>
<path d="M525.085 813.831C521.097 810.596 521.097 805.483 525.085 802.248L557.118 776.159L572.556 763.741L606.261 791.082L593.525 801.413L572.556 784.507L543.61 807.987L585.42 841.903L579.76 846.599C575.772 849.73 569.339 849.73 565.48 846.599L525.085 813.831Z" fill="white"/>
<path fill-rule="evenodd" clip-rule="evenodd" d="M916.879 97.9574C916.879 102.027 912.762 105.471 907.616 105.471C902.599 105.471 898.354 102.027 898.354 97.9574C898.354 93.7832 902.599 90.4438 907.616 90.4438C912.762 90.4438 916.879 93.7832 916.879 97.9574ZM915.721 97.9574C915.721 94.305 912.119 91.383 907.616 91.383C903.242 91.383 899.64 94.305 899.64 97.9574C899.64 101.505 903.242 104.427 907.616 104.427C912.119 104.427 915.721 101.505 915.721 97.9574Z" fill="white"/>
<path d="M907.873 100.356C905.686 100.356 904.785 99.1037 904.785 97.8514C904.657 96.5992 905.686 95.2425 907.873 95.2425C908.645 95.2425 909.545 95.4513 910.06 95.9731L911.346 95.0338C910.317 94.3033 909.159 93.8859 907.873 93.8859C904.528 93.8859 902.984 95.8687 902.984 97.8514C902.984 99.8342 904.528 101.713 907.873 101.713C909.288 101.713 910.446 101.295 911.346 100.565L910.189 99.6255C909.674 100.147 908.645 100.356 907.873 100.356Z" fill="white"/>
<path d="M832.744 81.4663L845.609 71.0308L866.45 88.0407L871.981 83.5534L895.395 64.4564L889.992 60.0734L871.981 45.4637L869.023 43.0635L853.714 30.5408L866.45 20.2096L881.887 32.628L884.846 35.0281L902.728 49.6379L905.687 52.038L913.92 58.7168C917.908 61.9518 917.908 67.0652 913.92 70.3002L881.887 96.2848L873.654 103.068C869.666 106.199 863.233 106.199 859.374 103.068L832.744 81.4663Z" fill="white"/>
<path d="M790.934 81.4667L809.201 66.5439L827.212 52.0384L830.171 49.6383L845.609 37.1156L858.345 47.5511L843.036 60.0738L840.077 62.3696L819.107 79.3796L803.798 91.7979L790.934 81.4667Z" fill="white"/>
<path d="M815.119 27.9324L821.423 22.8189C823.224 21.3579 826.183 21.3579 827.984 22.8189L834.159 27.9324C835.96 29.3933 835.96 31.7935 834.159 33.2545L827.855 38.3679C826.054 39.8289 823.224 39.8289 821.423 38.3679L815.119 33.2545C813.318 31.7935 813.318 29.3933 815.119 27.9324Z" fill="#9C9898"/>
<path d="M824.639 7.06178L803.798 23.9674L790.934 13.6362L824.639 -13.705L858.345 13.6362L845.609 23.9674L824.639 7.06178Z" fill="#9C9898"/>
<path d="M735.358 70.3002C731.37 67.0652 731.37 61.9518 735.358 58.7168L767.391 32.628L782.829 20.2096L816.534 47.5508L803.798 57.882L782.829 40.9764L753.883 64.4564L795.694 98.3719L790.033 103.068C786.045 106.199 779.613 106.199 775.753 103.068L735.358 70.3002Z" fill="white"/>
<path fill-rule="evenodd" clip-rule="evenodd" d="M916.879 246.722C916.879 250.792 912.762 254.236 907.616 254.236C902.599 254.236 898.354 250.792 898.354 246.722C898.354 242.548 902.599 239.209 907.616 239.209C912.762 239.209 916.879 242.548 916.879 246.722ZM915.721 246.722C915.721 243.07 912.119 240.148 907.616 240.148C903.242 240.148 899.64 243.07 899.64 246.722C899.64 250.27 903.242 253.192 907.616 253.192C912.119 253.192 915.721 250.27 915.721 246.722Z" fill="white"/>
<path d="M907.873 249.121C905.686 249.121 904.785 247.869 904.785 246.616C904.657 245.364 905.686 244.007 907.873 244.007C908.645 244.007 909.545 244.216 910.06 244.738L911.346 243.799C910.317 243.068 909.159 242.651 907.873 242.651C904.528 242.651 902.984 244.634 902.984 246.616C902.984 248.599 904.528 250.477 907.873 250.477C909.288 250.477 910.446 250.06 911.346 249.329L910.189 248.39C909.674 248.912 908.645 249.121 907.873 249.121Z" fill="white"/>
<path d="M832.744 230.231L845.609 219.796L866.45 236.806L871.981 232.318L895.395 213.221L889.992 208.838L871.981 194.229L869.023 191.828L853.714 179.306L866.45 168.974L881.887 181.393L884.846 183.793L902.728 198.403L905.687 200.803L913.92 207.482C917.908 210.717 917.908 215.83 913.92 219.065L881.887 245.05L873.654 251.833C869.666 254.963 863.233 254.963 859.374 251.833L832.744 230.231Z" fill="white"/>
<path d="M790.934 230.231L809.201 215.309L827.212 200.803L830.171 198.403L845.609 185.88L858.345 196.316L843.036 208.839L840.077 211.134L819.107 228.144L803.798 240.563L790.934 230.231Z" fill="white"/>
<path d="M815.119 176.697L821.423 171.584C823.224 170.123 826.183 170.123 827.984 171.584L834.159 176.697C835.96 178.158 835.96 180.558 834.159 182.019L827.855 187.133C826.054 188.594 823.224 188.594 821.423 187.133L815.119 182.019C813.318 180.558 813.318 178.158 815.119 176.697Z" fill="#9C9898"/>
<path d="M824.639 155.827L803.798 172.732L790.934 162.401L824.639 135.06L858.345 162.401L845.609 172.732L824.639 155.827Z" fill="#9C9898"/>
<path d="M735.358 219.065C731.37 215.83 731.37 210.717 735.358 207.482L767.391 181.393L782.829 168.974L816.534 196.316L803.798 206.647L782.829 189.741L753.883 213.221L795.694 247.137L790.033 251.833C786.045 254.963 779.613 254.963 775.753 251.833L735.358 219.065Z" fill="white"/>
<path fill-rule="evenodd" clip-rule="evenodd" d="M916.879 395.486C916.879 399.556 912.762 403 907.616 403C902.599 403 898.354 399.556 898.354 395.486C898.354 391.312 902.599 387.973 907.616 387.973C912.762 387.973 916.879 391.312 916.879 395.486ZM915.721 395.486C915.721 391.834 912.119 388.912 907.616 388.912C903.242 388.912 899.64 391.834 899.64 395.486C899.64 399.034 903.242 401.956 907.616 401.956C912.119 401.956 915.721 399.034 915.721 395.486Z" fill="white"/>
<path d="M907.873 397.885C905.686 397.885 904.785 396.633 904.785 395.381C904.657 394.128 905.686 392.772 907.873 392.772C908.645 392.772 909.545 392.98 910.06 393.502L911.346 392.563C910.317 391.832 909.159 391.415 907.873 391.415C904.528 391.415 902.984 393.398 902.984 395.381C902.984 397.363 904.528 399.242 907.873 399.242C909.288 399.242 910.446 398.824 911.346 398.094L910.189 397.155C909.674 397.676 908.645 397.885 907.873 397.885Z" fill="white"/>
<path d="M832.744 378.997L845.609 368.562L866.45 385.572L871.981 381.084L895.395 361.987L889.992 357.604L871.981 342.995L869.023 340.595L853.714 328.072L866.45 317.741L881.887 330.159L884.846 332.559L902.728 347.169L905.687 349.569L913.92 356.248C917.908 359.483 917.908 364.596 913.92 367.831L881.887 393.816L873.654 400.599C869.666 403.73 863.233 403.73 859.374 400.599L832.744 378.997Z" fill="white"/>
<path d="M790.934 378.996L809.201 364.073L827.212 349.567L830.171 347.167L845.609 334.644L858.345 345.08L843.036 357.603L840.077 359.899L819.107 376.908L803.798 389.327L790.934 378.996Z" fill="white"/>
<path d="M815.119 325.462L821.423 320.348C823.224 318.888 826.183 318.888 827.984 320.348L834.159 325.462C835.96 326.923 835.96 329.323 834.159 330.784L827.855 335.897C826.054 337.358 823.224 337.358 821.423 335.897L815.119 330.784C813.318 329.323 813.318 326.923 815.119 325.462Z" fill="#9C9898"/>
<path d="M824.639 304.591L803.798 321.497L790.934 311.166L824.639 283.825L858.345 311.166L845.609 321.497L824.639 304.591Z" fill="#9C9898"/>
<path d="M735.358 367.831C731.37 364.596 731.37 359.483 735.358 356.248L767.391 330.159L782.829 317.741L816.534 345.082L803.798 355.413L782.829 338.507L753.883 361.987L795.694 395.903L790.033 400.599C786.045 403.73 779.613 403.73 775.753 400.599L735.358 367.831Z" fill="white"/>
<path fill-rule="evenodd" clip-rule="evenodd" d="M916.879 544.251C916.879 548.321 912.762 551.765 907.616 551.765C902.599 551.765 898.354 548.321 898.354 544.251C898.354 540.077 902.599 536.738 907.616 536.738C912.762 536.738 916.879 540.077 916.879 544.251ZM915.721 544.251C915.721 540.599 912.119 537.677 907.616 537.677C903.242 537.677 899.64 540.599 899.64 544.251C899.64 547.799 903.242 550.721 907.616 550.721C912.119 550.721 915.721 547.799 915.721 544.251Z" fill="white"/>
<path d="M907.873 546.65C905.686 546.65 904.785 545.398 904.785 544.146C904.657 542.893 905.686 541.537 907.873 541.537C908.645 541.537 909.545 541.745 910.06 542.267L911.346 541.328C910.317 540.597 909.159 540.18 907.873 540.18C904.528 540.18 902.984 542.163 902.984 544.146C902.984 546.128 904.528 548.007 907.873 548.007C909.288 548.007 910.446 547.589 911.346 546.859L910.189 545.92C909.674 546.441 908.645 546.65 907.873 546.65Z" fill="white"/>
<path d="M832.744 527.76L845.609 517.325L866.45 534.335L871.981 529.848L895.395 510.75L889.992 506.368L871.981 491.758L869.023 489.358L853.714 476.835L866.45 466.504L881.887 478.922L884.846 481.322L902.728 495.932L905.687 498.332L913.92 505.011C917.908 508.246 917.908 513.359 913.92 516.594L881.887 542.579L873.654 549.362C869.666 552.493 863.233 552.493 859.374 549.362L832.744 527.76Z" fill="white"/>
<path d="M790.934 527.76L809.201 512.837L827.212 498.332L830.171 495.932L845.609 483.409L858.345 493.845L843.036 506.367L840.077 508.663L819.107 525.673L803.798 538.092L790.934 527.76Z" fill="white"/>
<path d="M815.119 474.226L821.423 469.113C823.224 467.652 826.183 467.652 827.984 469.113L834.159 474.226C835.96 475.687 835.96 478.087 834.159 479.548L827.855 484.662C826.054 486.123 823.224 486.123 821.423 484.662L815.119 479.548C813.318 478.087 813.318 475.687 815.119 474.226Z" fill="#9C9898"/>
<path d="M824.639 453.355L803.798 470.261L790.934 459.93L824.639 432.589L858.345 459.93L845.609 470.261L824.639 453.355Z" fill="#9C9898"/>
<path d="M735.358 516.594C731.37 513.359 731.37 508.246 735.358 505.011L767.391 478.922L782.829 466.504L816.534 493.845L803.798 504.176L782.829 487.27L753.883 510.75L795.694 544.666L790.033 549.362C786.045 552.493 779.613 552.493 775.753 549.362L735.358 516.594Z" fill="white"/>
<path fill-rule="evenodd" clip-rule="evenodd" d="M916.879 693.016C916.879 697.086 912.762 700.53 907.616 700.53C902.599 700.53 898.354 697.086 898.354 693.016C898.354 688.842 902.599 685.503 907.616 685.503C912.762 685.503 916.879 688.842 916.879 693.016ZM915.721 693.016C915.721 689.364 912.119 686.442 907.616 686.442C903.242 686.442 899.64 689.364 899.64 693.016C899.64 696.564 903.242 699.486 907.616 699.486C912.119 699.486 915.721 696.564 915.721 693.016Z" fill="white"/>
<path d="M907.873 695.415C905.686 695.415 904.785 694.163 904.785 692.911C904.657 691.658 905.686 690.302 907.873 690.302C908.645 690.302 909.545 690.51 910.06 691.032L911.346 690.093C910.317 689.362 909.159 688.945 907.873 688.945C904.528 688.945 902.984 690.928 902.984 692.911C902.984 694.893 904.528 696.772 907.873 696.772C909.288 696.772 910.446 696.354 911.346 695.624L910.189 694.685C909.674 695.206 908.645 695.415 907.873 695.415Z" fill="white"/>
<path d="M832.744 676.525L845.609 666.09L866.45 683.1L871.981 678.613L895.395 659.515L889.992 655.133L871.981 640.523L869.023 638.123L853.714 625.6L866.45 615.269L881.887 627.687L884.846 630.087L902.728 644.697L905.687 647.097L913.92 653.776C917.908 657.011 917.908 662.124 913.92 665.359L881.887 691.344L873.654 698.127C869.666 701.258 863.233 701.258 859.374 698.127L832.744 676.525Z" fill="white"/>
<path d="M790.934 676.525L809.201 661.603L827.212 647.097L830.171 644.697L845.609 632.174L858.345 642.61L843.036 655.132L840.077 657.428L819.107 674.438L803.798 686.857L790.934 676.525Z" fill="white"/>
<path d="M815.119 622.991L821.423 617.878C823.224 616.417 826.183 616.417 827.984 617.878L834.159 622.991C835.96 624.452 835.96 626.852 834.159 628.313L827.855 633.427C826.054 634.888 823.224 634.888 821.423 633.427L815.119 628.313C813.318 626.852 813.318 624.452 815.119 622.991Z" fill="#9C9898"/>
<path d="M824.639 602.12L803.798 619.026L790.934 608.695L824.639 581.354L858.345 608.695L845.609 619.026L824.639 602.12Z" fill="#9C9898"/>
<path d="M735.358 665.359C731.37 662.124 731.37 657.011 735.358 653.776L767.391 627.687L782.829 615.269L816.534 642.61L803.798 652.941L782.829 636.036L753.883 659.515L795.694 693.431L790.033 698.127C786.045 701.258 779.613 701.258 775.753 698.127L735.358 665.359Z" fill="white"/>
<path fill-rule="evenodd" clip-rule="evenodd" d="M916.879 841.781C916.879 845.851 912.762 849.295 907.616 849.295C902.599 849.295 898.354 845.851 898.354 841.781C898.354 837.607 902.599 834.268 907.616 834.268C912.762 834.268 916.879 837.607 916.879 841.781ZM915.721 841.781C915.721 838.129 912.119 835.207 907.616 835.207C903.242 835.207 899.64 838.129 899.64 841.781C899.64 845.33 903.242 848.252 907.616 848.252C912.119 848.252 915.721 845.33 915.721 841.781Z" fill="white"/>
<path d="M832.744 825.291L845.609 814.855L866.45 831.865L871.981 827.378L895.395 808.281L889.992 803.898L871.981 789.288L869.023 786.888L853.714 774.365L866.45 764.034L881.887 776.452L884.846 778.852L902.728 793.462L905.687 795.862L913.92 802.541C917.908 805.776 917.908 810.889 913.92 814.124L881.887 840.109L873.654 846.892C869.666 850.023 863.233 850.023 859.374 846.892L832.744 825.291Z" fill="white"/>
<path d="M790.934 825.29L809.201 810.368L827.212 795.862L830.171 793.462L845.609 780.939L858.345 791.375L843.036 803.898L840.077 806.193L819.107 823.203L803.798 835.622L790.934 825.29Z" fill="white"/>
<path d="M815.119 771.756L821.423 766.643C823.224 765.182 826.183 765.182 827.984 766.643L834.159 771.756C835.96 773.217 835.96 775.617 834.159 777.078L827.855 782.192C826.054 783.653 823.224 783.653 821.423 782.192L815.119 777.078C813.318 775.617 813.318 773.217 815.119 771.756Z" fill="#9C9898"/>
<path d="M824.639 750.886L803.798 767.791L790.934 757.46L824.639 730.119L858.345 757.46L845.609 767.791L824.639 750.886Z" fill="#9C9898"/>
<path d="M735.358 814.124C731.37 810.889 731.37 805.776 735.358 802.541L767.391 776.452L782.829 764.034L816.534 791.375L803.798 801.706L782.829 784.801L753.883 808.281L795.694 842.196L790.033 846.892C786.045 850.023 779.613 850.023 775.753 846.892L735.358 814.124Z" fill="white"/>
<path fill-rule="evenodd" clip-rule="evenodd" d="M1127.15 97.6625C1127.15 101.732 1123.04 105.176 1117.89 105.176C1112.87 105.176 1108.63 101.732 1108.63 97.6625C1108.63 93.4883 1112.87 90.1489 1117.89 90.1489C1123.04 90.1489 1127.15 93.4883 1127.15 97.6625ZM1125.99 97.6625C1125.99 94.0101 1122.39 91.0882 1117.89 91.0882C1113.52 91.0882 1109.91 94.0101 1109.91 97.6625C1109.91 101.211 1113.52 104.133 1117.89 104.133C1122.39 104.133 1125.99 101.211 1125.99 97.6625Z" fill="white"/>
<path d="M1118.15 100.061C1115.96 100.061 1115.06 98.809 1115.06 97.5567C1114.93 96.3045 1115.96 94.9479 1118.15 94.9479C1118.92 94.9479 1119.82 95.1566 1120.33 95.6784L1121.62 94.7391C1120.59 94.0086 1119.43 93.5912 1118.15 93.5912C1114.8 93.5912 1113.26 95.574 1113.26 97.5567C1113.26 99.5395 1114.8 101.418 1118.15 101.418C1119.56 101.418 1120.72 101 1121.62 100.27L1120.46 99.3308C1119.95 99.8526 1118.92 100.061 1118.15 100.061Z" fill="white"/>
<path d="M1043.02 81.1716L1055.88 70.7361L1076.72 87.746L1082.25 83.2587L1105.67 64.1617L1100.27 59.7787L1082.25 45.169L1079.3 42.7688L1063.99 30.2461L1076.72 19.9149L1092.16 32.3333L1095.12 34.7334L1113 49.3432L1115.96 51.7433L1124.19 58.4221C1128.18 61.6571 1128.18 66.7705 1124.19 70.0056L1092.16 95.9901L1083.93 102.773C1079.94 105.904 1073.51 105.904 1069.65 102.773L1043.02 81.1716Z" fill="white"/>
<path d="M1001.21 81.1715L1019.47 66.2487L1037.49 51.7433L1040.44 49.3431L1055.88 36.8205L1068.62 47.256L1053.31 59.7787L1050.35 62.0745L1029.38 79.0844L1014.07 91.5028L1001.21 81.1715Z" fill="white"/>
<path d="M1025.39 27.6372L1031.7 22.5238C1033.5 21.0628 1036.46 21.0628 1038.26 22.5238L1044.43 27.6372C1046.23 29.0982 1046.23 31.4984 1044.43 32.9593L1038.13 38.0728C1036.33 39.5338 1033.5 39.5338 1031.7 38.0728L1025.39 32.9593C1023.59 31.4984 1023.59 29.0982 1025.39 27.6372Z" fill="#9C9898"/>
<path d="M1034.91 6.76664L1014.07 23.6722L1001.21 13.341L1034.91 -14.0001L1068.62 13.341L1055.88 23.6722L1034.91 6.76664Z" fill="#9C9898"/>
<path d="M945.632 70.0056C941.644 66.7705 941.644 61.6571 945.632 58.4221L977.665 32.3333L993.102 19.9149L1026.81 47.2561L1014.07 57.5873L993.102 40.6817L964.157 64.1617L1005.97 98.0772L1000.31 102.773C996.319 105.904 989.886 105.904 986.027 102.773L945.632 70.0056Z" fill="white"/>
<path fill-rule="evenodd" clip-rule="evenodd" d="M1127.15 246.428C1127.15 250.498 1123.04 253.941 1117.89 253.941C1112.87 253.941 1108.63 250.498 1108.63 246.428C1108.63 242.253 1112.87 238.914 1117.89 238.914C1123.04 238.914 1127.15 242.253 1127.15 246.428ZM1125.99 246.428C1125.99 242.775 1122.39 239.853 1117.89 239.853C1113.52 239.853 1109.91 242.775 1109.91 246.428C1109.91 249.976 1113.52 252.898 1117.89 252.898C1122.39 252.898 1125.99 249.976 1125.99 246.428Z" fill="white"/>
<path d="M1118.15 248.826C1115.96 248.826 1115.06 247.574 1115.06 246.322C1114.93 245.07 1115.96 243.713 1118.15 243.713C1118.92 243.713 1119.82 243.922 1120.33 244.444L1121.62 243.504C1120.59 242.774 1119.43 242.356 1118.15 242.356C1114.8 242.356 1113.26 244.339 1113.26 246.322C1113.26 248.305 1114.8 250.183 1118.15 250.183C1119.56 250.183 1120.72 249.766 1121.62 249.035L1120.46 248.096C1119.95 248.618 1118.92 248.826 1118.15 248.826Z" fill="white"/>
<path d="M1043.02 229.937L1055.88 219.501L1076.72 236.511L1082.25 232.024L1105.67 212.927L1100.27 208.544L1082.25 193.934L1079.3 191.534L1063.99 179.011L1076.72 168.68L1092.16 181.098L1095.12 183.499L1113 198.108L1115.96 200.509L1124.19 207.187C1128.18 210.422 1128.18 215.536 1124.19 218.771L1092.16 244.755L1083.93 251.538C1079.94 254.669 1073.51 254.669 1069.65 251.538L1043.02 229.937Z" fill="white"/>
<path d="M1001.21 229.937L1019.47 215.014L1037.49 200.509L1040.44 198.108L1055.88 185.586L1068.62 196.021L1053.31 208.544L1050.35 210.84L1029.38 227.85L1014.07 240.268L1001.21 229.937Z" fill="white"/>
<path d="M1025.39 176.402L1031.7 171.289C1033.5 169.828 1036.46 169.828 1038.26 171.289L1044.43 176.402C1046.23 177.863 1046.23 180.263 1044.43 181.724L1038.13 186.838C1036.33 188.299 1033.5 188.299 1031.7 186.838L1025.39 181.724C1023.59 180.263 1023.59 177.863 1025.39 176.402Z" fill="#9C9898"/>
<path d="M1034.91 155.532L1014.07 172.437L1001.21 162.106L1034.91 134.765L1068.62 162.106L1055.88 172.437L1034.91 155.532Z" fill="#9C9898"/>
<path d="M945.632 218.771C941.644 215.536 941.644 210.422 945.632 207.187L977.665 181.098L993.102 168.68L1026.81 196.021L1014.07 206.352L993.102 189.447L964.157 212.927L1005.97 246.842L1000.31 251.538C996.319 254.669 989.886 254.669 986.027 251.538L945.632 218.771Z" fill="white"/>
<path fill-rule="evenodd" clip-rule="evenodd" d="M1127.15 395.193C1127.15 399.262 1123.04 402.706 1117.89 402.706C1112.87 402.706 1108.63 399.262 1108.63 395.193C1108.63 391.018 1112.87 387.679 1117.89 387.679C1123.04 387.679 1127.15 391.018 1127.15 395.193ZM1125.99 395.193C1125.99 391.54 1122.39 388.618 1117.89 388.618C1113.52 388.618 1109.91 391.54 1109.91 395.193C1109.91 398.741 1113.52 401.663 1117.89 401.663C1122.39 401.663 1125.99 398.741 1125.99 395.193Z" fill="white"/>
<path d="M1118.15 397.591C1115.96 397.591 1115.06 396.339 1115.06 395.087C1114.93 393.834 1115.96 392.478 1118.15 392.478C1118.92 392.478 1119.82 392.686 1120.33 393.208L1121.62 392.269C1120.59 391.538 1119.43 391.121 1118.15 391.121C1114.8 391.121 1113.26 393.104 1113.26 395.087C1113.26 397.069 1114.8 398.948 1118.15 398.948C1119.56 398.948 1120.72 398.53 1121.62 397.8L1120.46 396.861C1119.95 397.382 1118.92 397.591 1118.15 397.591Z" fill="white"/>
<path d="M1043.02 378.703L1055.88 368.268L1076.72 385.278L1082.25 380.79L1105.67 361.693L1100.27 357.31L1082.25 342.701L1079.3 340.301L1063.99 327.778L1076.72 317.447L1092.16 329.865L1095.12 332.265L1113 346.875L1115.96 349.275L1124.19 355.954C1128.18 359.189 1128.18 364.302 1124.19 367.537L1092.16 393.522L1083.93 400.305C1079.94 403.436 1073.51 403.436 1069.65 400.305L1043.02 378.703Z" fill="white"/>
<path d="M1001.21 378.702L1019.47 363.779L1037.49 349.273L1040.44 346.873L1055.88 334.35L1068.62 344.786L1053.31 357.309L1050.35 359.605L1029.38 376.614L1014.07 389.033L1001.21 378.702Z" fill="white"/>
<path d="M1025.39 325.167L1031.7 320.054C1033.5 318.593 1036.46 318.593 1038.26 320.054L1044.43 325.167C1046.23 326.628 1046.23 329.029 1044.43 330.49L1038.13 335.603C1036.33 337.064 1033.5 337.064 1031.7 335.603L1025.39 330.49C1023.59 329.029 1023.59 326.628 1025.39 325.167Z" fill="#9C9898"/>
<path d="M1034.91 304.297L1014.07 321.203L1001.21 310.871L1034.91 283.53L1068.62 310.871L1055.88 321.203L1034.91 304.297Z" fill="#9C9898"/>
<path d="M945.632 367.537C941.644 364.302 941.644 359.189 945.632 355.954L977.665 329.865L993.102 317.447L1026.81 344.788L1014.07 355.119L993.102 338.213L964.157 361.693L1005.97 395.609L1000.31 400.305C996.319 403.436 989.886 403.436 986.027 400.305L945.632 367.537Z" fill="white"/>
<path fill-rule="evenodd" clip-rule="evenodd" d="M1127.15 543.957C1127.15 548.027 1123.04 551.471 1117.89 551.471C1112.87 551.471 1108.63 548.027 1108.63 543.957C1108.63 539.783 1112.87 536.444 1117.89 536.444C1123.04 536.444 1127.15 539.783 1127.15 543.957ZM1125.99 543.957C1125.99 540.305 1122.39 537.383 1117.89 537.383C1113.52 537.383 1109.91 540.305 1109.91 543.957C1109.91 547.505 1113.52 550.427 1117.89 550.427C1122.39 550.427 1125.99 547.505 1125.99 543.957Z" fill="white"/>
<path d="M1118.15 546.356C1115.96 546.356 1115.06 545.104 1115.06 543.851C1114.93 542.599 1115.96 541.242 1118.15 541.242C1118.92 541.242 1119.82 541.451 1120.33 541.973L1121.62 541.034C1120.59 540.303 1119.43 539.886 1118.15 539.886C1114.8 539.886 1113.26 541.869 1113.26 543.851C1113.26 545.834 1114.8 547.713 1118.15 547.713C1119.56 547.713 1120.72 547.295 1121.62 546.565L1120.46 545.625C1119.95 546.147 1118.92 546.356 1118.15 546.356Z" fill="white"/>
<path d="M1043.02 527.466L1055.88 517.031L1076.72 534.041L1082.25 529.553L1105.67 510.456L1100.27 506.073L1082.25 491.464L1079.3 489.063L1063.99 476.541L1076.72 466.21L1092.16 478.628L1095.12 481.028L1113 495.638L1115.96 498.038L1124.19 504.717C1128.18 507.952 1128.18 513.065 1124.19 516.3L1092.16 542.285L1083.93 549.068C1079.94 552.198 1073.51 552.198 1069.65 549.068L1043.02 527.466Z" fill="white"/>
<path d="M1001.21 527.467L1019.47 512.544L1037.49 498.038L1040.44 495.638L1055.88 483.115L1068.62 493.551L1053.31 506.074L1050.35 508.37L1029.38 525.379L1014.07 537.798L1001.21 527.467Z" fill="white"/>
<path d="M1025.39 473.932L1031.7 468.819C1033.5 467.358 1036.46 467.358 1038.26 468.819L1044.43 473.932C1046.23 475.393 1046.23 477.793 1044.43 479.254L1038.13 484.368C1036.33 485.829 1033.5 485.829 1031.7 484.368L1025.39 479.254C1023.59 477.793 1023.59 475.393 1025.39 473.932Z" fill="#9C9898"/>
<path d="M1034.91 453.062L1014.07 469.967L1001.21 459.636L1034.91 432.295L1068.62 459.636L1055.88 469.967L1034.91 453.062Z" fill="#9C9898"/>
<path d="M945.632 516.3C941.644 513.065 941.644 507.952 945.632 504.717L977.665 478.628L993.102 466.21L1026.81 493.551L1014.07 503.882L993.102 486.976L964.157 510.456L1005.97 544.372L1000.31 549.068C996.319 552.198 989.886 552.198 986.027 549.068L945.632 516.3Z" fill="white"/>
<path fill-rule="evenodd" clip-rule="evenodd" d="M1127.15 692.722C1127.15 696.792 1123.04 700.236 1117.89 700.236C1112.87 700.236 1108.63 696.792 1108.63 692.722C1108.63 688.548 1112.87 685.208 1117.89 685.208C1123.04 685.208 1127.15 688.548 1127.15 692.722ZM1125.99 692.722C1125.99 689.07 1122.39 686.148 1117.89 686.148C1113.52 686.148 1109.91 689.07 1109.91 692.722C1109.91 696.27 1113.52 699.192 1117.89 699.192C1122.39 699.192 1125.99 696.27 1125.99 692.722Z" fill="white"/>
<path d="M1118.15 695.121C1115.96 695.121 1115.06 693.868 1115.06 692.616C1114.93 691.364 1115.96 690.007 1118.15 690.007C1118.92 690.007 1119.82 690.216 1120.33 690.738L1121.62 689.799C1120.59 689.068 1119.43 688.651 1118.15 688.651C1114.8 688.651 1113.26 690.633 1113.26 692.616C1113.26 694.599 1114.8 696.477 1118.15 696.477C1119.56 696.477 1120.72 696.06 1121.62 695.329L1120.46 694.39C1119.95 694.912 1118.92 695.121 1118.15 695.121Z" fill="white"/>
<path d="M1043.02 676.231L1055.88 665.796L1076.72 682.805L1082.25 678.318L1105.67 659.221L1100.27 654.838L1082.25 640.228L1079.3 637.828L1063.99 625.306L1076.72 614.974L1092.16 627.393L1095.12 629.793L1113 644.403L1115.96 646.803L1124.19 653.482C1128.18 656.717 1128.18 661.83 1124.19 665.065L1092.16 691.05L1083.93 697.833C1079.94 700.963 1073.51 700.963 1069.65 697.833L1043.02 676.231Z" fill="white"/>
<path d="M1001.21 676.231L1019.47 661.309L1037.49 646.803L1040.44 644.403L1055.88 631.88L1068.62 642.316L1053.31 654.839L1050.35 657.134L1029.38 674.144L1014.07 686.563L1001.21 676.231Z" fill="white"/>
<path d="M1025.39 622.697L1031.7 617.584C1033.5 616.123 1036.46 616.123 1038.26 617.584L1044.43 622.697C1046.23 624.158 1046.23 626.558 1044.43 628.019L1038.13 633.133C1036.33 634.594 1033.5 634.594 1031.7 633.133L1025.39 628.019C1023.59 626.558 1023.59 624.158 1025.39 622.697Z" fill="#9C9898"/>
<path d="M1034.91 601.827L1014.07 618.732L1001.21 608.401L1034.91 581.06L1068.62 608.401L1055.88 618.732L1034.91 601.827Z" fill="#9C9898"/>
<path d="M945.632 665.065C941.644 661.83 941.644 656.717 945.632 653.482L977.665 627.393L993.102 614.974L1026.81 642.316L1014.07 652.647L993.102 635.741L964.157 659.221L1005.97 693.137L1000.31 697.833C996.319 700.963 989.886 700.963 986.027 697.833L945.632 665.065Z" fill="white"/>
<path fill-rule="evenodd" clip-rule="evenodd" d="M1127.15 841.486C1127.15 845.556 1123.04 849 1117.89 849C1112.87 849 1108.63 845.556 1108.63 841.486C1108.63 837.312 1112.87 833.973 1117.89 833.973C1123.04 833.973 1127.15 837.312 1127.15 841.486ZM1125.99 841.486C1125.99 837.834 1122.39 834.912 1117.89 834.912C1113.52 834.912 1109.91 837.834 1109.91 841.486C1109.91 845.034 1113.52 847.956 1117.89 847.956C1122.39 847.956 1125.99 845.034 1125.99 841.486Z" fill="white"/>
<path d="M1043.02 824.997L1055.88 814.562L1076.72 831.572L1082.25 827.084L1105.67 807.987L1100.27 803.604L1082.25 788.995L1079.3 786.594L1063.99 774.072L1076.72 763.741L1092.16 776.159L1095.12 778.559L1113 793.169L1115.96 795.569L1124.19 802.248C1128.18 805.483 1128.18 810.596 1124.19 813.831L1092.16 839.816L1083.93 846.599C1079.94 849.73 1073.51 849.73 1069.65 846.599L1043.02 824.997Z" fill="white"/>
<path d="M1001.21 824.995L1019.47 810.073L1037.49 795.567L1040.44 793.167L1055.88 780.644L1068.62 791.08L1053.31 803.603L1050.35 805.898L1029.38 822.908L1014.07 835.327L1001.21 824.995Z" fill="white"/>
<path d="M1025.39 771.462L1031.7 766.348C1033.5 764.887 1036.46 764.887 1038.26 766.348L1044.43 771.462C1046.23 772.923 1046.23 775.323 1044.43 776.784L1038.13 781.897C1036.33 783.358 1033.5 783.358 1031.7 781.897L1025.39 776.784C1023.59 775.323 1023.59 772.923 1025.39 771.462Z" fill="#9C9898"/>
<path d="M1034.91 750.591L1014.07 767.497L1001.21 757.166L1034.91 729.825L1068.62 757.166L1055.88 767.497L1034.91 750.591Z" fill="#9C9898"/>
<path d="M945.632 813.831C941.644 810.596 941.644 805.483 945.632 802.248L977.665 776.159L993.102 763.741L1026.81 791.082L1014.07 801.413L993.102 784.507L964.157 807.987L1005.97 841.903L1000.31 846.599C996.319 849.73 989.886 849.73 986.027 846.599L945.632 813.831Z" fill="white"/>
<path fill-rule="evenodd" clip-rule="evenodd" d="M1337.43 97.9574C1337.43 102.027 1333.31 105.471 1328.16 105.471C1323.15 105.471 1318.9 102.027 1318.9 97.9574C1318.9 93.7832 1323.15 90.4438 1328.16 90.4438C1333.31 90.4438 1337.43 93.7832 1337.43 97.9574ZM1336.27 97.9574C1336.27 94.305 1332.67 91.383 1328.16 91.383C1323.79 91.383 1320.19 94.305 1320.19 97.9574C1320.19 101.505 1323.79 104.427 1328.16 104.427C1332.67 104.427 1336.27 101.505 1336.27 97.9574Z" fill="white"/>
<path d="M1328.42 100.356C1326.23 100.356 1325.33 99.1037 1325.33 97.8514C1325.2 96.5992 1326.23 95.2425 1328.42 95.2425C1329.19 95.2425 1330.09 95.4513 1330.61 95.9731L1331.89 95.0338C1330.87 94.3033 1329.71 93.8859 1328.42 93.8859C1325.08 93.8859 1323.53 95.8687 1323.53 97.8514C1323.53 99.8342 1325.08 101.713 1328.42 101.713C1329.84 101.713 1330.99 101.295 1331.89 100.565L1330.74 99.6255C1330.22 100.147 1329.19 100.356 1328.42 100.356Z" fill="white"/>
<path d="M1253.29 81.4663L1266.16 71.0308L1287 88.0407L1292.53 83.5534L1315.94 64.4564L1310.54 60.0734L1292.53 45.4637L1289.57 43.0635L1274.26 30.5408L1287 20.2096L1302.43 32.628L1305.39 35.0281L1323.28 49.6379L1326.23 52.038L1334.47 58.7168C1338.46 61.9518 1338.46 67.0652 1334.47 70.3002L1302.43 96.2848L1294.2 103.068C1290.21 106.199 1283.78 106.199 1279.92 103.068L1253.29 81.4663Z" fill="white"/>
<path d="M1211.48 81.4667L1229.75 66.5439L1247.76 52.0384L1250.72 49.6383L1266.16 37.1156L1278.89 47.5511L1263.58 60.0738L1260.62 62.3696L1239.65 79.3796L1224.35 91.7979L1211.48 81.4667Z" fill="white"/>
<path d="M1235.67 27.9324L1241.97 22.8189C1243.77 21.3579 1246.73 21.3579 1248.53 22.8189L1254.71 27.9324C1256.51 29.3933 1256.51 31.7935 1254.71 33.2545L1248.4 38.3679C1246.6 39.8289 1243.77 39.8289 1241.97 38.3679L1235.67 33.2545C1233.87 31.7935 1233.87 29.3933 1235.67 27.9324Z" fill="#9C9898"/>
<path d="M1245.19 7.06178L1224.35 23.9674L1211.48 13.6362L1245.19 -13.705L1278.89 13.6362L1266.16 23.9674L1245.19 7.06178Z" fill="#9C9898"/>
<path d="M1155.91 70.3002C1151.92 67.0652 1151.92 61.9518 1155.91 58.7168L1187.94 32.628L1203.38 20.2096L1237.08 47.5508L1224.35 57.882L1203.38 40.9764L1174.43 64.4564L1216.24 98.3719L1210.58 103.068C1206.59 106.199 1200.16 106.199 1196.3 103.068L1155.91 70.3002Z" fill="white"/>
<path fill-rule="evenodd" clip-rule="evenodd" d="M1337.43 246.722C1337.43 250.792 1333.31 254.236 1328.16 254.236C1323.15 254.236 1318.9 250.792 1318.9 246.722C1318.9 242.548 1323.15 239.209 1328.16 239.209C1333.31 239.209 1337.43 242.548 1337.43 246.722ZM1336.27 246.722C1336.27 243.07 1332.67 240.148 1328.16 240.148C1323.79 240.148 1320.19 243.07 1320.19 246.722C1320.19 250.27 1323.79 253.192 1328.16 253.192C1332.67 253.192 1336.27 250.27 1336.27 246.722Z" fill="white"/>
<path d="M1328.42 249.121C1326.23 249.121 1325.33 247.869 1325.33 246.616C1325.2 245.364 1326.23 244.007 1328.42 244.007C1329.19 244.007 1330.09 244.216 1330.61 244.738L1331.89 243.799C1330.87 243.068 1329.71 242.651 1328.42 242.651C1325.08 242.651 1323.53 244.634 1323.53 246.616C1323.53 248.599 1325.08 250.477 1328.42 250.477C1329.84 250.477 1330.99 250.06 1331.89 249.329L1330.74 248.39C1330.22 248.912 1329.19 249.121 1328.42 249.121Z" fill="white"/>
<path d="M1253.29 230.231L1266.16 219.796L1287 236.806L1292.53 232.318L1315.94 213.221L1310.54 208.838L1292.53 194.229L1289.57 191.828L1274.26 179.306L1287 168.974L1302.43 181.393L1305.39 183.793L1323.28 198.403L1326.23 200.803L1334.47 207.482C1338.46 210.717 1338.46 215.83 1334.47 219.065L1302.43 245.05L1294.2 251.833C1290.21 254.963 1283.78 254.963 1279.92 251.833L1253.29 230.231Z" fill="white"/>
<path d="M1211.48 230.231L1229.75 215.309L1247.76 200.803L1250.72 198.403L1266.16 185.88L1278.89 196.316L1263.58 208.839L1260.62 211.134L1239.65 228.144L1224.35 240.563L1211.48 230.231Z" fill="white"/>
<path d="M1235.67 176.697L1241.97 171.584C1243.77 170.123 1246.73 170.123 1248.53 171.584L1254.71 176.697C1256.51 178.158 1256.51 180.558 1254.71 182.019L1248.4 187.133C1246.6 188.594 1243.77 188.594 1241.97 187.133L1235.67 182.019C1233.87 180.558 1233.87 178.158 1235.67 176.697Z" fill="#9C9898"/>
<path d="M1245.19 155.827L1224.35 172.732L1211.48 162.401L1245.19 135.06L1278.89 162.401L1266.16 172.732L1245.19 155.827Z" fill="#9C9898"/>
<path d="M1155.91 219.065C1151.92 215.83 1151.92 210.717 1155.91 207.482L1187.94 181.393L1203.38 168.974L1237.08 196.316L1224.35 206.647L1203.38 189.741L1174.43 213.221L1216.24 247.137L1210.58 251.833C1206.59 254.963 1200.16 254.963 1196.3 251.833L1155.91 219.065Z" fill="white"/>
<path fill-rule="evenodd" clip-rule="evenodd" d="M1337.43 395.486C1337.43 399.556 1333.31 403 1328.16 403C1323.15 403 1318.9 399.556 1318.9 395.486C1318.9 391.312 1323.15 387.973 1328.16 387.973C1333.31 387.973 1337.43 391.312 1337.43 395.486ZM1336.27 395.486C1336.27 391.834 1332.67 388.912 1328.16 388.912C1323.79 388.912 1320.19 391.834 1320.19 395.486C1320.19 399.034 1323.79 401.956 1328.16 401.956C1332.67 401.956 1336.27 399.034 1336.27 395.486Z" fill="white"/>
<path d="M1328.42 397.885C1326.23 397.885 1325.33 396.633 1325.33 395.381C1325.2 394.128 1326.23 392.772 1328.42 392.772C1329.19 392.772 1330.09 392.98 1330.61 393.502L1331.89 392.563C1330.86 391.832 1329.71 391.415 1328.42 391.415C1325.08 391.415 1323.53 393.398 1323.53 395.381C1323.53 397.363 1325.08 399.242 1328.42 399.242C1329.84 399.242 1330.99 398.824 1331.89 398.094L1330.74 397.155C1330.22 397.676 1329.19 397.885 1328.42 397.885Z" fill="white"/>
<path d="M1253.29 378.997L1266.16 368.562L1287 385.572L1292.53 381.084L1315.94 361.987L1310.54 357.604L1292.53 342.995L1289.57 340.595L1274.26 328.072L1287 317.741L1302.43 330.159L1305.39 332.559L1323.28 347.169L1326.23 349.569L1334.47 356.248C1338.46 359.483 1338.46 364.596 1334.47 367.831L1302.43 393.816L1294.2 400.599C1290.21 403.73 1283.78 403.73 1279.92 400.599L1253.29 378.997Z" fill="white"/>
<path d="M1211.48 378.996L1229.75 364.073L1247.76 349.567L1250.72 347.167L1266.16 334.644L1278.89 345.08L1263.58 357.603L1260.62 359.899L1239.65 376.908L1224.35 389.327L1211.48 378.996Z" fill="white"/>
<path d="M1235.67 325.462L1241.97 320.348C1243.77 318.888 1246.73 318.888 1248.53 320.348L1254.71 325.462C1256.51 326.923 1256.51 329.323 1254.71 330.784L1248.4 335.897C1246.6 337.358 1243.77 337.358 1241.97 335.897L1235.67 330.784C1233.87 329.323 1233.87 326.923 1235.67 325.462Z" fill="#9C9898"/>
<path d="M1245.19 304.591L1224.35 321.497L1211.48 311.166L1245.19 283.825L1278.89 311.166L1266.16 321.497L1245.19 304.591Z" fill="#9C9898"/>
<path d="M1155.91 367.831C1151.92 364.596 1151.92 359.483 1155.91 356.248L1187.94 330.159L1203.38 317.741L1237.08 345.082L1224.35 355.413L1203.38 338.507L1174.43 361.987L1216.24 395.903L1210.58 400.599C1206.59 403.73 1200.16 403.73 1196.3 400.599L1155.91 367.831Z" fill="white"/>
<path fill-rule="evenodd" clip-rule="evenodd" d="M1337.43 544.251C1337.43 548.321 1333.31 551.765 1328.16 551.765C1323.15 551.765 1318.9 548.321 1318.9 544.251C1318.9 540.077 1323.15 536.738 1328.16 536.738C1333.31 536.738 1337.43 540.077 1337.43 544.251ZM1336.27 544.251C1336.27 540.599 1332.67 537.677 1328.16 537.677C1323.79 537.677 1320.19 540.599 1320.19 544.251C1320.19 547.799 1323.79 550.721 1328.16 550.721C1332.67 550.721 1336.27 547.799 1336.27 544.251Z" fill="white"/>
<path d="M1328.42 546.65C1326.23 546.65 1325.33 545.398 1325.33 544.146C1325.2 542.893 1326.23 541.537 1328.42 541.537C1329.19 541.537 1330.09 541.745 1330.61 542.267L1331.89 541.328C1330.86 540.597 1329.71 540.18 1328.42 540.18C1325.08 540.18 1323.53 542.163 1323.53 544.146C1323.53 546.128 1325.08 548.007 1328.42 548.007C1329.84 548.007 1330.99 547.589 1331.89 546.859L1330.74 545.92C1330.22 546.441 1329.19 546.65 1328.42 546.65Z" fill="white"/>
<path d="M1253.29 527.76L1266.16 517.325L1287 534.335L1292.53 529.848L1315.94 510.75L1310.54 506.368L1292.53 491.758L1289.57 489.358L1274.26 476.835L1287 466.504L1302.43 478.922L1305.39 481.322L1323.28 495.932L1326.23 498.332L1334.47 505.011C1338.46 508.246 1338.46 513.359 1334.47 516.594L1302.43 542.579L1294.2 549.362C1290.21 552.493 1283.78 552.493 1279.92 549.362L1253.29 527.76Z" fill="white"/>
<path d="M1211.48 527.76L1229.75 512.837L1247.76 498.332L1250.72 495.932L1266.16 483.409L1278.89 493.845L1263.58 506.367L1260.62 508.663L1239.65 525.673L1224.35 538.092L1211.48 527.76Z" fill="white"/>
<path d="M1235.67 474.226L1241.97 469.113C1243.77 467.652 1246.73 467.652 1248.53 469.113L1254.71 474.226C1256.51 475.687 1256.51 478.087 1254.71 479.548L1248.4 484.662C1246.6 486.123 1243.77 486.123 1241.97 484.662L1235.67 479.548C1233.87 478.087 1233.87 475.687 1235.67 474.226Z" fill="#9C9898"/>
<path d="M1245.19 453.355L1224.35 470.261L1211.48 459.93L1245.19 432.589L1278.89 459.93L1266.16 470.261L1245.19 453.355Z" fill="#9C9898"/>
<path d="M1155.91 516.594C1151.92 513.359 1151.92 508.246 1155.91 505.011L1187.94 478.922L1203.38 466.504L1237.08 493.845L1224.35 504.176L1203.38 487.27L1174.43 510.75L1216.24 544.666L1210.58 549.362C1206.59 552.493 1200.16 552.493 1196.3 549.362L1155.91 516.594Z" fill="white"/>
<path fill-rule="evenodd" clip-rule="evenodd" d="M1337.43 693.016C1337.43 697.086 1333.31 700.53 1328.16 700.53C1323.15 700.53 1318.9 697.086 1318.9 693.016C1318.9 688.842 1323.15 685.503 1328.16 685.503C1333.31 685.503 1337.43 688.842 1337.43 693.016ZM1336.27 693.016C1336.27 689.364 1332.67 686.442 1328.16 686.442C1323.79 686.442 1320.19 689.364 1320.19 693.016C1320.19 696.564 1323.79 699.486 1328.16 699.486C1332.67 699.486 1336.27 696.564 1336.27 693.016Z" fill="white"/>
<path d="M1328.42 695.415C1326.23 695.415 1325.33 694.163 1325.33 692.911C1325.2 691.658 1326.23 690.302 1328.42 690.302C1329.19 690.302 1330.09 690.51 1330.61 691.032L1331.89 690.093C1330.86 689.362 1329.71 688.945 1328.42 688.945C1325.08 688.945 1323.53 690.928 1323.53 692.911C1323.53 694.893 1325.08 696.772 1328.42 696.772C1329.84 696.772 1330.99 696.354 1331.89 695.624L1330.74 694.685C1330.22 695.206 1329.19 695.415 1328.42 695.415Z" fill="white"/>
<path d="M1253.29 676.525L1266.16 666.09L1287 683.1L1292.53 678.613L1315.94 659.515L1310.54 655.133L1292.53 640.523L1289.57 638.123L1274.26 625.6L1287 615.269L1302.43 627.687L1305.39 630.087L1323.28 644.697L1326.23 647.097L1334.47 653.776C1338.46 657.011 1338.46 662.124 1334.47 665.359L1302.43 691.344L1294.2 698.127C1290.21 701.258 1283.78 701.258 1279.92 698.127L1253.29 676.525Z" fill="white"/>
<path d="M1211.48 676.525L1229.75 661.603L1247.76 647.097L1250.72 644.697L1266.16 632.174L1278.89 642.61L1263.58 655.132L1260.62 657.428L1239.65 674.438L1224.35 686.857L1211.48 676.525Z" fill="white"/>
<path d="M1235.67 622.991L1241.97 617.878C1243.77 616.417 1246.73 616.417 1248.53 617.878L1254.71 622.991C1256.51 624.452 1256.51 626.852 1254.71 628.313L1248.4 633.427C1246.6 634.888 1243.77 634.888 1241.97 633.427L1235.67 628.313C1233.87 626.852 1233.87 624.452 1235.67 622.991Z" fill="#9C9898"/>
<path d="M1245.19 602.12L1224.35 619.026L1211.48 608.695L1245.19 581.354L1278.89 608.695L1266.16 619.026L1245.19 602.12Z" fill="#9C9898"/>
<path d="M1155.91 665.359C1151.92 662.124 1151.92 657.011 1155.91 653.776L1187.94 627.687L1203.38 615.269L1237.08 642.61L1224.35 652.941L1203.38 636.036L1174.43 659.515L1216.24 693.431L1210.58 698.127C1206.59 701.258 1200.16 701.258 1196.3 698.127L1155.91 665.359Z" fill="white"/>
<path fill-rule="evenodd" clip-rule="evenodd" d="M1337.43 841.781C1337.43 845.851 1333.31 849.295 1328.16 849.295C1323.15 849.295 1318.9 845.851 1318.9 841.781C1318.9 837.607 1323.15 834.268 1328.16 834.268C1333.31 834.268 1337.43 837.607 1337.43 841.781ZM1336.27 841.781C1336.27 838.129 1332.67 835.207 1328.16 835.207C1323.79 835.207 1320.19 838.129 1320.19 841.781C1320.19 845.33 1323.79 848.252 1328.16 848.252C1332.67 848.252 1336.27 845.33 1336.27 841.781Z" fill="white"/>
<path d="M1253.29 825.291L1266.16 814.855L1287 831.865L1292.53 827.378L1315.94 808.281L1310.54 803.898L1292.53 789.288L1289.57 786.888L1274.26 774.365L1287 764.034L1302.43 776.452L1305.39 778.852L1323.28 793.462L1326.23 795.862L1334.47 802.541C1338.46 805.776 1338.46 810.889 1334.47 814.124L1302.43 840.109L1294.2 846.892C1290.21 850.023 1283.78 850.023 1279.92 846.892L1253.29 825.291Z" fill="white"/>
<path d="M1211.48 825.29L1229.75 810.368L1247.76 795.862L1250.72 793.462L1266.16 780.939L1278.89 791.375L1263.58 803.898L1260.62 806.193L1239.65 823.203L1224.35 835.622L1211.48 825.29Z" fill="white"/>
<path d="M1235.67 771.756L1241.97 766.643C1243.77 765.182 1246.73 765.182 1248.53 766.643L1254.71 771.756C1256.51 773.217 1256.51 775.617 1254.71 777.078L1248.4 782.192C1246.6 783.653 1243.77 783.653 1241.97 782.192L1235.67 777.078C1233.87 775.617 1233.87 773.217 1235.67 771.756Z" fill="#9C9898"/>
<path d="M1245.19 750.886L1224.35 767.791L1211.48 757.46L1245.19 730.119L1278.89 757.46L1266.16 767.791L1245.19 750.886Z" fill="#9C9898"/>
<path d="M1155.91 814.124C1151.92 810.889 1151.92 805.776 1155.91 802.541L1187.94 776.452L1203.38 764.034L1237.08 791.375L1224.35 801.706L1203.38 784.801L1174.43 808.281L1216.24 842.196L1210.58 846.892C1206.59 850.023 1200.16 850.023 1196.3 846.892L1155.91 814.124Z" fill="white"/>
<path d="M1421.75 81.1715L1440.02 66.2487L1458.03 51.7433L1460.99 49.3431L1476.43 36.8205L1489.16 47.256L1473.86 59.7787L1470.9 62.0745L1449.93 79.0844L1434.62 91.5028L1421.75 81.1715Z" fill="white"/>
<path d="M1455.46 6.76664L1434.62 23.6722L1421.75 13.341L1455.46 -14.0001L1489.16 13.341L1476.43 23.6722L1455.46 6.76664Z" fill="#9C9898"/>
<path d="M1366.18 70.0056C1362.19 66.7705 1362.19 61.6571 1366.18 58.4221L1398.21 32.3333L1413.65 19.9149L1447.35 47.2561L1434.62 57.5873L1413.65 40.6817L1384.7 64.1617L1426.51 98.0772L1420.85 102.773C1416.87 105.904 1410.43 105.904 1406.57 102.773L1366.18 70.0056Z" fill="white"/>
<path d="M1421.75 229.937L1440.02 215.014L1458.03 200.509L1460.99 198.108L1476.43 185.586L1489.16 196.021L1473.86 208.544L1470.9 210.84L1449.93 227.85L1434.62 240.268L1421.75 229.937Z" fill="white"/>
<path d="M1455.46 155.532L1434.62 172.437L1421.75 162.106L1455.46 134.765L1489.16 162.106L1476.43 172.437L1455.46 155.532Z" fill="#9C9898"/>
<path d="M1366.18 218.771C1362.19 215.536 1362.19 210.422 1366.18 207.187L1398.21 181.098L1413.65 168.68L1447.35 196.021L1434.62 206.352L1413.65 189.447L1384.7 212.927L1426.51 246.842L1420.85 251.538C1416.87 254.669 1410.43 254.669 1406.57 251.538L1366.18 218.771Z" fill="white"/>
<path d="M1421.75 378.702L1440.02 363.779L1458.03 349.273L1460.99 346.873L1476.43 334.35L1489.16 344.786L1473.86 357.309L1470.9 359.605L1449.93 376.614L1434.62 389.033L1421.75 378.702Z" fill="white"/>
<path d="M1455.46 304.297L1434.62 321.203L1421.75 310.871L1455.46 283.53L1489.16 310.871L1476.43 321.203L1455.46 304.297Z" fill="#9C9898"/>
<path d="M1366.18 367.537C1362.19 364.302 1362.19 359.189 1366.18 355.954L1398.21 329.865L1413.65 317.447L1447.35 344.788L1434.62 355.119L1413.65 338.213L1384.7 361.693L1426.51 395.609L1420.85 400.305C1416.87 403.436 1410.43 403.436 1406.57 400.305L1366.18 367.537Z" fill="white"/>
<path d="M1421.75 527.467L1440.02 512.544L1458.03 498.038L1460.99 495.638L1476.43 483.115L1489.16 493.551L1473.86 506.074L1470.9 508.37L1449.93 525.379L1434.62 537.798L1421.75 527.467Z" fill="white"/>
<path d="M1455.46 453.062L1434.62 469.967L1421.75 459.636L1455.46 432.295L1489.16 459.636L1476.43 469.967L1455.46 453.062Z" fill="#9C9898"/>
<path d="M1366.18 516.3C1362.19 513.065 1362.19 507.952 1366.18 504.717L1398.21 478.628L1413.65 466.21L1447.35 493.551L1434.62 503.882L1413.65 486.976L1384.7 510.456L1426.51 544.372L1420.85 549.068C1416.87 552.198 1410.43 552.198 1406.57 549.068L1366.18 516.3Z" fill="white"/>
<path d="M1421.75 676.231L1440.02 661.309L1458.03 646.803L1460.99 644.403L1476.43 631.88L1489.16 642.316L1473.86 654.839L1470.9 657.134L1449.93 674.144L1434.62 686.563L1421.75 676.231Z" fill="white"/>
<path d="M1455.46 601.827L1434.62 618.732L1421.75 608.401L1455.46 581.06L1489.16 608.401L1476.43 618.732L1455.46 601.827Z" fill="#9C9898"/>
<path d="M1366.18 665.065C1362.19 661.83 1362.19 656.717 1366.18 653.482L1398.21 627.393L1413.65 614.974L1447.35 642.316L1434.62 652.647L1413.65 635.741L1384.7 659.221L1426.51 693.137L1420.85 697.833C1416.87 700.963 1410.43 700.963 1406.57 697.833L1366.18 665.065Z" fill="white"/>
<path d="M1421.75 824.995L1440.02 810.073L1458.03 795.567L1460.99 793.167L1476.43 780.644L1489.16 791.08L1473.86 803.603L1470.9 805.898L1449.93 822.908L1434.62 835.327L1421.75 824.995Z" fill="white"/>
<path d="M1455.46 750.591L1434.62 767.497L1421.75 757.166L1455.46 729.825L1489.16 757.166L1476.43 767.497L1455.46 750.591Z" fill="#9C9898"/>
<path d="M1366.18 813.831C1362.19 810.596 1362.19 805.483 1366.18 802.248L1398.21 776.159L1413.65 763.741L1447.35 791.082L1434.62 801.413L1413.65 784.507L1384.7 807.987L1426.51 841.903L1420.85 846.599C1416.87 849.73 1410.43 849.73 1406.57 846.599L1366.18 813.831Z" fill="white"/>
</g>
</g>
<defs>
<clipPath id="clip0_50_7026">
<rect width="1440" height="834.276" fill="white"/>
</clipPath>
</defs>
</svg>
