<svg width="33" height="33" viewBox="0 0 33 33" fill="none" xmlns="http://www.w3.org/2000/svg">
<path d="M18.9606 13.5975C18.9606 13.0203 19.4243 12.5524 19.9974 12.5524C20.5692 12.5524 21.0332 13.0203 21.0332 13.5975C21.0332 14.1748 20.5692 14.643 19.9974 14.643C19.4246 14.6427 18.9606 14.1745 18.9606 13.5975ZM15.7356 4.69419H15.727V6.12683H17.0419V4.73611C17.2721 4.62042 17.4657 4.44304 17.6011 4.22375C17.7364 4.00446 17.8081 3.75187 17.8083 3.49419C17.8083 2.72427 17.19 2.10059 16.4265 2.10059C15.6633 2.10059 15.0444 2.72427 15.0444 3.49419C15.0443 3.73725 15.1081 3.97606 15.2295 4.18668C15.3508 4.3973 15.5253 4.57232 15.7356 4.69419ZM12.8582 14.6427C13.43 14.6427 13.894 14.1745 13.894 13.5972C13.894 13.0199 13.43 12.5521 12.8582 12.5521C12.2851 12.5521 11.8214 13.0199 11.8214 13.5972C11.8214 14.1745 12.2851 14.6427 12.8582 14.6427ZM16.4265 30.9006C17.9865 30.9006 19.3123 29.8999 19.816 28.5006H13.0371C13.5408 29.8999 14.8662 30.9006 16.4265 30.9006ZM5.62012 26.6542C5.62011 26.3929 5.69374 26.1369 5.83258 25.9155C5.97142 25.6942 6.16984 25.5164 6.40508 25.4027V19.4769C6.40508 18.3083 7.30748 17.3537 8.44828 17.2779V14.4107C8.44828 14.4107 8.72572 9.18443 13.0371 7.55883C14.3177 7.07627 15.487 6.88107 16.5001 6.84427C17.5139 6.88107 18.6832 7.07627 19.9628 7.55851C24.2748 9.18411 24.5526 14.4103 24.5526 14.4103V17.2775C25.6928 17.3534 26.5952 18.3079 26.5952 19.4766V25.4027C26.8304 25.5164 27.0288 25.6942 27.1676 25.9156C27.3064 26.1369 27.3801 26.3929 27.3801 26.6542C27.3801 27.4238 26.7612 28.0475 25.998 28.0475C25.2352 28.0475 24.6166 27.4238 24.6166 26.6542C24.6166 26.393 24.6901 26.1371 24.8288 25.9158C24.9674 25.6944 25.1656 25.5166 25.4006 25.4027V21.4411C25.137 21.576 24.8485 21.6554 24.5529 21.6743V23.051C24.5606 23.1623 24.5699 23.2727 24.5699 23.3867C24.5699 23.5073 24.5619 23.6267 24.5529 23.746V23.778H24.5513C24.3673 26.0718 22.5878 27.9095 20.3321 28.1601L20.334 28.1911H12.6659L12.6684 28.1601C10.4128 27.9095 8.63356 26.0718 8.44956 23.778H8.44828V23.746C8.43828 23.6265 8.43263 23.5066 8.43132 23.3867C8.43132 23.2731 8.43996 23.1623 8.44828 23.051V21.6747C8.15231 21.6558 7.86336 21.5764 7.59932 21.4414V25.403C7.83453 25.5168 8.03293 25.6945 8.17177 25.9159C8.3106 26.1372 8.38425 26.3932 8.38428 26.6545C8.38428 27.4241 7.76572 28.0478 7.0022 28.0478C6.23932 28.0478 5.62012 27.4241 5.62012 26.6542ZM18.8064 19.3662C18.8064 18.9963 18.5088 18.6955 18.1414 18.6955C17.7734 18.6955 17.4758 18.9959 17.4758 19.3662C17.4758 19.7367 17.7734 20.0375 18.1414 20.0375C18.5088 20.0375 18.8064 19.7367 18.8064 19.3662ZM20.4438 19.3662C20.4438 18.9963 20.1462 18.6955 19.7788 18.6955C19.4115 18.6955 19.1132 18.9959 19.1132 19.3662C19.1132 19.7367 19.4115 20.0375 19.7788 20.0375C20.1462 20.0375 20.4438 19.7367 20.4438 19.3662ZM22.0819 19.3662C22.0819 18.9963 21.7843 18.6955 21.4169 18.6955C21.0489 18.6955 20.7513 18.9959 20.7513 19.3662C20.7513 19.7367 21.0489 20.0375 21.4169 20.0375C21.7846 20.0375 22.0819 19.7367 22.0819 19.3662ZM10.9001 13.7911C10.9001 15.5716 12.2822 15.6881 12.2822 15.6881C12.7632 15.8414 13.7795 15.7652 14.2393 15.6881C14.6627 15.6161 16.2156 15.4807 16.463 15.4587C16.4723 15.4596 16.4873 15.4612 16.4998 15.4619C16.5129 15.4612 16.5276 15.4596 16.5366 15.4587C16.7836 15.4804 18.3366 15.6161 18.76 15.6881C19.2208 15.7652 20.2364 15.8414 20.7177 15.6881C20.7177 15.6881 22.0992 15.5719 22.0992 13.7911C22.0992 13.7911 22.0992 11.8167 20.7177 10.6167C19.3776 9.45291 17.3635 9.20043 16.5731 9.18539V9.18411L16.5366 9.18507L16.4998 9.18411L16.463 9.18507L16.4262 9.18411V9.18539C15.6368 9.20043 13.622 9.45291 12.2822 10.6167C10.9001 11.8167 10.9001 13.7911 10.9001 13.7911Z" fill="white"/>
</svg>
