<svg width="32" height="33" viewBox="0 0 32 33" fill="none" xmlns="http://www.w3.org/2000/svg">
<path d="M26.6654 9.83366V23.167C26.6654 28.5003 25.332 29.8337 19.9987 29.8337H11.9987C6.66536 29.8337 5.33203 28.5003 5.33203 23.167V9.83366C5.33203 4.50033 6.66536 3.16699 11.9987 3.16699H19.9987C25.332 3.16699 26.6654 4.50033 26.6654 9.83366Z" stroke="white" stroke-width="2" stroke-linecap="round" stroke-linejoin="round"/>
<path d="M18.6654 7.83398H13.332" stroke="white" stroke-width="2" stroke-linecap="round" stroke-linejoin="round"/>
<path d="M15.9973 25.9673C17.1387 25.9673 18.064 25.042 18.064 23.9007C18.064 22.7593 17.1387 21.834 15.9973 21.834C14.8559 21.834 13.9307 22.7593 13.9307 23.9007C13.9307 25.042 14.8559 25.9673 15.9973 25.9673Z" stroke="white" stroke-width="2" stroke-linecap="round" stroke-linejoin="round"/>
</svg>
