<svg width="32" height="33" viewBox="0 0 32 33" fill="none" xmlns="http://www.w3.org/2000/svg">
<path d="M12.7997 27.1663H19.1997C24.533 27.1663 26.6663 25.033 26.6663 19.6997V13.2997C26.6663 7.96634 24.533 5.83301 19.1997 5.83301H12.7997C7.46634 5.83301 5.33301 7.96634 5.33301 13.2997V19.6997C5.33301 25.033 7.46634 27.1663 12.7997 27.1663Z" stroke="white" stroke-width="2" stroke-linecap="round" stroke-linejoin="round"/>
<path d="M13.9997 23.1663H17.9997C21.333 23.1663 22.6663 21.833 22.6663 18.4997V14.4997C22.6663 11.1663 21.333 9.83301 17.9997 9.83301H13.9997C10.6663 9.83301 9.33301 11.1663 9.33301 14.4997V18.4997C9.33301 21.833 10.6663 23.1663 13.9997 23.1663Z" stroke="white" stroke-width="2" stroke-linecap="round" stroke-linejoin="round"/>
<path d="M10.6797 5.83366V3.16699" stroke="white" stroke-width="2" stroke-linecap="round" stroke-linejoin="round"/>
<path d="M16 5.83366V3.16699" stroke="white" stroke-width="2" stroke-linecap="round" stroke-linejoin="round"/>
<path d="M21.333 5.83366V3.16699" stroke="white" stroke-width="2" stroke-linecap="round" stroke-linejoin="round"/>
<path d="M26.667 11.167H29.3337" stroke="white" stroke-width="2" stroke-linecap="round" stroke-linejoin="round"/>
<path d="M26.667 16.5H29.3337" stroke="white" stroke-width="2" stroke-linecap="round" stroke-linejoin="round"/>
<path d="M26.667 21.833H29.3337" stroke="white" stroke-width="2" stroke-linecap="round" stroke-linejoin="round"/>
<path d="M21.333 27.167V29.8337" stroke="white" stroke-width="2" stroke-linecap="round" stroke-linejoin="round"/>
<path d="M16.0127 27.167V29.8337" stroke="white" stroke-width="2" stroke-linecap="round" stroke-linejoin="round"/>
<path d="M10.6797 27.167V29.8337" stroke="white" stroke-width="2" stroke-linecap="round" stroke-linejoin="round"/>
<path d="M2.66699 11.167H5.33366" stroke="white" stroke-width="2" stroke-linecap="round" stroke-linejoin="round"/>
<path d="M2.66699 16.5H5.33366" stroke="white" stroke-width="2" stroke-linecap="round" stroke-linejoin="round"/>
<path d="M2.66699 21.833H5.33366" stroke="white" stroke-width="2" stroke-linecap="round" stroke-linejoin="round"/>
</svg>
