<svg width="32" height="33" viewBox="0 0 32 33" fill="none" xmlns="http://www.w3.org/2000/svg">
<path d="M17.3464 4.39375L25.213 7.88708C27.4797 8.88708 27.4797 10.5404 25.213 11.5404L17.3464 15.0338C16.453 15.4338 14.9864 15.4338 14.093 15.0338L6.22637 11.5404C3.9597 10.5404 3.9597 8.88708 6.22637 7.88708L14.093 4.39375C14.9864 3.99375 16.453 3.99375 17.3464 4.39375Z" stroke="white" stroke-width="2" stroke-linecap="round" stroke-linejoin="round"/>
<path d="M4 15.167C4 16.287 4.84 17.5803 5.86667 18.0337L14.92 22.0603C15.6133 22.367 16.4 22.367 17.08 22.0603L26.1333 18.0337C27.16 17.5803 28 16.287 28 15.167" stroke="white" stroke-width="2" stroke-linecap="round" stroke-linejoin="round"/>
<path d="M4 21.833C4 23.073 4.73333 24.193 5.86667 24.6997L14.92 28.7263C15.6133 29.033 16.4 29.033 17.08 28.7263L26.1333 24.6997C27.2667 24.193 28 23.073 28 21.833" stroke="white" stroke-width="2" stroke-linecap="round" stroke-linejoin="round"/>
</svg>
