<svg width="32" height="33" viewBox="0 0 32 33" fill="none" xmlns="http://www.w3.org/2000/svg">
<path d="M11.9994 17.833C11.1194 18.273 10.386 18.9263 9.83938 19.7397C9.53271 20.2063 9.53271 20.793 9.83938 21.2597C10.386 22.073 11.1194 22.7263 11.9994 23.1663" stroke="white" stroke-width="2" stroke-linecap="round" stroke-linejoin="round"/>
<path d="M20.2812 17.833C21.1613 18.273 21.8946 18.9263 22.4412 19.7397C22.7479 20.2063 22.7479 20.793 22.4412 21.2597C21.8946 22.073 21.1613 22.7263 20.2812 23.1663" stroke="white" stroke-width="2" stroke-linecap="round" stroke-linejoin="round"/>
<path d="M12.0003 29.8337H20.0003C26.667 29.8337 29.3337 27.167 29.3337 20.5003V12.5003C29.3337 5.83366 26.667 3.16699 20.0003 3.16699H12.0003C5.33366 3.16699 2.66699 5.83366 2.66699 12.5003V20.5003C2.66699 27.167 5.33366 29.8337 12.0003 29.8337Z" stroke="white" stroke-width="2" stroke-linecap="round" stroke-linejoin="round"/>
<path d="M2.97363 11.1803L28.6003 11.167" stroke="white" stroke-width="2" stroke-linecap="round" stroke-linejoin="round"/>
</svg>
