<svg width="44" height="45" viewBox="0 0 44 45" fill="none" xmlns="http://www.w3.org/2000/svg">
<rect y="0.277344" width="44" height="44" rx="22" fill="#244453"/>
<path d="M22.0003 8.94336C14.6403 8.94336 8.66699 14.9167 8.66699 22.2767C8.66699 29.6367 14.6403 35.61 22.0003 35.61C29.3603 35.61 35.3337 29.6367 35.3337 22.2767C35.3337 14.9167 29.3603 8.94336 22.0003 8.94336ZM26.667 23.2767H19.747L22.0403 25.57C22.427 25.9567 22.427 26.5967 22.0403 26.9834C21.8403 27.1834 21.587 27.2767 21.3337 27.2767C21.0803 27.2767 20.827 27.1834 20.627 26.9834L16.627 22.9834C16.2403 22.5967 16.2403 21.9567 16.627 21.57L20.627 17.57C21.0137 17.1834 21.6537 17.1834 22.0403 17.57C22.427 17.9567 22.427 18.5967 22.0403 18.9834L19.747 21.2767H26.667C27.2137 21.2767 27.667 21.73 27.667 22.2767C27.667 22.8234 27.2137 23.2767 26.667 23.2767Z" fill="white"/>
</svg>
