<svg width="1440" height="607" viewBox="0 0 1440 607" fill="none" xmlns="http://www.w3.org/2000/svg">
<g clip-path="url(#clip0_247_5991)">
<rect width="1440" height="607" fill="#244453"/>
<g opacity="0.02" clip-path="url(#clip1_247_5991)">
<path d="M59.7785 -68.8119C59.7785 -26.7807 25.5279 7.46988 -16.5033 7.46988C-36.1078 7.46988 -54.034 0.0705414 -67.5359 -12.1346C-70.0532 -14.423 -72.4179 -16.864 -74.5538 -19.4576C-85.9198 -32.8069 -92.7852 -50.0466 -92.7852 -68.8119C-92.7852 -110.843 -58.5346 -145.094 -16.5033 -145.094C-12.3078 -145.094 -8.87516 -141.661 -8.87516 -137.466C-8.87516 -133.27 -12.3078 -129.837 -16.5033 -129.837C-50.1436 -129.837 -77.5288 -102.452 -77.5288 -68.8119C-77.5288 -51.0383 -69.9006 -35.0191 -57.6955 -23.882C-55.5596 -21.8994 -53.2712 -20.1441 -50.8302 -18.4659C-41.0661 -11.7531 -29.2424 -7.78648 -16.5033 -7.78648C17.1369 -7.78648 44.5221 -35.1717 44.5221 -68.8119C44.5221 -73.0074 47.9548 -76.4401 52.1503 -76.4401C56.3458 -76.4401 59.7785 -73.0074 59.7785 -68.8119Z" fill="white"/>
<path opacity="0.15" d="M59.7776 -68.8119C59.7776 -26.7807 25.527 7.46988 -16.5042 7.46988C-36.1087 7.46988 -54.0349 0.0705414 -67.5368 -12.1346C-70.0541 -14.423 -72.4188 -16.864 -74.5547 -19.4576C-68.6047 -20.6781 -62.9599 -22.2038 -57.6964 -23.882C-55.5605 -21.8994 -53.2721 -20.1441 -50.831 -18.4659C-41.067 -11.7531 -29.2433 -7.78648 -16.5042 -7.78648C17.136 -7.78648 44.5212 -35.1717 44.5212 -68.8119C44.5212 -73.0074 47.9539 -76.4401 52.1494 -76.4401C56.3449 -76.4401 59.7776 -73.0074 59.7776 -68.8119ZM59.7776 -122.209C59.7776 -118.014 56.3449 -114.581 52.1494 -114.581H40.0206L18.9668 -93.451C23.1623 -103.673 26.061 -114.047 27.9681 -124.039L29.2649 -125.337V-131.821C29.7988 -135.101 30.1802 -138.305 30.4091 -141.432C30.9423 -142.348 31.7059 -143.187 32.6213 -143.797C33.8418 -144.636 35.2911 -145.094 36.893 -145.094C41.0885 -145.094 44.5212 -141.661 44.5212 -137.466V-129.837H52.1494C56.3449 -129.837 59.7776 -126.405 59.7776 -122.209Z" fill="white"/>
<path d="M29.2667 152.957C29.2667 178.206 8.74689 198.726 -16.5024 198.726C-23.2915 198.726 -29.7754 197.276 -35.5728 194.53C-37.4799 193.615 -39.3869 192.623 -41.1414 191.479C-53.8042 183.393 -62.2715 169.128 -62.2715 152.957C-62.2715 127.707 -41.7517 107.188 -16.5024 107.188C-12.3069 107.188 -8.87421 110.62 -8.87421 114.816C-8.87421 119.011 -12.3069 122.444 -16.5024 122.444C-33.3607 122.444 -47.0151 136.098 -47.0151 152.957C-47.0151 166.916 -37.6325 178.74 -24.7408 182.325C-23.5966 182.63 -22.4524 182.935 -21.3082 183.088C-19.7825 183.317 -18.1806 183.469 -16.5024 183.469C0.355885 183.469 14.0103 169.815 14.0103 152.957C14.0103 148.761 17.443 145.328 21.6385 145.328C25.834 145.328 29.2667 148.761 29.2667 152.957Z" fill="#909090"/>
<path d="M59.7785 152.958C59.7785 194.989 25.5279 229.239 -16.5033 229.239C-36.1078 229.239 -54.034 221.84 -67.5359 209.635C-70.0532 207.347 -72.4179 204.906 -74.5538 202.312C-85.9198 188.963 -92.7852 171.723 -92.7852 152.958C-92.7852 110.926 -58.5346 76.6758 -16.5033 76.6758C-12.3078 76.6758 -8.87516 80.1085 -8.87516 84.304C-8.87516 88.4995 -12.3078 91.9321 -16.5033 91.9321C-50.1436 91.9321 -77.5288 119.317 -77.5288 152.958C-77.5288 170.731 -69.9006 186.75 -57.6955 197.888C-55.5596 199.87 -53.2712 201.625 -50.8302 203.304C-41.0661 210.016 -29.2424 213.983 -16.5033 213.983C17.1369 213.983 44.5221 186.598 44.5221 152.958C44.5221 148.762 47.9548 145.329 52.1503 145.329C56.3458 145.329 59.7785 148.762 59.7785 152.958Z" fill="white"/>
<path d="M59.7767 99.5603C59.7767 103.756 56.344 107.189 52.1485 107.189H40.0197L18.966 128.319L-11.0891 158.374C-12.6147 159.823 -14.5218 160.586 -16.5051 160.586C-18.4884 160.586 -20.3955 159.823 -21.9211 158.374C-24.8961 155.399 -24.8961 150.517 -21.9211 147.542L-12.6147 138.235L27.2807 98.4161L27.9672 97.7296L29.264 96.4328V84.304C29.264 82.8546 29.6454 81.4815 30.4082 80.3373C30.9414 79.4219 31.705 78.5828 32.6204 77.9726C33.8409 77.1335 35.2903 76.6758 36.8922 76.6758C41.0877 76.6758 44.5204 80.1085 44.5204 84.304V91.9321H52.1485C56.344 91.9321 59.7767 95.3648 59.7767 99.5603Z" fill="white"/>
<path opacity="0.15" d="M-35.576 194.532C-37.483 193.616 -39.39 192.625 -41.1445 191.481C-35.1946 188.658 -29.7785 185.607 -24.7439 182.327C-23.5997 182.632 -22.4555 182.937 -21.3113 183.09C-19.7856 183.318 -18.1837 183.471 -16.5055 183.471C0.352772 183.471 14.0072 169.817 14.0072 152.958C14.0072 148.763 17.4399 145.33 21.6354 145.33C25.8309 145.33 29.2636 148.763 29.2636 152.958C29.2636 178.208 8.74377 198.727 -16.5055 198.727C-23.2946 198.727 -29.7785 197.278 -35.576 194.532Z" fill="white"/>
<path opacity="0.15" d="M59.7776 152.958C59.7776 194.989 25.527 229.239 -16.5042 229.239C-36.1087 229.239 -54.0349 221.84 -67.5368 209.635C-70.0541 207.347 -72.4188 204.906 -74.5547 202.312C-68.6047 201.091 -62.9599 199.566 -57.6964 197.888C-55.5605 199.87 -53.2721 201.625 -50.831 203.304C-41.067 210.016 -29.2433 213.983 -16.5042 213.983C17.136 213.983 44.5212 186.598 44.5212 152.958C44.5212 148.762 47.9539 145.329 52.1494 145.329C56.3449 145.329 59.7776 148.762 59.7776 152.958ZM59.7776 99.5603C59.7776 103.756 56.3449 107.189 52.1494 107.189H40.0206L18.9668 128.319C23.1623 118.097 26.061 107.722 27.9681 97.7303L29.2649 96.4328V89.9488C29.7988 86.6687 30.1802 83.4649 30.4091 80.3373C30.9423 79.4219 31.7059 78.5828 32.6213 77.9726C33.8418 77.1335 35.2911 76.6758 36.893 76.6758C41.0885 76.6758 44.5212 80.1085 44.5212 84.304V91.9321H52.1494C56.3449 91.9321 59.7776 95.3648 59.7776 99.5603Z" fill="white"/>
<path d="M29.2667 374.724C29.2667 399.973 8.74689 420.493 -16.5024 420.493C-23.2915 420.493 -29.7754 419.044 -35.5728 416.298C-37.4799 415.382 -39.3869 414.391 -41.1414 413.246C-53.8042 405.161 -62.2715 390.896 -62.2715 374.724C-62.2715 349.475 -41.7517 328.955 -16.5024 328.955C-12.3069 328.955 -8.87421 332.388 -8.87421 336.583C-8.87421 340.779 -12.3069 344.211 -16.5024 344.211C-33.3607 344.211 -47.0151 357.866 -47.0151 374.724C-47.0151 388.684 -37.6325 400.507 -24.7408 404.093C-23.5966 404.398 -22.4524 404.703 -21.3082 404.855C-19.7825 405.084 -18.1806 405.237 -16.5024 405.237C0.355885 405.237 14.0103 391.582 14.0103 374.724C14.0103 370.529 17.443 367.096 21.6385 367.096C25.834 367.096 29.2667 370.529 29.2667 374.724Z" fill="#909090"/>
<path d="M59.7785 374.725C59.7785 416.756 25.5279 451.007 -16.5033 451.007C-36.1078 451.007 -54.034 443.608 -67.5359 431.403C-70.0532 429.114 -72.4179 426.673 -74.5538 424.08C-85.9198 410.73 -92.7852 393.491 -92.7852 374.725C-92.7852 332.694 -58.5346 298.443 -16.5033 298.443C-12.3078 298.443 -8.87516 301.876 -8.87516 306.072C-8.87516 310.267 -12.3078 313.7 -16.5033 313.7C-50.1436 313.7 -77.5288 341.085 -77.5288 374.725C-77.5288 392.499 -69.9006 408.518 -57.6955 419.655C-55.5596 421.638 -53.2712 423.393 -50.8302 425.071C-41.0661 431.784 -29.2424 435.751 -16.5033 435.751C17.1369 435.751 44.5221 408.365 44.5221 374.725C44.5221 370.53 47.9548 367.097 52.1503 367.097C56.3458 367.097 59.7785 370.53 59.7785 374.725Z" fill="white"/>
<path d="M59.7767 321.328C59.7767 325.523 56.344 328.956 52.1485 328.956H40.0197L18.966 350.086L-11.0891 380.141C-12.6147 381.591 -14.5218 382.353 -16.5051 382.353C-18.4884 382.353 -20.3955 381.591 -21.9211 380.141C-24.8961 377.166 -24.8961 372.284 -21.9211 369.309L-12.6147 360.003L27.2807 320.184L27.9672 319.497L29.264 318.2V306.072C29.264 304.622 29.6454 303.249 30.4082 302.105C30.9414 301.19 31.705 300.35 32.6204 299.74C33.8409 298.901 35.2903 298.443 36.8922 298.443C41.0877 298.443 44.5204 301.876 44.5204 306.072V313.7H52.1485C56.344 313.7 59.7767 317.132 59.7767 321.328Z" fill="white"/>
<path opacity="0.15" d="M-35.576 416.299C-37.483 415.384 -39.39 414.392 -41.1445 413.248C-35.1946 410.426 -29.7785 407.374 -24.7439 404.094C-23.5997 404.399 -22.4555 404.705 -21.3113 404.857C-19.7856 405.086 -18.1837 405.239 -16.5055 405.239C0.352772 405.239 14.0072 391.584 14.0072 374.726C14.0072 370.53 17.4399 367.098 21.6354 367.098C25.8309 367.098 29.2636 370.53 29.2636 374.726C29.2636 399.975 8.74377 420.495 -16.5055 420.495C-23.2946 420.495 -29.7785 419.046 -35.576 416.299Z" fill="white"/>
<path opacity="0.15" d="M59.7776 374.725C59.7776 416.756 25.527 451.007 -16.5042 451.007C-36.1087 451.007 -54.0349 443.608 -67.5368 431.403C-70.0541 429.114 -72.4188 426.673 -74.5547 424.08C-68.6047 422.859 -62.9599 421.333 -57.6964 419.655C-55.5605 421.638 -53.2721 423.393 -50.831 425.071C-41.067 431.784 -29.2433 435.751 -16.5042 435.751C17.136 435.751 44.5212 408.365 44.5212 374.725C44.5212 370.53 47.9539 367.097 52.1494 367.097C56.3449 367.097 59.7776 370.53 59.7776 374.725ZM59.7776 321.328C59.7776 325.523 56.3449 328.956 52.1494 328.956H40.0206L18.9668 350.086C23.1623 339.864 26.061 329.49 27.9681 319.498L29.2649 318.2V311.716C29.7988 308.436 30.1802 305.232 30.4091 302.105C30.9423 301.19 31.7059 300.35 32.6213 299.74C33.8418 298.901 35.2911 298.443 36.893 298.443C41.0885 298.443 44.5212 301.876 44.5212 306.072V313.7H52.1494C56.3449 313.7 59.7776 317.132 59.7776 321.328Z" fill="white"/>
<path d="M29.2667 596.494C29.2667 621.743 8.74689 642.263 -16.5024 642.263C-23.2915 642.263 -29.7754 640.813 -35.5728 638.067C-37.4799 637.152 -39.3869 636.16 -41.1414 635.016C-53.8042 626.93 -62.2715 612.665 -62.2715 596.494C-62.2715 571.244 -41.7517 550.725 -16.5024 550.725C-12.3069 550.725 -8.87421 554.157 -8.87421 558.353C-8.87421 562.548 -12.3069 565.981 -16.5024 565.981C-33.3607 565.981 -47.0151 579.635 -47.0151 596.494C-47.0151 610.453 -37.6325 622.277 -24.7408 625.862C-23.5966 626.167 -22.4524 626.472 -21.3082 626.625C-19.7825 626.854 -18.1806 627.006 -16.5024 627.006C0.355885 627.006 14.0103 613.352 14.0103 596.494C14.0103 592.298 17.443 588.866 21.6385 588.866C25.834 588.866 29.2667 592.298 29.2667 596.494Z" fill="#909090"/>
<path d="M59.7785 596.495C59.7785 638.526 25.5279 672.777 -16.5033 672.777C-36.1078 672.777 -54.034 665.377 -67.5359 653.172C-70.0532 650.884 -72.4179 648.443 -74.5538 645.849C-85.9198 632.5 -92.7852 615.26 -92.7852 596.495C-92.7852 554.463 -58.5346 520.213 -16.5033 520.213C-12.3078 520.213 -8.87516 523.646 -8.87516 527.841C-8.87516 532.037 -12.3078 535.469 -16.5033 535.469C-50.1436 535.469 -77.5288 562.854 -77.5288 596.495C-77.5288 614.268 -69.9006 630.288 -57.6955 641.425C-55.5596 643.407 -53.2712 645.163 -50.8302 646.841C-41.0661 653.554 -29.2424 657.52 -16.5033 657.52C17.1369 657.52 44.5221 630.135 44.5221 596.495C44.5221 592.299 47.9548 588.867 52.1503 588.867C56.3458 588.867 59.7785 592.299 59.7785 596.495Z" fill="white"/>
<path d="M59.7767 543.097C59.7767 547.293 56.344 550.726 52.1485 550.726H40.0197L18.966 571.856L-11.0891 601.911C-12.6147 603.36 -14.5218 604.123 -16.5051 604.123C-18.4884 604.123 -20.3955 603.36 -21.9211 601.911C-24.8961 598.936 -24.8961 594.054 -21.9211 591.079L-12.6147 581.772L27.2807 541.953L27.9672 541.267L29.264 539.97V527.841C29.264 526.392 29.6454 525.019 30.4082 523.874C30.9414 522.959 31.705 522.12 32.6204 521.51C33.8409 520.671 35.2903 520.213 36.8922 520.213C41.0877 520.213 44.5204 523.646 44.5204 527.841V535.469H52.1485C56.344 535.469 59.7767 538.902 59.7767 543.097Z" fill="white"/>
<path opacity="0.15" d="M-35.576 638.069C-37.483 637.154 -39.39 636.162 -41.1445 635.018C-35.1946 632.195 -29.7785 629.144 -24.7439 625.864C-23.5997 626.169 -22.4555 626.474 -21.3113 626.627C-19.7856 626.856 -18.1837 627.008 -16.5055 627.008C0.352772 627.008 14.0072 613.354 14.0072 596.495C14.0072 592.3 17.4399 588.867 21.6354 588.867C25.8309 588.867 29.2636 592.3 29.2636 596.495C29.2636 621.745 8.74377 642.264 -16.5055 642.264C-23.2946 642.264 -29.7785 640.815 -35.576 638.069Z" fill="white"/>
<path opacity="0.15" d="M59.7776 596.495C59.7776 638.526 25.527 672.777 -16.5042 672.777C-36.1087 672.777 -54.0349 665.377 -67.5368 653.172C-70.0541 650.884 -72.4188 648.443 -74.5547 645.849C-68.6047 644.629 -62.9599 643.103 -57.6964 641.425C-55.5605 643.407 -53.2721 645.163 -50.831 646.841C-41.067 653.554 -29.2433 657.52 -16.5042 657.52C17.136 657.52 44.5212 630.135 44.5212 596.495C44.5212 592.299 47.9539 588.867 52.1494 588.867C56.3449 588.867 59.7776 592.299 59.7776 596.495ZM59.7776 543.097C59.7776 547.293 56.3449 550.726 52.1494 550.726H40.0206L18.9668 571.856C23.1623 561.634 26.061 551.26 27.9681 541.267L29.2649 539.97V533.486C29.7988 530.206 30.1802 527.002 30.4091 523.874C30.9423 522.959 31.7059 522.12 32.6213 521.51C33.8418 520.671 35.2911 520.213 36.893 520.213C41.0885 520.213 44.5212 523.646 44.5212 527.841V535.469H52.1494C56.3449 535.469 59.7776 538.902 59.7776 543.097Z" fill="white"/>
<path d="M240.267 76.7242C240.267 101.973 219.747 122.493 194.498 122.493C187.709 122.493 181.225 121.044 175.427 118.298C173.52 117.382 171.613 116.391 169.859 115.246C157.196 107.161 148.729 92.8959 148.729 76.7242C148.729 51.4749 169.248 30.9551 194.498 30.9551C198.693 30.9551 202.126 34.3878 202.126 38.5833C202.126 42.7788 198.693 46.2114 194.498 46.2114C177.639 46.2114 163.985 59.8659 163.985 76.7242C163.985 90.6837 173.368 102.507 186.259 106.093C187.403 106.398 188.548 106.703 189.692 106.855C191.217 107.084 192.819 107.237 194.498 107.237C211.356 107.237 225.01 93.5824 225.01 76.7242C225.01 72.5287 228.443 69.096 232.639 69.096C236.834 69.096 240.267 72.5287 240.267 76.7242Z" fill="#909090"/>
<path d="M270.778 76.7252C270.778 118.756 236.528 153.007 194.497 153.007C174.892 153.007 156.966 145.608 143.464 133.403C140.947 131.114 138.582 128.673 136.446 126.08C125.08 112.73 118.215 95.4905 118.215 76.7252C118.215 34.6939 152.465 0.443359 194.497 0.443359C198.692 0.443359 202.125 3.87604 202.125 8.07154C202.125 12.267 198.692 15.6997 194.497 15.6997C160.856 15.6997 133.471 43.0849 133.471 76.7252C133.471 94.4988 141.099 110.518 153.304 121.655C155.44 123.638 157.729 125.393 160.17 127.071C169.934 133.784 181.758 137.751 194.497 137.751C228.137 137.751 255.522 110.365 255.522 76.7252C255.522 72.5297 258.955 69.097 263.15 69.097C267.346 69.097 270.778 72.5297 270.778 76.7252Z" fill="white"/>
<path d="M209.217 72.8347C207.844 67.5713 203.648 63.3758 198.385 62.0027C197.165 61.6213 195.868 61.4688 194.495 61.4688C186.104 61.4688 179.238 68.3341 179.238 76.7251C179.238 85.1161 186.104 91.9815 194.495 91.9815C202.886 91.9815 209.751 85.1161 209.751 76.7251C209.751 75.352 209.598 74.0552 209.217 72.8347Z" fill="#A7A5A5"/>
<path d="M270.777 23.3279C270.777 27.5234 267.344 30.9561 263.149 30.9561H251.02L229.966 52.0862L199.911 82.1412C198.385 83.5905 196.478 84.3534 194.495 84.3534C192.512 84.3534 190.605 83.5905 189.079 82.1412C186.104 79.1662 186.104 74.2842 189.079 71.3092L198.385 62.0028L238.281 22.1837L238.967 21.4971L240.264 20.2004V8.07154C240.264 6.62219 240.645 5.24911 241.408 4.10489C241.941 3.18951 242.705 2.35041 243.62 1.74015C244.841 0.901051 246.29 0.443359 247.892 0.443359C252.088 0.443359 255.52 3.87604 255.52 8.07154V15.6997H263.149C267.344 15.6997 270.777 19.1324 270.777 23.3279Z" fill="white"/>
<path opacity="0.15" d="M175.424 118.299C173.517 117.384 171.61 116.392 169.855 115.248C175.805 112.426 181.221 109.374 186.256 106.094C187.4 106.399 188.545 106.705 189.689 106.857C191.214 107.086 192.816 107.239 194.494 107.239C211.353 107.239 225.007 93.5841 225.007 76.7258C225.007 72.5303 228.44 69.0977 232.635 69.0977C236.831 69.0977 240.264 72.5303 240.264 76.7258C240.264 101.975 219.744 122.495 194.494 122.495C187.705 122.495 181.221 121.046 175.424 118.299Z" fill="white"/>
<path opacity="0.15" d="M270.778 76.7252C270.778 118.756 236.527 153.007 194.496 153.007C174.891 153.007 156.965 145.608 143.463 133.403C140.946 131.114 138.581 128.673 136.445 126.08C142.395 124.859 148.04 123.333 153.304 121.655C155.439 123.638 157.728 125.393 160.169 127.071C169.933 133.784 181.757 137.751 194.496 137.751C228.136 137.751 255.521 110.365 255.521 76.7252C255.521 72.5297 258.954 69.097 263.149 69.097C267.345 69.097 270.778 72.5297 270.778 76.7252ZM270.778 23.3279C270.778 27.5234 267.345 30.9561 263.149 30.9561H251.021L229.967 52.0862C234.162 41.8644 237.061 31.4901 238.968 21.4979L240.265 20.2003V13.7164C240.799 10.4363 241.18 7.23244 241.409 4.10489C241.942 3.1895 242.706 2.35041 243.621 1.74015C244.842 0.901051 246.291 0.443359 247.893 0.443359C252.089 0.443359 255.521 3.87604 255.521 8.07154V15.6997H263.149C267.345 15.6997 270.778 19.1324 270.778 23.3279Z" fill="white"/>
<path d="M240.267 298.494C240.267 323.743 219.747 344.263 194.498 344.263C187.709 344.263 181.225 342.813 175.427 340.067C173.52 339.152 171.613 338.16 169.859 337.016C157.196 328.93 148.729 314.665 148.729 298.494C148.729 273.244 169.248 252.725 194.498 252.725C198.693 252.725 202.126 256.157 202.126 260.353C202.126 264.548 198.693 267.981 194.498 267.981C177.639 267.981 163.985 281.635 163.985 298.494C163.985 312.453 173.368 324.277 186.259 327.862C187.403 328.167 188.548 328.472 189.692 328.625C191.217 328.854 192.819 329.006 194.498 329.006C211.356 329.006 225.01 315.352 225.01 298.494C225.01 294.298 228.443 290.866 232.639 290.866C236.834 290.866 240.267 294.298 240.267 298.494Z" fill="#909090"/>
<path d="M270.778 298.495C270.778 340.526 236.528 374.777 194.497 374.777C174.892 374.777 156.966 367.377 143.464 355.172C140.947 352.884 138.582 350.443 136.446 347.849C125.08 334.5 118.215 317.26 118.215 298.495C118.215 256.463 152.465 222.213 194.497 222.213C198.692 222.213 202.125 225.646 202.125 229.841C202.125 234.037 198.692 237.469 194.497 237.469C160.856 237.469 133.471 264.854 133.471 298.495C133.471 316.268 141.099 332.288 153.304 343.425C155.44 345.407 157.729 347.163 160.17 348.841C169.934 355.554 181.758 359.52 194.497 359.52C228.137 359.52 255.522 332.135 255.522 298.495C255.522 294.299 258.955 290.867 263.15 290.867C267.346 290.867 270.778 294.299 270.778 298.495Z" fill="white"/>
<path d="M209.217 294.604C207.844 289.341 203.648 285.145 198.385 283.772C197.165 283.391 195.868 283.238 194.495 283.238C186.104 283.238 179.238 290.104 179.238 298.495C179.238 306.886 186.104 313.751 194.495 313.751C202.886 313.751 209.751 306.886 209.751 298.495C209.751 297.122 209.598 295.825 209.217 294.604Z" fill="#A7A5A5"/>
<path d="M270.777 245.097C270.777 249.293 267.344 252.726 263.149 252.726H251.02L229.966 273.856L199.911 303.911C198.385 305.36 196.478 306.123 194.495 306.123C192.512 306.123 190.605 305.36 189.079 303.911C186.104 300.936 186.104 296.054 189.079 293.079L198.385 283.772L238.281 243.953L238.967 243.267L240.264 241.97V229.841C240.264 228.392 240.645 227.019 241.408 225.874C241.941 224.959 242.705 224.12 243.62 223.51C244.841 222.671 246.29 222.213 247.892 222.213C252.088 222.213 255.52 225.646 255.52 229.841V237.469H263.149C267.344 237.469 270.777 240.902 270.777 245.097Z" fill="white"/>
<path opacity="0.15" d="M175.424 340.069C173.517 339.154 171.61 338.162 169.855 337.018C175.805 334.195 181.221 331.144 186.256 327.864C187.4 328.169 188.545 328.474 189.689 328.627C191.214 328.856 192.816 329.008 194.494 329.008C211.353 329.008 225.007 315.354 225.007 298.495C225.007 294.3 228.44 290.867 232.635 290.867C236.831 290.867 240.264 294.3 240.264 298.495C240.264 323.745 219.744 344.264 194.494 344.264C187.705 344.264 181.221 342.815 175.424 340.069Z" fill="white"/>
<path opacity="0.15" d="M270.778 298.495C270.778 340.526 236.527 374.777 194.496 374.777C174.891 374.777 156.965 367.377 143.463 355.172C140.946 352.884 138.581 350.443 136.445 347.849C142.395 346.629 148.04 345.103 153.304 343.425C155.439 345.407 157.728 347.163 160.169 348.841C169.933 355.554 181.757 359.52 194.496 359.52C228.136 359.52 255.521 332.135 255.521 298.495C255.521 294.299 258.954 290.867 263.149 290.867C267.345 290.867 270.778 294.299 270.778 298.495ZM270.778 245.097C270.778 249.293 267.345 252.726 263.149 252.726H251.021L229.967 273.856C234.162 263.634 237.061 253.26 238.968 243.267L240.265 241.97V235.486C240.799 232.206 241.18 229.002 241.409 225.874C241.942 224.959 242.706 224.12 243.621 223.51C244.842 222.671 246.291 222.213 247.893 222.213C252.089 222.213 255.521 225.646 255.521 229.841V237.469H263.149C267.345 237.469 270.778 240.902 270.778 245.097Z" fill="white"/>
<path d="M240.269 520.263C240.269 545.513 219.749 566.032 194.5 566.032C187.71 566.032 181.227 564.583 175.429 561.837C173.522 560.921 171.615 559.93 169.861 558.786C157.198 550.7 148.73 536.435 148.73 520.263C148.73 495.014 169.25 474.494 194.5 474.494C198.695 474.494 202.128 477.927 202.128 482.122C202.128 486.318 198.695 489.751 194.5 489.751C177.641 489.751 163.987 503.405 163.987 520.263C163.987 534.223 173.369 546.046 186.261 549.632C187.405 549.937 188.55 550.242 189.694 550.395C191.219 550.623 192.821 550.776 194.5 550.776C211.358 550.776 225.012 537.122 225.012 520.263C225.012 516.068 228.445 512.635 232.64 512.635C236.836 512.635 240.269 516.068 240.269 520.263Z" fill="#909090"/>
<path d="M270.78 520.264C270.78 562.296 236.53 596.546 194.499 596.546C174.894 596.546 156.968 589.147 143.466 576.942C140.949 574.653 138.584 572.212 136.448 569.619C125.082 556.269 118.217 539.03 118.217 520.264C118.217 478.233 152.467 443.982 194.499 443.982C198.694 443.982 202.127 447.415 202.127 451.611C202.127 455.806 198.694 459.239 194.499 459.239C160.858 459.239 133.473 486.624 133.473 520.264C133.473 538.038 141.101 554.057 153.306 565.194C155.442 567.177 157.731 568.932 160.172 570.61C169.936 577.323 181.76 581.29 194.499 581.29C228.139 581.29 255.524 553.905 255.524 520.264C255.524 516.069 258.957 512.636 263.152 512.636C267.348 512.636 270.78 516.069 270.78 520.264Z" fill="white"/>
<path d="M209.221 516.374C207.848 511.11 203.652 506.915 198.389 505.542C197.168 505.16 195.872 505.008 194.499 505.008C186.108 505.008 179.242 511.873 179.242 520.264C179.242 528.655 186.108 535.521 194.499 535.521C202.89 535.521 209.755 528.655 209.755 520.264C209.755 518.891 209.602 517.594 209.221 516.374Z" fill="#A7A5A5"/>
<path d="M270.779 466.867C270.779 471.062 267.346 474.495 263.15 474.495H251.022L229.968 495.625L199.913 525.68C198.387 527.13 196.48 527.892 194.497 527.892C192.514 527.892 190.606 527.13 189.081 525.68C186.106 522.705 186.106 517.823 189.081 514.848L198.387 505.542L238.283 465.723L238.969 465.036L240.266 463.739V451.611C240.266 450.161 240.647 448.788 241.41 447.644C241.943 446.729 242.707 445.889 243.622 445.279C244.843 444.44 246.292 443.982 247.894 443.982C252.09 443.982 255.522 447.415 255.522 451.611V459.239H263.15C267.346 459.239 270.779 462.671 270.779 466.867Z" fill="white"/>
<path opacity="0.15" d="M175.426 561.838C173.519 560.923 171.612 559.931 169.857 558.787C175.807 555.965 181.223 552.914 186.258 549.633C187.402 549.939 188.546 550.244 189.691 550.396C191.216 550.625 192.818 550.778 194.496 550.778C211.355 550.778 225.009 537.123 225.009 520.265C225.009 516.069 228.442 512.637 232.637 512.637C236.833 512.637 240.266 516.069 240.266 520.265C240.266 545.514 219.746 566.034 194.496 566.034C187.707 566.034 181.223 564.585 175.426 561.838Z" fill="white"/>
<path opacity="0.15" d="M270.781 520.264C270.781 562.296 236.531 596.546 194.5 596.546C174.895 596.546 156.969 589.147 143.467 576.942C140.95 574.653 138.585 572.212 136.449 569.619C142.399 568.398 148.044 566.872 153.307 565.194C155.443 567.177 157.732 568.932 160.173 570.61C169.937 577.323 181.761 581.29 194.5 581.29C228.14 581.29 255.525 553.905 255.525 520.264C255.525 516.069 258.958 512.636 263.153 512.636C267.349 512.636 270.781 516.069 270.781 520.264ZM270.781 466.867C270.781 471.062 267.349 474.495 263.153 474.495H251.024L229.971 495.625C234.166 485.403 237.065 475.029 238.972 465.037L240.269 463.739V457.255C240.803 453.975 241.184 450.772 241.413 447.644C241.946 446.729 242.71 445.889 243.625 445.279C244.846 444.44 246.295 443.982 247.897 443.982C252.092 443.982 255.525 447.415 255.525 451.611V459.239H263.153C267.349 459.239 270.781 462.671 270.781 466.867Z" fill="white"/>
<path d="M480.778 -68.8119C480.778 -26.7807 446.528 7.46988 404.497 7.46988C384.892 7.46988 366.966 0.0705414 353.464 -12.1346C350.947 -14.423 348.582 -16.864 346.446 -19.4576C335.08 -32.8069 328.215 -50.0466 328.215 -68.8119C328.215 -110.843 362.465 -145.094 404.497 -145.094C408.692 -145.094 412.125 -141.661 412.125 -137.466C412.125 -133.27 408.692 -129.837 404.497 -129.837C370.856 -129.837 343.471 -102.452 343.471 -68.8119C343.471 -51.0383 351.099 -35.0191 363.304 -23.882C365.44 -21.8994 367.729 -20.1441 370.17 -18.4659C379.934 -11.7531 391.758 -7.78648 404.497 -7.78648C438.137 -7.78648 465.522 -35.1717 465.522 -68.8119C465.522 -73.0074 468.955 -76.4401 473.15 -76.4401C477.346 -76.4401 480.778 -73.0074 480.778 -68.8119Z" fill="white"/>
<path opacity="0.15" d="M480.778 -68.8119C480.778 -26.7807 446.527 7.46988 404.496 7.46988C384.891 7.46988 366.965 0.0705414 353.463 -12.1346C350.946 -14.423 348.581 -16.864 346.445 -19.4576C352.395 -20.6781 358.04 -22.2038 363.304 -23.882C365.439 -21.8994 367.728 -20.1441 370.169 -18.4659C379.933 -11.7531 391.757 -7.78648 404.496 -7.78648C438.136 -7.78648 465.521 -35.1717 465.521 -68.8119C465.521 -73.0074 468.954 -76.4401 473.149 -76.4401C477.345 -76.4401 480.778 -73.0074 480.778 -68.8119ZM480.778 -122.209C480.778 -118.014 477.345 -114.581 473.149 -114.581H461.021L439.967 -93.451C444.162 -103.673 447.061 -114.047 448.968 -124.039L450.265 -125.337V-131.821C450.799 -135.101 451.18 -138.305 451.409 -141.432C451.942 -142.348 452.706 -143.187 453.621 -143.797C454.842 -144.636 456.291 -145.094 457.893 -145.094C462.089 -145.094 465.521 -141.661 465.521 -137.466V-129.837H473.149C477.345 -129.837 480.778 -126.405 480.778 -122.209Z" fill="white"/>
<path d="M450.267 152.957C450.267 178.206 429.747 198.726 404.498 198.726C397.709 198.726 391.225 197.276 385.427 194.53C383.52 193.615 381.613 192.623 379.859 191.479C367.196 183.393 358.729 169.128 358.729 152.957C358.729 127.707 379.248 107.188 404.498 107.188C408.693 107.188 412.126 110.62 412.126 114.816C412.126 119.011 408.693 122.444 404.498 122.444C387.639 122.444 373.985 136.098 373.985 152.957C373.985 166.916 383.368 178.74 396.259 182.325C397.403 182.63 398.548 182.935 399.692 183.088C401.217 183.317 402.819 183.469 404.498 183.469C421.356 183.469 435.01 169.815 435.01 152.957C435.01 148.761 438.443 145.328 442.639 145.328C446.834 145.328 450.267 148.761 450.267 152.957Z" fill="#909090"/>
<path d="M480.778 152.958C480.778 194.989 446.528 229.239 404.497 229.239C384.892 229.239 366.966 221.84 353.464 209.635C350.947 207.347 348.582 204.906 346.446 202.312C335.08 188.963 328.215 171.723 328.215 152.958C328.215 110.926 362.465 76.6758 404.497 76.6758C408.692 76.6758 412.125 80.1085 412.125 84.304C412.125 88.4995 408.692 91.9321 404.497 91.9321C370.856 91.9321 343.471 119.317 343.471 152.958C343.471 170.731 351.099 186.75 363.304 197.888C365.44 199.87 367.729 201.625 370.17 203.304C379.934 210.016 391.758 213.983 404.497 213.983C438.137 213.983 465.522 186.598 465.522 152.958C465.522 148.762 468.955 145.329 473.15 145.329C477.346 145.329 480.778 148.762 480.778 152.958Z" fill="white"/>
<path d="M419.217 149.067C417.844 143.804 413.648 139.608 408.385 138.235C407.165 137.854 405.868 137.701 404.495 137.701C396.104 137.701 389.238 144.567 389.238 152.958C389.238 161.349 396.104 168.214 404.495 168.214C412.886 168.214 419.751 161.349 419.751 152.958C419.751 151.584 419.598 150.288 419.217 149.067Z" fill="#A7A5A5"/>
<path d="M480.777 99.5603C480.777 103.756 477.344 107.189 473.149 107.189H461.02L439.966 128.319L409.911 158.374C408.385 159.823 406.478 160.586 404.495 160.586C402.512 160.586 400.605 159.823 399.079 158.374C396.104 155.399 396.104 150.517 399.079 147.542L408.385 138.235L448.281 98.4161L448.967 97.7296L450.264 96.4328V84.304C450.264 82.8546 450.645 81.4815 451.408 80.3373C451.941 79.4219 452.705 78.5828 453.62 77.9726C454.841 77.1335 456.29 76.6758 457.892 76.6758C462.088 76.6758 465.52 80.1085 465.52 84.304V91.9321H473.149C477.344 91.9321 480.777 95.3648 480.777 99.5603Z" fill="white"/>
<path opacity="0.15" d="M385.424 194.532C383.517 193.616 381.61 192.625 379.855 191.481C385.805 188.658 391.221 185.607 396.256 182.327C397.4 182.632 398.545 182.937 399.689 183.09C401.214 183.318 402.816 183.471 404.494 183.471C421.353 183.471 435.007 169.817 435.007 152.958C435.007 148.763 438.44 145.33 442.635 145.33C446.831 145.33 450.264 148.763 450.264 152.958C450.264 178.208 429.744 198.727 404.494 198.727C397.705 198.727 391.221 197.278 385.424 194.532Z" fill="white"/>
<path opacity="0.15" d="M480.778 152.958C480.778 194.989 446.527 229.239 404.496 229.239C384.891 229.239 366.965 221.84 353.463 209.635C350.946 207.347 348.581 204.906 346.445 202.312C352.395 201.091 358.04 199.566 363.304 197.888C365.439 199.87 367.728 201.625 370.169 203.304C379.933 210.016 391.757 213.983 404.496 213.983C438.136 213.983 465.521 186.598 465.521 152.958C465.521 148.762 468.954 145.329 473.149 145.329C477.345 145.329 480.778 148.762 480.778 152.958ZM480.778 99.5603C480.778 103.756 477.345 107.189 473.149 107.189H461.021L439.967 128.319C444.162 118.097 447.061 107.722 448.968 97.7303L450.265 96.4328V89.9488C450.799 86.6687 451.18 83.4649 451.409 80.3373C451.942 79.4219 452.706 78.5828 453.621 77.9726C454.842 77.1335 456.291 76.6758 457.893 76.6758C462.089 76.6758 465.521 80.1085 465.521 84.304V91.9321H473.149C477.345 91.9321 480.778 95.3648 480.778 99.5603Z" fill="white"/>
<path d="M450.267 374.724C450.267 399.973 429.747 420.493 404.498 420.493C397.709 420.493 391.225 419.044 385.427 416.298C383.52 415.382 381.613 414.391 379.859 413.246C367.196 405.161 358.729 390.896 358.729 374.724C358.729 349.475 379.248 328.955 404.498 328.955C408.693 328.955 412.126 332.388 412.126 336.583C412.126 340.779 408.693 344.211 404.498 344.211C387.639 344.211 373.985 357.866 373.985 374.724C373.985 388.684 383.368 400.507 396.259 404.093C397.403 404.398 398.548 404.703 399.692 404.855C401.217 405.084 402.819 405.237 404.498 405.237C421.356 405.237 435.01 391.582 435.01 374.724C435.01 370.529 438.443 367.096 442.639 367.096C446.834 367.096 450.267 370.529 450.267 374.724Z" fill="#909090"/>
<path d="M480.778 374.725C480.778 416.756 446.528 451.007 404.497 451.007C384.892 451.007 366.966 443.608 353.464 431.403C350.947 429.114 348.582 426.673 346.446 424.08C335.08 410.73 328.215 393.491 328.215 374.725C328.215 332.694 362.465 298.443 404.497 298.443C408.692 298.443 412.125 301.876 412.125 306.072C412.125 310.267 408.692 313.7 404.497 313.7C370.856 313.7 343.471 341.085 343.471 374.725C343.471 392.499 351.099 408.518 363.304 419.655C365.44 421.638 367.729 423.393 370.17 425.071C379.934 431.784 391.758 435.751 404.497 435.751C438.137 435.751 465.522 408.365 465.522 374.725C465.522 370.53 468.955 367.097 473.15 367.097C477.346 367.097 480.778 370.53 480.778 374.725Z" fill="white"/>
<path d="M419.217 370.835C417.844 365.571 413.648 361.376 408.385 360.003C407.165 359.621 405.868 359.469 404.495 359.469C396.104 359.469 389.238 366.334 389.238 374.725C389.238 383.116 396.104 389.981 404.495 389.981C412.886 389.981 419.751 383.116 419.751 374.725C419.751 373.352 419.598 372.055 419.217 370.835Z" fill="#A7A5A5"/>
<path d="M480.777 321.328C480.777 325.523 477.344 328.956 473.149 328.956H461.02L439.966 350.086L409.911 380.141C408.385 381.591 406.478 382.353 404.495 382.353C402.512 382.353 400.605 381.591 399.079 380.141C396.104 377.166 396.104 372.284 399.079 369.309L408.385 360.003L448.281 320.184L448.967 319.497L450.264 318.2V306.072C450.264 304.622 450.645 303.249 451.408 302.105C451.941 301.19 452.705 300.35 453.62 299.74C454.841 298.901 456.29 298.443 457.892 298.443C462.088 298.443 465.52 301.876 465.52 306.072V313.7H473.149C477.344 313.7 480.777 317.132 480.777 321.328Z" fill="white"/>
<path opacity="0.15" d="M385.424 416.299C383.517 415.384 381.61 414.392 379.855 413.248C385.805 410.426 391.221 407.374 396.256 404.094C397.4 404.399 398.545 404.705 399.689 404.857C401.214 405.086 402.816 405.239 404.494 405.239C421.353 405.239 435.007 391.584 435.007 374.726C435.007 370.53 438.44 367.098 442.635 367.098C446.831 367.098 450.264 370.53 450.264 374.726C450.264 399.975 429.744 420.495 404.494 420.495C397.705 420.495 391.221 419.046 385.424 416.299Z" fill="white"/>
<path opacity="0.15" d="M480.778 374.725C480.778 416.756 446.527 451.007 404.496 451.007C384.891 451.007 366.965 443.608 353.463 431.403C350.946 429.114 348.581 426.673 346.445 424.08C352.395 422.859 358.04 421.333 363.304 419.655C365.439 421.638 367.728 423.393 370.169 425.071C379.933 431.784 391.757 435.751 404.496 435.751C438.136 435.751 465.521 408.365 465.521 374.725C465.521 370.53 468.954 367.097 473.149 367.097C477.345 367.097 480.778 370.53 480.778 374.725ZM480.778 321.328C480.778 325.523 477.345 328.956 473.149 328.956H461.021L439.967 350.086C444.162 339.864 447.061 329.49 448.968 319.498L450.265 318.2V311.716C450.799 308.436 451.18 305.232 451.409 302.105C451.942 301.19 452.706 300.35 453.621 299.74C454.842 298.901 456.291 298.443 457.893 298.443C462.089 298.443 465.521 301.876 465.521 306.072V313.7H473.149C477.345 313.7 480.778 317.132 480.778 321.328Z" fill="white"/>
<path d="M450.267 596.494C450.267 621.743 429.747 642.263 404.498 642.263C397.709 642.263 391.225 640.813 385.427 638.067C383.52 637.152 381.613 636.16 379.859 635.016C367.196 626.93 358.729 612.665 358.729 596.494C358.729 571.244 379.248 550.725 404.498 550.725C408.693 550.725 412.126 554.157 412.126 558.353C412.126 562.548 408.693 565.981 404.498 565.981C387.639 565.981 373.985 579.635 373.985 596.494C373.985 610.453 383.368 622.277 396.259 625.862C397.403 626.167 398.548 626.472 399.692 626.625C401.217 626.854 402.819 627.006 404.498 627.006C421.356 627.006 435.01 613.352 435.01 596.494C435.01 592.298 438.443 588.866 442.639 588.866C446.834 588.866 450.267 592.298 450.267 596.494Z" fill="#909090"/>
<path d="M480.778 596.495C480.778 638.526 446.528 672.777 404.497 672.777C384.892 672.777 366.966 665.377 353.464 653.172C350.947 650.884 348.582 648.443 346.446 645.849C335.08 632.5 328.215 615.26 328.215 596.495C328.215 554.463 362.465 520.213 404.497 520.213C408.692 520.213 412.125 523.646 412.125 527.841C412.125 532.037 408.692 535.469 404.497 535.469C370.856 535.469 343.471 562.854 343.471 596.495C343.471 614.268 351.099 630.288 363.304 641.425C365.44 643.407 367.729 645.163 370.17 646.841C379.934 653.554 391.758 657.52 404.497 657.52C438.137 657.52 465.522 630.135 465.522 596.495C465.522 592.299 468.955 588.867 473.15 588.867C477.346 588.867 480.778 592.299 480.778 596.495Z" fill="white"/>
<path d="M419.217 592.604C417.844 587.341 413.648 583.145 408.385 581.772C407.165 581.391 405.868 581.238 404.495 581.238C396.104 581.238 389.238 588.104 389.238 596.495C389.238 604.886 396.104 611.751 404.495 611.751C412.886 611.751 419.751 604.886 419.751 596.495C419.751 595.122 419.598 593.825 419.217 592.604Z" fill="#A7A5A5"/>
<path d="M480.777 543.097C480.777 547.293 477.344 550.726 473.149 550.726H461.02L439.966 571.856L409.911 601.911C408.385 603.36 406.478 604.123 404.495 604.123C402.512 604.123 400.605 603.36 399.079 601.911C396.104 598.936 396.104 594.054 399.079 591.079L408.385 581.772L448.281 541.953L448.967 541.267L450.264 539.97V527.841C450.264 526.392 450.645 525.019 451.408 523.874C451.941 522.959 452.705 522.12 453.62 521.51C454.841 520.671 456.29 520.213 457.892 520.213C462.088 520.213 465.52 523.646 465.52 527.841V535.469H473.149C477.344 535.469 480.777 538.902 480.777 543.097Z" fill="white"/>
<path opacity="0.15" d="M385.424 638.069C383.517 637.154 381.61 636.162 379.855 635.018C385.805 632.195 391.221 629.144 396.256 625.864C397.4 626.169 398.545 626.474 399.689 626.627C401.214 626.856 402.816 627.008 404.494 627.008C421.353 627.008 435.007 613.354 435.007 596.495C435.007 592.3 438.44 588.867 442.635 588.867C446.831 588.867 450.264 592.3 450.264 596.495C450.264 621.745 429.744 642.264 404.494 642.264C397.705 642.264 391.221 640.815 385.424 638.069Z" fill="white"/>
<path opacity="0.15" d="M480.778 596.495C480.778 638.526 446.527 672.777 404.496 672.777C384.891 672.777 366.965 665.377 353.463 653.172C350.946 650.884 348.581 648.443 346.445 645.849C352.395 644.629 358.04 643.103 363.304 641.425C365.439 643.407 367.728 645.163 370.169 646.841C379.933 653.554 391.757 657.52 404.496 657.52C438.136 657.52 465.521 630.135 465.521 596.495C465.521 592.299 468.954 588.867 473.149 588.867C477.345 588.867 480.778 592.299 480.778 596.495ZM480.778 543.097C480.778 547.293 477.345 550.726 473.149 550.726H461.021L439.967 571.856C444.162 561.634 447.061 551.26 448.968 541.267L450.265 539.97V533.486C450.799 530.206 451.18 527.002 451.409 523.874C451.942 522.959 452.706 522.12 453.621 521.51C454.842 520.671 456.291 520.213 457.893 520.213C462.089 520.213 465.521 523.646 465.521 527.841V535.469H473.149C477.345 535.469 480.778 538.902 480.778 543.097Z" fill="white"/>
<path d="M660.267 76.7242C660.267 101.973 639.747 122.493 614.498 122.493C607.709 122.493 601.225 121.044 595.427 118.298C593.52 117.382 591.613 116.391 589.859 115.246C577.196 107.161 568.729 92.8959 568.729 76.7242C568.729 51.4749 589.248 30.9551 614.498 30.9551C618.693 30.9551 622.126 34.3878 622.126 38.5833C622.126 42.7788 618.693 46.2114 614.498 46.2114C597.639 46.2114 583.985 59.8659 583.985 76.7242C583.985 90.6837 593.368 102.507 606.259 106.093C607.403 106.398 608.548 106.703 609.692 106.855C611.217 107.084 612.819 107.237 614.498 107.237C631.356 107.237 645.01 93.5824 645.01 76.7242C645.01 72.5287 648.443 69.096 652.639 69.096C656.834 69.096 660.267 72.5287 660.267 76.7242Z" fill="#909090"/>
<path d="M690.778 76.7252C690.778 118.756 656.528 153.007 614.497 153.007C594.892 153.007 576.966 145.608 563.464 133.403C560.947 131.114 558.582 128.673 556.446 126.08C545.08 112.73 538.215 95.4905 538.215 76.7252C538.215 34.6939 572.465 0.443359 614.497 0.443359C618.692 0.443359 622.125 3.87604 622.125 8.07154C622.125 12.267 618.692 15.6997 614.497 15.6997C580.856 15.6997 553.471 43.0849 553.471 76.7252C553.471 94.4988 561.099 110.518 573.304 121.655C575.44 123.638 577.729 125.393 580.17 127.071C589.934 133.784 601.758 137.751 614.497 137.751C648.137 137.751 675.522 110.365 675.522 76.7252C675.522 72.5297 678.955 69.097 683.15 69.097C687.346 69.097 690.778 72.5297 690.778 76.7252Z" fill="white"/>
<path d="M629.217 72.8347C627.844 67.5713 623.648 63.3758 618.385 62.0027C617.165 61.6213 615.868 61.4688 614.495 61.4688C606.104 61.4688 599.238 68.3341 599.238 76.7251C599.238 85.1161 606.104 91.9815 614.495 91.9815C622.886 91.9815 629.751 85.1161 629.751 76.7251C629.751 75.352 629.598 74.0552 629.217 72.8347Z" fill="#A7A5A5"/>
<path d="M690.777 23.3279C690.777 27.5234 687.344 30.9561 683.149 30.9561H671.02L649.966 52.0862L619.911 82.1412C618.385 83.5905 616.478 84.3534 614.495 84.3534C612.512 84.3534 610.605 83.5905 609.079 82.1412C606.104 79.1662 606.104 74.2842 609.079 71.3092L618.385 62.0028L658.281 22.1837L658.967 21.4971L660.264 20.2004V8.07154C660.264 6.62219 660.645 5.24911 661.408 4.10489C661.941 3.18951 662.705 2.35041 663.62 1.74015C664.841 0.901051 666.29 0.443359 667.892 0.443359C672.088 0.443359 675.52 3.87604 675.52 8.07154V15.6997H683.149C687.344 15.6997 690.777 19.1324 690.777 23.3279Z" fill="white"/>
<path opacity="0.15" d="M595.424 118.299C593.517 117.384 591.61 116.392 589.855 115.248C595.805 112.426 601.221 109.374 606.256 106.094C607.4 106.399 608.545 106.705 609.689 106.857C611.214 107.086 612.816 107.239 614.494 107.239C631.353 107.239 645.007 93.5841 645.007 76.7258C645.007 72.5303 648.44 69.0977 652.635 69.0977C656.831 69.0977 660.264 72.5303 660.264 76.7258C660.264 101.975 639.744 122.495 614.494 122.495C607.705 122.495 601.221 121.046 595.424 118.299Z" fill="white"/>
<path opacity="0.15" d="M690.778 76.7252C690.778 118.756 656.527 153.007 614.496 153.007C594.891 153.007 576.965 145.608 563.463 133.403C560.946 131.114 558.581 128.673 556.445 126.08C562.395 124.859 568.04 123.333 573.304 121.655C575.439 123.638 577.728 125.393 580.169 127.071C589.933 133.784 601.757 137.751 614.496 137.751C648.136 137.751 675.521 110.365 675.521 76.7252C675.521 72.5297 678.954 69.097 683.149 69.097C687.345 69.097 690.778 72.5297 690.778 76.7252ZM690.778 23.3279C690.778 27.5234 687.345 30.9561 683.149 30.9561H671.021L649.967 52.0862C654.162 41.8644 657.061 31.4901 658.968 21.4979L660.265 20.2003V13.7164C660.799 10.4363 661.18 7.23244 661.409 4.10489C661.942 3.1895 662.706 2.35041 663.621 1.74015C664.842 0.901051 666.291 0.443359 667.893 0.443359C672.089 0.443359 675.521 3.87604 675.521 8.07154V15.6997H683.149C687.345 15.6997 690.778 19.1324 690.778 23.3279Z" fill="white"/>
<path d="M660.267 298.494C660.267 323.743 639.747 344.263 614.498 344.263C607.709 344.263 601.225 342.813 595.427 340.067C593.52 339.152 591.613 338.16 589.859 337.016C577.196 328.93 568.729 314.665 568.729 298.494C568.729 273.244 589.248 252.725 614.498 252.725C618.693 252.725 622.126 256.157 622.126 260.353C622.126 264.548 618.693 267.981 614.498 267.981C597.639 267.981 583.985 281.635 583.985 298.494C583.985 312.453 593.368 324.277 606.259 327.862C607.403 328.167 608.548 328.472 609.692 328.625C611.217 328.854 612.819 329.006 614.498 329.006C631.356 329.006 645.01 315.352 645.01 298.494C645.01 294.298 648.443 290.866 652.639 290.866C656.834 290.866 660.267 294.298 660.267 298.494Z" fill="#909090"/>
<path d="M690.778 298.495C690.778 340.526 656.528 374.777 614.497 374.777C594.892 374.777 576.966 367.377 563.464 355.172C560.947 352.884 558.582 350.443 556.446 347.849C545.08 334.5 538.215 317.26 538.215 298.495C538.215 256.463 572.465 222.213 614.497 222.213C618.692 222.213 622.125 225.646 622.125 229.841C622.125 234.037 618.692 237.469 614.497 237.469C580.856 237.469 553.471 264.854 553.471 298.495C553.471 316.268 561.099 332.288 573.304 343.425C575.44 345.407 577.729 347.163 580.17 348.841C589.934 355.554 601.758 359.52 614.497 359.52C648.137 359.52 675.522 332.135 675.522 298.495C675.522 294.299 678.955 290.867 683.15 290.867C687.346 290.867 690.778 294.299 690.778 298.495Z" fill="white"/>
<path d="M629.217 294.604C627.844 289.341 623.648 285.145 618.385 283.772C617.165 283.391 615.868 283.238 614.495 283.238C606.104 283.238 599.238 290.104 599.238 298.495C599.238 306.886 606.104 313.751 614.495 313.751C622.886 313.751 629.751 306.886 629.751 298.495C629.751 297.122 629.598 295.825 629.217 294.604Z" fill="#A7A5A5"/>
<path d="M690.777 245.097C690.777 249.293 687.344 252.726 683.149 252.726H671.02L649.966 273.856L619.911 303.911C618.385 305.36 616.478 306.123 614.495 306.123C612.512 306.123 610.605 305.36 609.079 303.911C606.104 300.936 606.104 296.054 609.079 293.079L618.385 283.772L658.281 243.953L658.967 243.267L660.264 241.97V229.841C660.264 228.392 660.645 227.019 661.408 225.874C661.941 224.959 662.705 224.12 663.62 223.51C664.841 222.671 666.29 222.213 667.892 222.213C672.088 222.213 675.52 225.646 675.52 229.841V237.469H683.149C687.344 237.469 690.777 240.902 690.777 245.097Z" fill="white"/>
<path opacity="0.15" d="M595.424 340.069C593.517 339.154 591.61 338.162 589.855 337.018C595.805 334.195 601.221 331.144 606.256 327.864C607.4 328.169 608.545 328.474 609.689 328.627C611.214 328.856 612.816 329.008 614.494 329.008C631.353 329.008 645.007 315.354 645.007 298.495C645.007 294.3 648.44 290.867 652.635 290.867C656.831 290.867 660.264 294.3 660.264 298.495C660.264 323.745 639.744 344.264 614.494 344.264C607.705 344.264 601.221 342.815 595.424 340.069Z" fill="white"/>
<path opacity="0.15" d="M690.778 298.495C690.778 340.526 656.527 374.777 614.496 374.777C594.891 374.777 576.965 367.377 563.463 355.172C560.946 352.884 558.581 350.443 556.445 347.849C562.395 346.629 568.04 345.103 573.304 343.425C575.439 345.407 577.728 347.163 580.169 348.841C589.933 355.554 601.757 359.52 614.496 359.52C648.136 359.52 675.521 332.135 675.521 298.495C675.521 294.299 678.954 290.867 683.149 290.867C687.345 290.867 690.778 294.299 690.778 298.495ZM690.778 245.097C690.778 249.293 687.345 252.726 683.149 252.726H671.021L649.967 273.856C654.162 263.634 657.061 253.26 658.968 243.267L660.265 241.97V235.486C660.799 232.206 661.18 229.002 661.409 225.874C661.942 224.959 662.706 224.12 663.621 223.51C664.842 222.671 666.291 222.213 667.893 222.213C672.089 222.213 675.521 225.646 675.521 229.841V237.469H683.149C687.345 237.469 690.778 240.902 690.778 245.097Z" fill="white"/>
<path d="M660.269 520.263C660.269 545.513 639.749 566.032 614.5 566.032C607.71 566.032 601.227 564.583 595.429 561.837C593.522 560.921 591.615 559.93 589.861 558.786C577.198 550.7 568.73 536.435 568.73 520.263C568.73 495.014 589.25 474.494 614.5 474.494C618.695 474.494 622.128 477.927 622.128 482.122C622.128 486.318 618.695 489.751 614.5 489.751C597.641 489.751 583.987 503.405 583.987 520.263C583.987 534.223 593.369 546.046 606.261 549.632C607.405 549.937 608.55 550.242 609.694 550.395C611.219 550.623 612.821 550.776 614.5 550.776C631.358 550.776 645.012 537.122 645.012 520.263C645.012 516.068 648.445 512.635 652.64 512.635C656.836 512.635 660.269 516.068 660.269 520.263Z" fill="#909090"/>
<path d="M690.78 520.264C690.78 562.296 656.53 596.546 614.499 596.546C594.894 596.546 576.968 589.147 563.466 576.942C560.949 574.653 558.584 572.212 556.448 569.619C545.082 556.269 538.217 539.03 538.217 520.264C538.217 478.233 572.467 443.982 614.499 443.982C618.694 443.982 622.127 447.415 622.127 451.611C622.127 455.806 618.694 459.239 614.499 459.239C580.858 459.239 553.473 486.624 553.473 520.264C553.473 538.038 561.101 554.057 573.306 565.194C575.442 567.177 577.731 568.932 580.172 570.61C589.936 577.323 601.76 581.29 614.499 581.29C648.139 581.29 675.524 553.905 675.524 520.264C675.524 516.069 678.957 512.636 683.152 512.636C687.348 512.636 690.78 516.069 690.78 520.264Z" fill="white"/>
<path d="M629.221 516.374C627.848 511.11 623.652 506.915 618.389 505.542C617.168 505.16 615.872 505.008 614.499 505.008C606.108 505.008 599.242 511.873 599.242 520.264C599.242 528.655 606.108 535.521 614.499 535.521C622.89 535.521 629.755 528.655 629.755 520.264C629.755 518.891 629.602 517.594 629.221 516.374Z" fill="#A7A5A5"/>
<path d="M690.779 466.867C690.779 471.062 687.346 474.495 683.15 474.495H671.022L649.968 495.625L619.913 525.68C618.387 527.13 616.48 527.892 614.497 527.892C612.514 527.892 610.606 527.13 609.081 525.68C606.106 522.705 606.106 517.823 609.081 514.848L618.387 505.542L658.283 465.723L658.969 465.036L660.266 463.739V451.611C660.266 450.161 660.647 448.788 661.41 447.644C661.943 446.729 662.707 445.889 663.622 445.279C664.843 444.44 666.292 443.982 667.894 443.982C672.09 443.982 675.522 447.415 675.522 451.611V459.239H683.15C687.346 459.239 690.779 462.671 690.779 466.867Z" fill="white"/>
<path opacity="0.15" d="M595.426 561.838C593.519 560.923 591.612 559.931 589.857 558.787C595.807 555.965 601.223 552.914 606.258 549.633C607.402 549.939 608.546 550.244 609.691 550.396C611.216 550.625 612.818 550.778 614.496 550.778C631.355 550.778 645.009 537.123 645.009 520.265C645.009 516.069 648.442 512.637 652.637 512.637C656.833 512.637 660.266 516.069 660.266 520.265C660.266 545.514 639.746 566.034 614.496 566.034C607.707 566.034 601.223 564.585 595.426 561.838Z" fill="white"/>
<path opacity="0.15" d="M690.781 520.264C690.781 562.296 656.531 596.546 614.5 596.546C594.895 596.546 576.969 589.147 563.467 576.942C560.95 574.653 558.585 572.212 556.449 569.619C562.399 568.398 568.044 566.872 573.307 565.194C575.443 567.177 577.732 568.932 580.173 570.61C589.937 577.323 601.761 581.29 614.5 581.29C648.14 581.29 675.525 553.905 675.525 520.264C675.525 516.069 678.958 512.636 683.153 512.636C687.349 512.636 690.781 516.069 690.781 520.264ZM690.781 466.867C690.781 471.062 687.349 474.495 683.153 474.495H671.024L649.971 495.625C654.166 485.403 657.065 475.029 658.972 465.037L660.269 463.739V457.255C660.803 453.975 661.184 450.772 661.413 447.644C661.946 446.729 662.71 445.889 663.625 445.279C664.846 444.44 666.295 443.982 667.897 443.982C672.092 443.982 675.525 447.415 675.525 451.611V459.239H683.153C687.349 459.239 690.781 462.671 690.781 466.867Z" fill="white"/>
<path d="M900.778 -68.8119C900.778 -26.7807 866.528 7.46988 824.497 7.46988C804.892 7.46988 786.966 0.0705414 773.464 -12.1346C770.947 -14.423 768.582 -16.864 766.446 -19.4576C755.08 -32.8069 748.215 -50.0466 748.215 -68.8119C748.215 -110.843 782.465 -145.094 824.497 -145.094C828.692 -145.094 832.125 -141.661 832.125 -137.466C832.125 -133.27 828.692 -129.837 824.497 -129.837C790.856 -129.837 763.471 -102.452 763.471 -68.8119C763.471 -51.0383 771.099 -35.0191 783.304 -23.882C785.44 -21.8994 787.729 -20.1441 790.17 -18.4659C799.934 -11.7531 811.758 -7.78648 824.497 -7.78648C858.137 -7.78648 885.522 -35.1717 885.522 -68.8119C885.522 -73.0074 888.955 -76.4401 893.15 -76.4401C897.346 -76.4401 900.778 -73.0074 900.778 -68.8119Z" fill="white"/>
<path opacity="0.15" d="M900.778 -68.8119C900.778 -26.7807 866.527 7.46988 824.496 7.46988C804.891 7.46988 786.965 0.0705414 773.463 -12.1346C770.946 -14.423 768.581 -16.864 766.445 -19.4576C772.395 -20.6781 778.04 -22.2038 783.304 -23.882C785.439 -21.8994 787.728 -20.1441 790.169 -18.4659C799.933 -11.7531 811.757 -7.78648 824.496 -7.78648C858.136 -7.78648 885.521 -35.1717 885.521 -68.8119C885.521 -73.0074 888.954 -76.4401 893.149 -76.4401C897.345 -76.4401 900.778 -73.0074 900.778 -68.8119ZM900.778 -122.209C900.778 -118.014 897.345 -114.581 893.149 -114.581H881.021L859.967 -93.451C864.162 -103.673 867.061 -114.047 868.968 -124.039L870.265 -125.337V-131.821C870.799 -135.101 871.18 -138.305 871.409 -141.432C871.942 -142.348 872.706 -143.187 873.621 -143.797C874.842 -144.636 876.291 -145.094 877.893 -145.094C882.089 -145.094 885.521 -141.661 885.521 -137.466V-129.837H893.149C897.345 -129.837 900.778 -126.405 900.778 -122.209Z" fill="white"/>
<path d="M870.267 152.957C870.267 178.206 849.747 198.726 824.498 198.726C817.709 198.726 811.225 197.276 805.427 194.53C803.52 193.615 801.613 192.623 799.859 191.479C787.196 183.393 778.729 169.128 778.729 152.957C778.729 127.707 799.248 107.188 824.498 107.188C828.693 107.188 832.126 110.62 832.126 114.816C832.126 119.011 828.693 122.444 824.498 122.444C807.639 122.444 793.985 136.098 793.985 152.957C793.985 166.916 803.368 178.74 816.259 182.325C817.403 182.63 818.548 182.935 819.692 183.088C821.217 183.317 822.819 183.469 824.498 183.469C841.356 183.469 855.01 169.815 855.01 152.957C855.01 148.761 858.443 145.328 862.639 145.328C866.834 145.328 870.267 148.761 870.267 152.957Z" fill="#909090"/>
<path d="M900.778 152.958C900.778 194.989 866.528 229.239 824.497 229.239C804.892 229.239 786.966 221.84 773.464 209.635C770.947 207.347 768.582 204.906 766.446 202.312C755.08 188.963 748.215 171.723 748.215 152.958C748.215 110.926 782.465 76.6758 824.497 76.6758C828.692 76.6758 832.125 80.1085 832.125 84.304C832.125 88.4995 828.692 91.9321 824.497 91.9321C790.856 91.9321 763.471 119.317 763.471 152.958C763.471 170.731 771.099 186.75 783.304 197.888C785.44 199.87 787.729 201.625 790.17 203.304C799.934 210.016 811.758 213.983 824.497 213.983C858.137 213.983 885.522 186.598 885.522 152.958C885.522 148.762 888.955 145.329 893.15 145.329C897.346 145.329 900.778 148.762 900.778 152.958Z" fill="white"/>
<path d="M839.219 149.067C837.846 143.804 833.65 139.608 828.387 138.235C827.166 137.854 825.87 137.701 824.497 137.701C816.106 137.701 809.24 144.567 809.24 152.958C809.24 161.349 816.106 168.214 824.497 168.214C832.888 168.214 839.753 161.349 839.753 152.958C839.753 151.584 839.6 150.288 839.219 149.067Z" fill="#A7A5A5"/>
<path d="M900.777 99.5603C900.777 103.756 897.344 107.189 893.149 107.189H881.02L859.966 128.319L829.911 158.374C828.385 159.823 826.478 160.586 824.495 160.586C822.512 160.586 820.605 159.823 819.079 158.374C816.104 155.399 816.104 150.517 819.079 147.542L828.385 138.235L868.281 98.4161L868.967 97.7296L870.264 96.4328V84.304C870.264 82.8546 870.645 81.4815 871.408 80.3373C871.941 79.4219 872.705 78.5828 873.62 77.9726C874.841 77.1335 876.29 76.6758 877.892 76.6758C882.088 76.6758 885.52 80.1085 885.52 84.304V91.9321H893.149C897.344 91.9321 900.777 95.3648 900.777 99.5603Z" fill="white"/>
<path opacity="0.15" d="M805.424 194.532C803.517 193.616 801.61 192.625 799.855 191.481C805.805 188.658 811.221 185.607 816.256 182.327C817.4 182.632 818.545 182.937 819.689 183.09C821.214 183.318 822.816 183.471 824.494 183.471C841.353 183.471 855.007 169.817 855.007 152.958C855.007 148.763 858.44 145.33 862.635 145.33C866.831 145.33 870.264 148.763 870.264 152.958C870.264 178.208 849.744 198.727 824.494 198.727C817.705 198.727 811.221 197.278 805.424 194.532Z" fill="white"/>
<path opacity="0.15" d="M900.778 152.958C900.778 194.989 866.527 229.239 824.496 229.239C804.891 229.239 786.965 221.84 773.463 209.635C770.946 207.347 768.581 204.906 766.445 202.312C772.395 201.091 778.04 199.566 783.304 197.888C785.439 199.87 787.728 201.625 790.169 203.304C799.933 210.016 811.757 213.983 824.496 213.983C858.136 213.983 885.521 186.598 885.521 152.958C885.521 148.762 888.954 145.329 893.149 145.329C897.345 145.329 900.778 148.762 900.778 152.958ZM900.778 99.5603C900.778 103.756 897.345 107.189 893.149 107.189H881.021L859.967 128.319C864.162 118.097 867.061 107.722 868.968 97.7303L870.265 96.4328V89.9488C870.799 86.6687 871.18 83.4649 871.409 80.3373C871.942 79.4219 872.706 78.5828 873.621 77.9726C874.842 77.1335 876.291 76.6758 877.893 76.6758C882.089 76.6758 885.521 80.1085 885.521 84.304V91.9321H893.149C897.345 91.9321 900.778 95.3648 900.778 99.5603Z" fill="white"/>
<path d="M870.267 374.724C870.267 399.973 849.747 420.493 824.498 420.493C817.709 420.493 811.225 419.044 805.427 416.298C803.52 415.382 801.613 414.391 799.859 413.246C787.196 405.161 778.729 390.896 778.729 374.724C778.729 349.475 799.248 328.955 824.498 328.955C828.693 328.955 832.126 332.388 832.126 336.583C832.126 340.779 828.693 344.211 824.498 344.211C807.639 344.211 793.985 357.866 793.985 374.724C793.985 388.684 803.368 400.507 816.259 404.093C817.403 404.398 818.548 404.703 819.692 404.855C821.217 405.084 822.819 405.237 824.498 405.237C841.356 405.237 855.01 391.582 855.01 374.724C855.01 370.529 858.443 367.096 862.639 367.096C866.834 367.096 870.267 370.529 870.267 374.724Z" fill="#909090"/>
<path d="M900.778 374.725C900.778 416.756 866.528 451.007 824.497 451.007C804.892 451.007 786.966 443.608 773.464 431.403C770.947 429.114 768.582 426.673 766.446 424.08C755.08 410.73 748.215 393.491 748.215 374.725C748.215 332.694 782.465 298.443 824.497 298.443C828.692 298.443 832.125 301.876 832.125 306.072C832.125 310.267 828.692 313.7 824.497 313.7C790.856 313.7 763.471 341.085 763.471 374.725C763.471 392.499 771.099 408.518 783.304 419.655C785.44 421.638 787.729 423.393 790.17 425.071C799.934 431.784 811.758 435.751 824.497 435.751C858.137 435.751 885.522 408.365 885.522 374.725C885.522 370.53 888.955 367.097 893.15 367.097C897.346 367.097 900.778 370.53 900.778 374.725Z" fill="white"/>
<path d="M839.219 370.835C837.846 365.571 833.65 361.376 828.387 360.003C827.166 359.621 825.87 359.469 824.497 359.469C816.106 359.469 809.24 366.334 809.24 374.725C809.24 383.116 816.106 389.981 824.497 389.981C832.888 389.981 839.753 383.116 839.753 374.725C839.753 373.352 839.6 372.055 839.219 370.835Z" fill="#A7A5A5"/>
<path d="M900.777 321.328C900.777 325.523 897.344 328.956 893.149 328.956H881.02L859.966 350.086L829.911 380.141C828.385 381.591 826.478 382.353 824.495 382.353C822.512 382.353 820.605 381.591 819.079 380.141C816.104 377.166 816.104 372.284 819.079 369.309L828.385 360.003L868.281 320.184L868.967 319.497L870.264 318.2V306.072C870.264 304.622 870.645 303.249 871.408 302.105C871.941 301.19 872.705 300.35 873.62 299.74C874.841 298.901 876.29 298.443 877.892 298.443C882.088 298.443 885.52 301.876 885.52 306.072V313.7H893.149C897.344 313.7 900.777 317.132 900.777 321.328Z" fill="white"/>
<path opacity="0.15" d="M805.424 416.299C803.517 415.384 801.61 414.392 799.855 413.248C805.805 410.426 811.221 407.374 816.256 404.094C817.4 404.399 818.545 404.705 819.689 404.857C821.214 405.086 822.816 405.239 824.494 405.239C841.353 405.239 855.007 391.584 855.007 374.726C855.007 370.53 858.44 367.098 862.635 367.098C866.831 367.098 870.264 370.53 870.264 374.726C870.264 399.975 849.744 420.495 824.494 420.495C817.705 420.495 811.221 419.046 805.424 416.299Z" fill="white"/>
<path opacity="0.15" d="M900.778 374.725C900.778 416.756 866.527 451.007 824.496 451.007C804.891 451.007 786.965 443.608 773.463 431.403C770.946 429.114 768.581 426.673 766.445 424.08C772.395 422.859 778.04 421.333 783.304 419.655C785.439 421.638 787.728 423.393 790.169 425.071C799.933 431.784 811.757 435.751 824.496 435.751C858.136 435.751 885.521 408.365 885.521 374.725C885.521 370.53 888.954 367.097 893.149 367.097C897.345 367.097 900.778 370.53 900.778 374.725ZM900.778 321.328C900.778 325.523 897.345 328.956 893.149 328.956H881.021L859.967 350.086C864.162 339.864 867.061 329.49 868.968 319.498L870.265 318.2V311.716C870.799 308.436 871.18 305.232 871.409 302.105C871.942 301.19 872.706 300.35 873.621 299.74C874.842 298.901 876.291 298.443 877.893 298.443C882.089 298.443 885.521 301.876 885.521 306.072V313.7H893.149C897.345 313.7 900.778 317.132 900.778 321.328Z" fill="white"/>
<path d="M870.267 596.494C870.267 621.743 849.747 642.263 824.498 642.263C817.709 642.263 811.225 640.813 805.427 638.067C803.52 637.152 801.613 636.16 799.859 635.016C787.196 626.93 778.729 612.665 778.729 596.494C778.729 571.244 799.248 550.725 824.498 550.725C828.693 550.725 832.126 554.157 832.126 558.353C832.126 562.548 828.693 565.981 824.498 565.981C807.639 565.981 793.985 579.635 793.985 596.494C793.985 610.453 803.368 622.277 816.259 625.862C817.403 626.167 818.548 626.472 819.692 626.625C821.217 626.854 822.819 627.006 824.498 627.006C841.356 627.006 855.01 613.352 855.01 596.494C855.01 592.298 858.443 588.866 862.639 588.866C866.834 588.866 870.267 592.298 870.267 596.494Z" fill="#909090"/>
<path d="M900.778 596.495C900.778 638.526 866.528 672.777 824.497 672.777C804.892 672.777 786.966 665.377 773.464 653.172C770.947 650.884 768.582 648.443 766.446 645.849C755.08 632.5 748.215 615.26 748.215 596.495C748.215 554.463 782.465 520.213 824.497 520.213C828.692 520.213 832.125 523.646 832.125 527.841C832.125 532.037 828.692 535.469 824.497 535.469C790.856 535.469 763.471 562.854 763.471 596.495C763.471 614.268 771.099 630.288 783.304 641.425C785.44 643.407 787.729 645.163 790.17 646.841C799.934 653.554 811.758 657.52 824.497 657.52C858.137 657.52 885.522 630.135 885.522 596.495C885.522 592.299 888.955 588.867 893.15 588.867C897.346 588.867 900.778 592.299 900.778 596.495Z" fill="white"/>
<path d="M839.219 592.604C837.846 587.341 833.65 583.145 828.387 581.772C827.166 581.391 825.87 581.238 824.497 581.238C816.106 581.238 809.24 588.104 809.24 596.495C809.24 604.886 816.106 611.751 824.497 611.751C832.888 611.751 839.753 604.886 839.753 596.495C839.753 595.122 839.6 593.825 839.219 592.604Z" fill="#A7A5A5"/>
<path d="M900.777 543.097C900.777 547.293 897.344 550.726 893.149 550.726H881.02L859.966 571.856L829.911 601.911C828.385 603.36 826.478 604.123 824.495 604.123C822.512 604.123 820.605 603.36 819.079 601.911C816.104 598.936 816.104 594.054 819.079 591.079L828.385 581.772L868.281 541.953L868.967 541.267L870.264 539.97V527.841C870.264 526.392 870.645 525.019 871.408 523.874C871.941 522.959 872.705 522.12 873.62 521.51C874.841 520.671 876.29 520.213 877.892 520.213C882.088 520.213 885.52 523.646 885.52 527.841V535.469H893.149C897.344 535.469 900.777 538.902 900.777 543.097Z" fill="white"/>
<path opacity="0.15" d="M805.424 638.069C803.517 637.154 801.61 636.162 799.855 635.018C805.805 632.195 811.221 629.144 816.256 625.864C817.4 626.169 818.545 626.474 819.689 626.627C821.214 626.856 822.816 627.008 824.494 627.008C841.353 627.008 855.007 613.354 855.007 596.495C855.007 592.3 858.44 588.867 862.635 588.867C866.831 588.867 870.264 592.3 870.264 596.495C870.264 621.745 849.744 642.264 824.494 642.264C817.705 642.264 811.221 640.815 805.424 638.069Z" fill="white"/>
<path opacity="0.15" d="M900.778 596.495C900.778 638.526 866.527 672.777 824.496 672.777C804.891 672.777 786.965 665.377 773.463 653.172C770.946 650.884 768.581 648.443 766.445 645.849C772.395 644.629 778.04 643.103 783.304 641.425C785.439 643.407 787.728 645.163 790.169 646.841C799.933 653.554 811.757 657.52 824.496 657.52C858.136 657.52 885.521 630.135 885.521 596.495C885.521 592.299 888.954 588.867 893.149 588.867C897.345 588.867 900.778 592.299 900.778 596.495ZM900.778 543.097C900.778 547.293 897.345 550.726 893.149 550.726H881.021L859.967 571.856C864.162 561.634 867.061 551.26 868.968 541.267L870.265 539.97V533.486C870.799 530.206 871.18 527.002 871.409 523.874C871.942 522.959 872.706 522.12 873.621 521.51C874.842 520.671 876.291 520.213 877.893 520.213C882.089 520.213 885.521 523.646 885.521 527.841V535.469H893.149C897.345 535.469 900.778 538.902 900.778 543.097Z" fill="white"/>
<path d="M1081.27 76.7242C1081.27 101.973 1060.75 122.493 1035.5 122.493C1028.71 122.493 1022.22 121.044 1016.43 118.298C1014.52 117.382 1012.61 116.391 1010.86 115.246C998.196 107.161 989.729 92.8959 989.729 76.7242C989.729 51.4749 1010.25 30.9551 1035.5 30.9551C1039.69 30.9551 1043.13 34.3878 1043.13 38.5833C1043.13 42.7788 1039.69 46.2114 1035.5 46.2114C1018.64 46.2114 1004.98 59.8659 1004.98 76.7242C1004.98 90.6837 1014.37 102.507 1027.26 106.093C1028.4 106.398 1029.55 106.703 1030.69 106.855C1032.22 107.084 1033.82 107.237 1035.5 107.237C1052.36 107.237 1066.01 93.5824 1066.01 76.7242C1066.01 72.5287 1069.44 69.096 1073.64 69.096C1077.83 69.096 1081.27 72.5287 1081.27 76.7242Z" fill="#909090"/>
<path d="M1111.78 76.7252C1111.78 118.756 1077.53 153.007 1035.5 153.007C1015.89 153.007 997.966 145.608 984.464 133.403C981.947 131.114 979.582 128.673 977.446 126.08C966.08 112.73 959.215 95.4905 959.215 76.7252C959.215 34.6939 993.465 0.443359 1035.5 0.443359C1039.69 0.443359 1043.12 3.87604 1043.12 8.07154C1043.12 12.267 1039.69 15.6997 1035.5 15.6997C1001.86 15.6997 974.471 43.0849 974.471 76.7252C974.471 94.4988 982.099 110.518 994.304 121.655C996.44 123.638 998.729 125.393 1001.17 127.071C1010.93 133.784 1022.76 137.751 1035.5 137.751C1069.14 137.751 1096.52 110.365 1096.52 76.7252C1096.52 72.5297 1099.95 69.097 1104.15 69.097C1108.35 69.097 1111.78 72.5297 1111.78 76.7252Z" fill="white"/>
<path d="M1050.22 72.8347C1048.85 67.5713 1044.65 63.3758 1039.39 62.0027C1038.17 61.6213 1036.87 61.4688 1035.5 61.4688C1027.11 61.4688 1020.24 68.3341 1020.24 76.7251C1020.24 85.1161 1027.11 91.9815 1035.5 91.9815C1043.89 91.9815 1050.75 85.1161 1050.75 76.7251C1050.75 75.352 1050.6 74.0552 1050.22 72.8347Z" fill="#A7A5A5"/>
<path d="M1111.78 23.3279C1111.78 27.5234 1108.34 30.9561 1104.15 30.9561H1092.02L1070.97 52.0862L1040.91 82.1412C1039.39 83.5905 1037.48 84.3534 1035.49 84.3534C1033.51 84.3534 1031.6 83.5905 1030.08 82.1412C1027.1 79.1662 1027.1 74.2842 1030.08 71.3092L1039.39 62.0028L1079.28 22.1837L1079.97 21.4971L1081.26 20.2004V8.07154C1081.26 6.62219 1081.65 5.24911 1082.41 4.10489C1082.94 3.18951 1083.71 2.35041 1084.62 1.74015C1085.84 0.901051 1087.29 0.443359 1088.89 0.443359C1093.09 0.443359 1096.52 3.87604 1096.52 8.07154V15.6997H1104.15C1108.34 15.6997 1111.78 19.1324 1111.78 23.3279Z" fill="white"/>
<path opacity="0.15" d="M1016.42 118.299C1014.52 117.384 1012.61 116.392 1010.86 115.248C1016.81 112.426 1022.22 109.374 1027.26 106.094C1028.4 106.399 1029.54 106.705 1030.69 106.857C1032.21 107.086 1033.82 107.239 1035.49 107.239C1052.35 107.239 1066.01 93.5841 1066.01 76.7258C1066.01 72.5303 1069.44 69.0977 1073.64 69.0977C1077.83 69.0977 1081.26 72.5303 1081.26 76.7258C1081.26 101.975 1060.74 122.495 1035.49 122.495C1028.71 122.495 1022.22 121.046 1016.42 118.299Z" fill="white"/>
<path opacity="0.15" d="M1111.78 76.7252C1111.78 118.756 1077.53 153.007 1035.5 153.007C1015.89 153.007 997.965 145.608 984.463 133.403C981.946 131.114 979.581 128.673 977.445 126.08C983.395 124.859 989.04 123.333 994.304 121.655C996.439 123.638 998.728 125.393 1001.17 127.071C1010.93 133.784 1022.76 137.751 1035.5 137.751C1069.14 137.751 1096.52 110.365 1096.52 76.7252C1096.52 72.5297 1099.95 69.097 1104.15 69.097C1108.34 69.097 1111.78 72.5297 1111.78 76.7252ZM1111.78 23.3279C1111.78 27.5234 1108.34 30.9561 1104.15 30.9561H1092.02L1070.97 52.0862C1075.16 41.8644 1078.06 31.4901 1079.97 21.4979L1081.26 20.2003V13.7164C1081.8 10.4363 1082.18 7.23244 1082.41 4.10489C1082.94 3.1895 1083.71 2.35041 1084.62 1.74015C1085.84 0.901051 1087.29 0.443359 1088.89 0.443359C1093.09 0.443359 1096.52 3.87604 1096.52 8.07154V15.6997H1104.15C1108.34 15.6997 1111.78 19.1324 1111.78 23.3279Z" fill="white"/>
<path d="M1081.27 298.494C1081.27 323.743 1060.75 344.263 1035.5 344.263C1028.71 344.263 1022.22 342.813 1016.43 340.067C1014.52 339.152 1012.61 338.16 1010.86 337.016C998.196 328.93 989.729 314.665 989.729 298.494C989.729 273.244 1010.25 252.725 1035.5 252.725C1039.69 252.725 1043.13 256.157 1043.13 260.353C1043.13 264.548 1039.69 267.981 1035.5 267.981C1018.64 267.981 1004.98 281.635 1004.98 298.494C1004.98 312.453 1014.37 324.277 1027.26 327.862C1028.4 328.167 1029.55 328.472 1030.69 328.625C1032.22 328.854 1033.82 329.006 1035.5 329.006C1052.36 329.006 1066.01 315.352 1066.01 298.494C1066.01 294.298 1069.44 290.866 1073.64 290.866C1077.83 290.866 1081.27 294.298 1081.27 298.494Z" fill="#909090"/>
<path d="M1111.78 298.495C1111.78 340.526 1077.53 374.777 1035.5 374.777C1015.89 374.777 997.966 367.377 984.464 355.172C981.947 352.884 979.582 350.443 977.446 347.849C966.08 334.5 959.215 317.26 959.215 298.495C959.215 256.463 993.465 222.213 1035.5 222.213C1039.69 222.213 1043.12 225.646 1043.12 229.841C1043.12 234.037 1039.69 237.469 1035.5 237.469C1001.86 237.469 974.471 264.854 974.471 298.495C974.471 316.268 982.099 332.288 994.304 343.425C996.44 345.407 998.729 347.163 1001.17 348.841C1010.93 355.554 1022.76 359.52 1035.5 359.52C1069.14 359.52 1096.52 332.135 1096.52 298.495C1096.52 294.299 1099.95 290.867 1104.15 290.867C1108.35 290.867 1111.78 294.299 1111.78 298.495Z" fill="white"/>
<path d="M1050.22 294.604C1048.85 289.341 1044.65 285.145 1039.39 283.772C1038.17 283.391 1036.87 283.238 1035.5 283.238C1027.11 283.238 1020.24 290.104 1020.24 298.495C1020.24 306.886 1027.11 313.751 1035.5 313.751C1043.89 313.751 1050.75 306.886 1050.75 298.495C1050.75 297.122 1050.6 295.825 1050.22 294.604Z" fill="#A7A5A5"/>
<path d="M1111.78 245.097C1111.78 249.293 1108.34 252.726 1104.15 252.726H1092.02L1070.97 273.856L1040.91 303.911C1039.39 305.36 1037.48 306.123 1035.49 306.123C1033.51 306.123 1031.6 305.36 1030.08 303.911C1027.1 300.936 1027.1 296.054 1030.08 293.079L1039.39 283.772L1079.28 243.953L1079.97 243.267L1081.26 241.97V229.841C1081.26 228.392 1081.65 227.019 1082.41 225.874C1082.94 224.959 1083.71 224.12 1084.62 223.51C1085.84 222.671 1087.29 222.213 1088.89 222.213C1093.09 222.213 1096.52 225.646 1096.52 229.841V237.469H1104.15C1108.34 237.469 1111.78 240.902 1111.78 245.097Z" fill="white"/>
<path opacity="0.15" d="M1016.42 340.069C1014.52 339.154 1012.61 338.162 1010.86 337.018C1016.81 334.195 1022.22 331.144 1027.26 327.864C1028.4 328.169 1029.54 328.474 1030.69 328.627C1032.21 328.856 1033.82 329.008 1035.49 329.008C1052.35 329.008 1066.01 315.354 1066.01 298.495C1066.01 294.3 1069.44 290.867 1073.64 290.867C1077.83 290.867 1081.26 294.3 1081.26 298.495C1081.26 323.745 1060.74 344.264 1035.49 344.264C1028.71 344.264 1022.22 342.815 1016.42 340.069Z" fill="white"/>
<path opacity="0.15" d="M1111.78 298.495C1111.78 340.526 1077.53 374.777 1035.5 374.777C1015.89 374.777 997.965 367.377 984.463 355.172C981.946 352.884 979.581 350.443 977.445 347.849C983.395 346.629 989.04 345.103 994.304 343.425C996.439 345.407 998.728 347.163 1001.17 348.841C1010.93 355.554 1022.76 359.52 1035.5 359.52C1069.14 359.52 1096.52 332.135 1096.52 298.495C1096.52 294.299 1099.95 290.867 1104.15 290.867C1108.34 290.867 1111.78 294.299 1111.78 298.495ZM1111.78 245.097C1111.78 249.293 1108.34 252.726 1104.15 252.726H1092.02L1070.97 273.856C1075.16 263.634 1078.06 253.26 1079.97 243.267L1081.26 241.97V235.486C1081.8 232.206 1082.18 229.002 1082.41 225.874C1082.94 224.959 1083.71 224.12 1084.62 223.51C1085.84 222.671 1087.29 222.213 1088.89 222.213C1093.09 222.213 1096.52 225.646 1096.52 229.841V237.469H1104.15C1108.34 237.469 1111.78 240.902 1111.78 245.097Z" fill="white"/>
<path d="M1081.27 520.263C1081.27 545.513 1060.75 566.032 1035.5 566.032C1028.71 566.032 1022.22 564.583 1016.43 561.837C1014.52 560.921 1012.61 559.93 1010.86 558.786C998.196 550.7 989.729 536.435 989.729 520.263C989.729 495.014 1010.25 474.494 1035.5 474.494C1039.69 474.494 1043.13 477.927 1043.13 482.122C1043.13 486.318 1039.69 489.751 1035.5 489.751C1018.64 489.751 1004.98 503.405 1004.98 520.263C1004.98 534.223 1014.37 546.046 1027.26 549.632C1028.4 549.937 1029.55 550.242 1030.69 550.395C1032.22 550.623 1033.82 550.776 1035.5 550.776C1052.36 550.776 1066.01 537.122 1066.01 520.263C1066.01 516.068 1069.44 512.635 1073.64 512.635C1077.83 512.635 1081.27 516.068 1081.27 520.263Z" fill="#909090"/>
<path d="M1111.78 520.264C1111.78 562.296 1077.53 596.546 1035.5 596.546C1015.89 596.546 997.966 589.147 984.464 576.942C981.947 574.653 979.582 572.212 977.446 569.619C966.08 556.269 959.215 539.03 959.215 520.264C959.215 478.233 993.465 443.982 1035.5 443.982C1039.69 443.982 1043.12 447.415 1043.12 451.611C1043.12 455.806 1039.69 459.239 1035.5 459.239C1001.86 459.239 974.471 486.624 974.471 520.264C974.471 538.038 982.099 554.057 994.304 565.194C996.44 567.177 998.729 568.932 1001.17 570.61C1010.93 577.323 1022.76 581.29 1035.5 581.29C1069.14 581.29 1096.52 553.905 1096.52 520.264C1096.52 516.069 1099.95 512.636 1104.15 512.636C1108.35 512.636 1111.78 516.069 1111.78 520.264Z" fill="white"/>
<path d="M1050.22 516.374C1048.85 511.11 1044.65 506.915 1039.39 505.542C1038.17 505.16 1036.87 505.008 1035.5 505.008C1027.11 505.008 1020.24 511.873 1020.24 520.264C1020.24 528.655 1027.11 535.521 1035.5 535.521C1043.89 535.521 1050.75 528.655 1050.75 520.264C1050.75 518.891 1050.6 517.594 1050.22 516.374Z" fill="#A7A5A5"/>
<path d="M1111.78 466.867C1111.78 471.062 1108.34 474.495 1104.15 474.495H1092.02L1070.97 495.625L1040.91 525.68C1039.39 527.13 1037.48 527.892 1035.49 527.892C1033.51 527.892 1031.6 527.13 1030.08 525.68C1027.1 522.705 1027.1 517.823 1030.08 514.848L1039.39 505.542L1079.28 465.723L1079.97 465.036L1081.26 463.739V451.611C1081.26 450.161 1081.65 448.788 1082.41 447.644C1082.94 446.729 1083.71 445.889 1084.62 445.279C1085.84 444.44 1087.29 443.982 1088.89 443.982C1093.09 443.982 1096.52 447.415 1096.52 451.611V459.239H1104.15C1108.34 459.239 1111.78 462.671 1111.78 466.867Z" fill="white"/>
<path opacity="0.15" d="M1016.42 561.838C1014.52 560.923 1012.61 559.931 1010.86 558.787C1016.81 555.965 1022.22 552.914 1027.26 549.633C1028.4 549.939 1029.54 550.244 1030.69 550.396C1032.21 550.625 1033.82 550.778 1035.49 550.778C1052.35 550.778 1066.01 537.123 1066.01 520.265C1066.01 516.069 1069.44 512.637 1073.64 512.637C1077.83 512.637 1081.26 516.069 1081.26 520.265C1081.26 545.514 1060.74 566.034 1035.49 566.034C1028.71 566.034 1022.22 564.585 1016.42 561.838Z" fill="white"/>
<path opacity="0.15" d="M1111.78 520.264C1111.78 562.296 1077.53 596.546 1035.5 596.546C1015.89 596.546 997.965 589.147 984.463 576.942C981.946 574.653 979.581 572.212 977.445 569.619C983.395 568.398 989.04 566.872 994.304 565.194C996.439 567.177 998.728 568.932 1001.17 570.61C1010.93 577.323 1022.76 581.29 1035.5 581.29C1069.14 581.29 1096.52 553.905 1096.52 520.264C1096.52 516.069 1099.95 512.636 1104.15 512.636C1108.34 512.636 1111.78 516.069 1111.78 520.264ZM1111.78 466.867C1111.78 471.062 1108.34 474.495 1104.15 474.495H1092.02L1070.97 495.625C1075.16 485.403 1078.06 475.029 1079.97 465.037L1081.26 463.739V457.255C1081.8 453.975 1082.18 450.772 1082.41 447.644C1082.94 446.729 1083.71 445.889 1084.62 445.279C1085.84 444.44 1087.29 443.982 1088.89 443.982C1093.09 443.982 1096.52 447.415 1096.52 451.611V459.239H1104.15C1108.34 459.239 1111.78 462.671 1111.78 466.867Z" fill="white"/>
<path d="M1321.78 -68.8119C1321.78 -26.7807 1287.53 7.46988 1245.5 7.46988C1225.89 7.46988 1207.97 0.0705414 1194.46 -12.1346C1191.95 -14.423 1189.58 -16.864 1187.45 -19.4576C1176.08 -32.8069 1169.21 -50.0466 1169.21 -68.8119C1169.21 -110.843 1203.47 -145.094 1245.5 -145.094C1249.69 -145.094 1253.12 -141.661 1253.12 -137.466C1253.12 -133.27 1249.69 -129.837 1245.5 -129.837C1211.86 -129.837 1184.47 -102.452 1184.47 -68.8119C1184.47 -51.0383 1192.1 -35.0191 1204.3 -23.882C1206.44 -21.8994 1208.73 -20.1441 1211.17 -18.4659C1220.93 -11.7531 1232.76 -7.78648 1245.5 -7.78648C1279.14 -7.78648 1306.52 -35.1717 1306.52 -68.8119C1306.52 -73.0074 1309.95 -76.4401 1314.15 -76.4401C1318.35 -76.4401 1321.78 -73.0074 1321.78 -68.8119Z" fill="white"/>
<path opacity="0.15" d="M1321.78 -68.8119C1321.78 -26.7807 1287.53 7.46988 1245.5 7.46988C1225.89 7.46988 1207.97 0.0705414 1194.46 -12.1346C1191.95 -14.423 1189.58 -16.864 1187.45 -19.4576C1193.4 -20.6781 1199.04 -22.2038 1204.3 -23.882C1206.44 -21.8994 1208.73 -20.1441 1211.17 -18.4659C1220.93 -11.7531 1232.76 -7.78648 1245.5 -7.78648C1279.14 -7.78648 1306.52 -35.1717 1306.52 -68.8119C1306.52 -73.0074 1309.95 -76.4401 1314.15 -76.4401C1318.34 -76.4401 1321.78 -73.0074 1321.78 -68.8119ZM1321.78 -122.209C1321.78 -118.014 1318.34 -114.581 1314.15 -114.581H1302.02L1280.97 -93.451C1285.16 -103.673 1288.06 -114.047 1289.97 -124.039L1291.26 -125.337V-131.821C1291.8 -135.101 1292.18 -138.305 1292.41 -141.432C1292.94 -142.348 1293.71 -143.187 1294.62 -143.797C1295.84 -144.636 1297.29 -145.094 1298.89 -145.094C1303.09 -145.094 1306.52 -141.661 1306.52 -137.466V-129.837H1314.15C1318.34 -129.837 1321.78 -126.405 1321.78 -122.209Z" fill="white"/>
<path d="M1291.27 152.957C1291.27 178.206 1270.75 198.726 1245.5 198.726C1238.71 198.726 1232.22 197.276 1226.43 194.53C1224.52 193.615 1222.61 192.623 1220.86 191.479C1208.2 183.393 1199.73 169.128 1199.73 152.957C1199.73 127.707 1220.25 107.188 1245.5 107.188C1249.69 107.188 1253.13 110.62 1253.13 114.816C1253.13 119.011 1249.69 122.444 1245.5 122.444C1228.64 122.444 1214.98 136.098 1214.98 152.957C1214.98 166.916 1224.37 178.74 1237.26 182.325C1238.4 182.63 1239.55 182.935 1240.69 183.088C1242.22 183.317 1243.82 183.469 1245.5 183.469C1262.36 183.469 1276.01 169.815 1276.01 152.957C1276.01 148.761 1279.44 145.328 1283.64 145.328C1287.83 145.328 1291.27 148.761 1291.27 152.957Z" fill="#909090"/>
<path d="M1321.78 152.958C1321.78 194.989 1287.53 229.239 1245.5 229.239C1225.89 229.239 1207.97 221.84 1194.46 209.635C1191.95 207.347 1189.58 204.906 1187.45 202.312C1176.08 188.963 1169.21 171.723 1169.21 152.958C1169.21 110.926 1203.47 76.6758 1245.5 76.6758C1249.69 76.6758 1253.12 80.1085 1253.12 84.304C1253.12 88.4995 1249.69 91.9321 1245.5 91.9321C1211.86 91.9321 1184.47 119.317 1184.47 152.958C1184.47 170.731 1192.1 186.75 1204.3 197.888C1206.44 199.87 1208.73 201.625 1211.17 203.304C1220.93 210.016 1232.76 213.983 1245.5 213.983C1279.14 213.983 1306.52 186.598 1306.52 152.958C1306.52 148.762 1309.95 145.329 1314.15 145.329C1318.35 145.329 1321.78 148.762 1321.78 152.958Z" fill="white"/>
<path d="M1260.22 149.067C1258.85 143.804 1254.65 139.608 1249.39 138.235C1248.17 137.854 1246.87 137.701 1245.5 137.701C1237.11 137.701 1230.24 144.567 1230.24 152.958C1230.24 161.349 1237.11 168.214 1245.5 168.214C1253.89 168.214 1260.75 161.349 1260.75 152.958C1260.75 151.584 1260.6 150.288 1260.22 149.067Z" fill="#A7A5A5"/>
<path d="M1321.78 99.5603C1321.78 103.756 1318.34 107.189 1314.15 107.189H1302.02L1280.97 128.319L1250.91 158.374C1249.39 159.823 1247.48 160.586 1245.49 160.586C1243.51 160.586 1241.6 159.823 1240.08 158.374C1237.1 155.399 1237.1 150.517 1240.08 147.542L1249.39 138.235L1289.28 98.4161L1289.97 97.7296L1291.26 96.4328V84.304C1291.26 82.8546 1291.65 81.4815 1292.41 80.3373C1292.94 79.4219 1293.71 78.5828 1294.62 77.9726C1295.84 77.1335 1297.29 76.6758 1298.89 76.6758C1303.09 76.6758 1306.52 80.1085 1306.52 84.304V91.9321H1314.15C1318.34 91.9321 1321.78 95.3648 1321.78 99.5603Z" fill="white"/>
<path opacity="0.15" d="M1226.42 194.532C1224.52 193.616 1222.61 192.625 1220.86 191.481C1226.81 188.658 1232.22 185.607 1237.26 182.327C1238.4 182.632 1239.54 182.937 1240.69 183.09C1242.21 183.318 1243.82 183.471 1245.49 183.471C1262.35 183.471 1276.01 169.817 1276.01 152.958C1276.01 148.763 1279.44 145.33 1283.64 145.33C1287.83 145.33 1291.26 148.763 1291.26 152.958C1291.26 178.208 1270.74 198.727 1245.49 198.727C1238.71 198.727 1232.22 197.278 1226.42 194.532Z" fill="white"/>
<path opacity="0.15" d="M1321.78 152.958C1321.78 194.989 1287.53 229.239 1245.5 229.239C1225.89 229.239 1207.97 221.84 1194.46 209.635C1191.95 207.347 1189.58 204.906 1187.45 202.312C1193.4 201.091 1199.04 199.566 1204.3 197.888C1206.44 199.87 1208.73 201.625 1211.17 203.304C1220.93 210.016 1232.76 213.983 1245.5 213.983C1279.14 213.983 1306.52 186.598 1306.52 152.958C1306.52 148.762 1309.95 145.329 1314.15 145.329C1318.34 145.329 1321.78 148.762 1321.78 152.958ZM1321.78 99.5603C1321.78 103.756 1318.34 107.189 1314.15 107.189H1302.02L1280.97 128.319C1285.16 118.097 1288.06 107.722 1289.97 97.7303L1291.26 96.4328V89.9488C1291.8 86.6687 1292.18 83.4649 1292.41 80.3373C1292.94 79.4219 1293.71 78.5828 1294.62 77.9726C1295.84 77.1335 1297.29 76.6758 1298.89 76.6758C1303.09 76.6758 1306.52 80.1085 1306.52 84.304V91.9321H1314.15C1318.34 91.9321 1321.78 95.3648 1321.78 99.5603Z" fill="white"/>
<path d="M1291.27 374.724C1291.27 399.973 1270.75 420.493 1245.5 420.493C1238.71 420.493 1232.22 419.044 1226.43 416.298C1224.52 415.382 1222.61 414.391 1220.86 413.246C1208.2 405.161 1199.73 390.896 1199.73 374.724C1199.73 349.475 1220.25 328.955 1245.5 328.955C1249.69 328.955 1253.13 332.388 1253.13 336.583C1253.13 340.779 1249.69 344.211 1245.5 344.211C1228.64 344.211 1214.98 357.866 1214.98 374.724C1214.98 388.684 1224.37 400.507 1237.26 404.093C1238.4 404.398 1239.55 404.703 1240.69 404.855C1242.22 405.084 1243.82 405.237 1245.5 405.237C1262.36 405.237 1276.01 391.582 1276.01 374.724C1276.01 370.529 1279.44 367.096 1283.64 367.096C1287.83 367.096 1291.27 370.529 1291.27 374.724Z" fill="#909090"/>
<path d="M1321.78 374.725C1321.78 416.756 1287.53 451.007 1245.5 451.007C1225.89 451.007 1207.97 443.608 1194.46 431.403C1191.95 429.114 1189.58 426.673 1187.45 424.08C1176.08 410.73 1169.21 393.491 1169.21 374.725C1169.21 332.694 1203.47 298.443 1245.5 298.443C1249.69 298.443 1253.12 301.876 1253.12 306.072C1253.12 310.267 1249.69 313.7 1245.5 313.7C1211.86 313.7 1184.47 341.085 1184.47 374.725C1184.47 392.499 1192.1 408.518 1204.3 419.655C1206.44 421.638 1208.73 423.393 1211.17 425.071C1220.93 431.784 1232.76 435.751 1245.5 435.751C1279.14 435.751 1306.52 408.365 1306.52 374.725C1306.52 370.53 1309.95 367.097 1314.15 367.097C1318.35 367.097 1321.78 370.53 1321.78 374.725Z" fill="white"/>
<path d="M1260.22 370.835C1258.85 365.571 1254.65 361.376 1249.39 360.003C1248.17 359.621 1246.87 359.469 1245.5 359.469C1237.11 359.469 1230.24 366.334 1230.24 374.725C1230.24 383.116 1237.11 389.981 1245.5 389.981C1253.89 389.981 1260.75 383.116 1260.75 374.725C1260.75 373.352 1260.6 372.055 1260.22 370.835Z" fill="#A7A5A5"/>
<path d="M1321.78 321.328C1321.78 325.523 1318.34 328.956 1314.15 328.956H1302.02L1280.97 350.086L1250.91 380.141C1249.39 381.591 1247.48 382.353 1245.49 382.353C1243.51 382.353 1241.6 381.591 1240.08 380.141C1237.1 377.166 1237.1 372.284 1240.08 369.309L1249.39 360.003L1289.28 320.184L1289.97 319.497L1291.26 318.2V306.072C1291.26 304.622 1291.65 303.249 1292.41 302.105C1292.94 301.19 1293.71 300.35 1294.62 299.74C1295.84 298.901 1297.29 298.443 1298.89 298.443C1303.09 298.443 1306.52 301.876 1306.52 306.072V313.7H1314.15C1318.34 313.7 1321.78 317.132 1321.78 321.328Z" fill="white"/>
<path opacity="0.15" d="M1226.42 416.299C1224.52 415.384 1222.61 414.392 1220.86 413.248C1226.81 410.426 1232.22 407.374 1237.26 404.094C1238.4 404.399 1239.54 404.705 1240.69 404.857C1242.21 405.086 1243.82 405.239 1245.49 405.239C1262.35 405.239 1276.01 391.584 1276.01 374.726C1276.01 370.53 1279.44 367.098 1283.64 367.098C1287.83 367.098 1291.26 370.53 1291.26 374.726C1291.26 399.975 1270.74 420.495 1245.49 420.495C1238.71 420.495 1232.22 419.046 1226.42 416.299Z" fill="white"/>
<path opacity="0.15" d="M1321.78 374.725C1321.78 416.756 1287.53 451.007 1245.5 451.007C1225.89 451.007 1207.97 443.608 1194.46 431.403C1191.95 429.114 1189.58 426.673 1187.45 424.08C1193.4 422.859 1199.04 421.333 1204.3 419.655C1206.44 421.638 1208.73 423.393 1211.17 425.071C1220.93 431.784 1232.76 435.751 1245.5 435.751C1279.14 435.751 1306.52 408.365 1306.52 374.725C1306.52 370.53 1309.95 367.097 1314.15 367.097C1318.34 367.097 1321.78 370.53 1321.78 374.725ZM1321.78 321.328C1321.78 325.523 1318.34 328.956 1314.15 328.956H1302.02L1280.97 350.086C1285.16 339.864 1288.06 329.49 1289.97 319.498L1291.26 318.2V311.716C1291.8 308.436 1292.18 305.232 1292.41 302.105C1292.94 301.19 1293.71 300.35 1294.62 299.74C1295.84 298.901 1297.29 298.443 1298.89 298.443C1303.09 298.443 1306.52 301.876 1306.52 306.072V313.7H1314.15C1318.34 313.7 1321.78 317.132 1321.78 321.328Z" fill="white"/>
<path d="M1291.27 596.494C1291.27 621.743 1270.75 642.263 1245.5 642.263C1238.71 642.263 1232.22 640.813 1226.43 638.067C1224.52 637.152 1222.61 636.16 1220.86 635.016C1208.2 626.93 1199.73 612.665 1199.73 596.494C1199.73 571.244 1220.25 550.725 1245.5 550.725C1249.69 550.725 1253.13 554.157 1253.13 558.353C1253.13 562.548 1249.69 565.981 1245.5 565.981C1228.64 565.981 1214.98 579.635 1214.98 596.494C1214.98 610.453 1224.37 622.277 1237.26 625.862C1238.4 626.167 1239.55 626.472 1240.69 626.625C1242.22 626.854 1243.82 627.006 1245.5 627.006C1262.36 627.006 1276.01 613.352 1276.01 596.494C1276.01 592.298 1279.44 588.866 1283.64 588.866C1287.83 588.866 1291.27 592.298 1291.27 596.494Z" fill="#909090"/>
<path d="M1321.78 596.495C1321.78 638.526 1287.53 672.777 1245.5 672.777C1225.89 672.777 1207.97 665.377 1194.46 653.172C1191.95 650.884 1189.58 648.443 1187.45 645.849C1176.08 632.5 1169.21 615.26 1169.21 596.495C1169.21 554.463 1203.47 520.213 1245.5 520.213C1249.69 520.213 1253.12 523.646 1253.12 527.841C1253.12 532.037 1249.69 535.469 1245.5 535.469C1211.86 535.469 1184.47 562.854 1184.47 596.495C1184.47 614.268 1192.1 630.288 1204.3 641.425C1206.44 643.407 1208.73 645.163 1211.17 646.841C1220.93 653.554 1232.76 657.52 1245.5 657.52C1279.14 657.52 1306.52 630.135 1306.52 596.495C1306.52 592.299 1309.95 588.867 1314.15 588.867C1318.35 588.867 1321.78 592.299 1321.78 596.495Z" fill="white"/>
<path d="M1260.22 592.604C1258.85 587.341 1254.65 583.145 1249.39 581.772C1248.17 581.391 1246.87 581.238 1245.5 581.238C1237.11 581.238 1230.24 588.104 1230.24 596.495C1230.24 604.886 1237.11 611.751 1245.5 611.751C1253.89 611.751 1260.75 604.886 1260.75 596.495C1260.75 595.122 1260.6 593.825 1260.22 592.604Z" fill="#A7A5A5"/>
<path d="M1321.78 543.097C1321.78 547.293 1318.34 550.726 1314.15 550.726H1302.02L1280.97 571.856L1250.91 601.911C1249.39 603.36 1247.48 604.123 1245.49 604.123C1243.51 604.123 1241.6 603.36 1240.08 601.911C1237.1 598.936 1237.1 594.054 1240.08 591.079L1249.39 581.772L1289.28 541.953L1289.97 541.267L1291.26 539.97V527.841C1291.26 526.392 1291.65 525.019 1292.41 523.874C1292.94 522.959 1293.71 522.12 1294.62 521.51C1295.84 520.671 1297.29 520.213 1298.89 520.213C1303.09 520.213 1306.52 523.646 1306.52 527.841V535.469H1314.15C1318.34 535.469 1321.78 538.902 1321.78 543.097Z" fill="white"/>
<path opacity="0.15" d="M1226.42 638.069C1224.52 637.154 1222.61 636.162 1220.86 635.018C1226.81 632.195 1232.22 629.144 1237.26 625.864C1238.4 626.169 1239.54 626.474 1240.69 626.627C1242.21 626.856 1243.82 627.008 1245.49 627.008C1262.35 627.008 1276.01 613.354 1276.01 596.495C1276.01 592.3 1279.44 588.867 1283.64 588.867C1287.83 588.867 1291.26 592.3 1291.26 596.495C1291.26 621.745 1270.74 642.264 1245.49 642.264C1238.71 642.264 1232.22 640.815 1226.42 638.069Z" fill="white"/>
<path opacity="0.15" d="M1321.78 596.495C1321.78 638.526 1287.53 672.777 1245.5 672.777C1225.89 672.777 1207.97 665.377 1194.46 653.172C1191.95 650.884 1189.58 648.443 1187.45 645.849C1193.4 644.629 1199.04 643.103 1204.3 641.425C1206.44 643.407 1208.73 645.163 1211.17 646.841C1220.93 653.554 1232.76 657.52 1245.5 657.52C1279.14 657.52 1306.52 630.135 1306.52 596.495C1306.52 592.299 1309.95 588.867 1314.15 588.867C1318.34 588.867 1321.78 592.299 1321.78 596.495ZM1321.78 543.097C1321.78 547.293 1318.34 550.726 1314.15 550.726H1302.02L1280.97 571.856C1285.16 561.634 1288.06 551.26 1289.97 541.267L1291.26 539.97V533.486C1291.8 530.206 1292.18 527.002 1292.41 523.874C1292.94 522.959 1293.71 522.12 1294.62 521.51C1295.84 520.671 1297.29 520.213 1298.89 520.213C1303.09 520.213 1306.52 523.646 1306.52 527.841V535.469H1314.15C1318.34 535.469 1321.78 538.902 1321.78 543.097Z" fill="white"/>
<path d="M1501.27 76.7242C1501.27 101.973 1480.75 122.493 1455.5 122.493C1448.71 122.493 1442.22 121.044 1436.43 118.298C1434.52 117.382 1432.61 116.391 1430.86 115.246C1418.2 107.161 1409.73 92.8959 1409.73 76.7242C1409.73 51.4749 1430.25 30.9551 1455.5 30.9551C1459.69 30.9551 1463.13 34.3878 1463.13 38.5833C1463.13 42.7788 1459.69 46.2114 1455.5 46.2114C1438.64 46.2114 1424.98 59.8659 1424.98 76.7242C1424.98 90.6837 1434.37 102.507 1447.26 106.093C1448.4 106.398 1449.55 106.703 1450.69 106.855C1452.22 107.084 1453.82 107.237 1455.5 107.237C1472.36 107.237 1486.01 93.5824 1486.01 76.7242C1486.01 72.5287 1489.44 69.096 1493.64 69.096C1497.83 69.096 1501.27 72.5287 1501.27 76.7242Z" fill="#909090"/>
<path d="M1531.78 76.7252C1531.78 118.756 1497.53 153.007 1455.5 153.007C1435.89 153.007 1417.97 145.608 1404.46 133.403C1401.95 131.114 1399.58 128.673 1397.45 126.08C1386.08 112.73 1379.21 95.4905 1379.21 76.7252C1379.21 34.6939 1413.47 0.443359 1455.5 0.443359C1459.69 0.443359 1463.12 3.87604 1463.12 8.07154C1463.12 12.267 1459.69 15.6997 1455.5 15.6997C1421.86 15.6997 1394.47 43.0849 1394.47 76.7252C1394.47 94.4988 1402.1 110.518 1414.3 121.655C1416.44 123.638 1418.73 125.393 1421.17 127.071C1430.93 133.784 1442.76 137.751 1455.5 137.751C1489.14 137.751 1516.52 110.365 1516.52 76.7252C1516.52 72.5297 1519.95 69.097 1524.15 69.097C1528.35 69.097 1531.78 72.5297 1531.78 76.7252Z" fill="white"/>
<path opacity="0.15" d="M1436.42 118.299C1434.52 117.384 1432.61 116.392 1430.86 115.248C1436.81 112.426 1442.22 109.374 1447.26 106.094C1448.4 106.399 1449.54 106.705 1450.69 106.857C1452.21 107.086 1453.82 107.239 1455.49 107.239C1472.35 107.239 1486.01 93.5841 1486.01 76.7258C1486.01 72.5303 1489.44 69.0977 1493.64 69.0977C1497.83 69.0977 1501.26 72.5303 1501.26 76.7258C1501.26 101.975 1480.74 122.495 1455.49 122.495C1448.71 122.495 1442.22 121.046 1436.42 118.299Z" fill="white"/>
<path opacity="0.15" d="M1531.78 76.7252C1531.78 118.756 1497.53 153.007 1455.5 153.007C1435.89 153.007 1417.97 145.608 1404.46 133.403C1401.95 131.114 1399.58 128.673 1397.45 126.08C1403.4 124.859 1409.04 123.333 1414.3 121.655C1416.44 123.638 1418.73 125.393 1421.17 127.071C1430.93 133.784 1442.76 137.751 1455.5 137.751C1489.14 137.751 1516.52 110.365 1516.52 76.7252C1516.52 72.5297 1519.95 69.097 1524.15 69.097C1528.34 69.097 1531.78 72.5297 1531.78 76.7252ZM1531.78 23.3279C1531.78 27.5234 1528.34 30.9561 1524.15 30.9561H1512.02L1490.97 52.0862C1495.16 41.8644 1498.06 31.4901 1499.97 21.4979L1501.26 20.2003V13.7164C1501.8 10.4363 1502.18 7.23244 1502.41 4.10489C1502.94 3.1895 1503.71 2.35041 1504.62 1.74015C1505.84 0.901051 1507.29 0.443359 1508.89 0.443359C1513.09 0.443359 1516.52 3.87604 1516.52 8.07154V15.6997H1524.15C1528.34 15.6997 1531.78 19.1324 1531.78 23.3279Z" fill="white"/>
<path d="M1501.27 298.494C1501.27 323.743 1480.75 344.263 1455.5 344.263C1448.71 344.263 1442.22 342.813 1436.43 340.067C1434.52 339.152 1432.61 338.16 1430.86 337.016C1418.2 328.93 1409.73 314.665 1409.73 298.494C1409.73 273.244 1430.25 252.725 1455.5 252.725C1459.69 252.725 1463.13 256.157 1463.13 260.353C1463.13 264.548 1459.69 267.981 1455.5 267.981C1438.64 267.981 1424.98 281.635 1424.98 298.494C1424.98 312.453 1434.37 324.277 1447.26 327.862C1448.4 328.167 1449.55 328.472 1450.69 328.625C1452.22 328.854 1453.82 329.006 1455.5 329.006C1472.36 329.006 1486.01 315.352 1486.01 298.494C1486.01 294.298 1489.44 290.866 1493.64 290.866C1497.83 290.866 1501.27 294.298 1501.27 298.494Z" fill="#909090"/>
<path d="M1531.78 298.495C1531.78 340.526 1497.53 374.777 1455.5 374.777C1435.89 374.777 1417.97 367.377 1404.46 355.172C1401.95 352.884 1399.58 350.443 1397.45 347.849C1386.08 334.5 1379.21 317.26 1379.21 298.495C1379.21 256.463 1413.47 222.213 1455.5 222.213C1459.69 222.213 1463.12 225.646 1463.12 229.841C1463.12 234.037 1459.69 237.469 1455.5 237.469C1421.86 237.469 1394.47 264.854 1394.47 298.495C1394.47 316.268 1402.1 332.288 1414.3 343.425C1416.44 345.407 1418.73 347.163 1421.17 348.841C1430.93 355.554 1442.76 359.52 1455.5 359.52C1489.14 359.52 1516.52 332.135 1516.52 298.495C1516.52 294.299 1519.95 290.867 1524.15 290.867C1528.35 290.867 1531.78 294.299 1531.78 298.495Z" fill="white"/>
<path opacity="0.15" d="M1436.42 340.069C1434.52 339.154 1432.61 338.162 1430.86 337.018C1436.81 334.195 1442.22 331.144 1447.26 327.864C1448.4 328.169 1449.54 328.474 1450.69 328.627C1452.21 328.856 1453.82 329.008 1455.49 329.008C1472.35 329.008 1486.01 315.354 1486.01 298.495C1486.01 294.3 1489.44 290.867 1493.64 290.867C1497.83 290.867 1501.26 294.3 1501.26 298.495C1501.26 323.745 1480.74 344.264 1455.49 344.264C1448.71 344.264 1442.22 342.815 1436.42 340.069Z" fill="white"/>
<path opacity="0.15" d="M1531.78 298.495C1531.78 340.526 1497.53 374.777 1455.5 374.777C1435.89 374.777 1417.97 367.377 1404.46 355.172C1401.95 352.884 1399.58 350.443 1397.45 347.849C1403.4 346.629 1409.04 345.103 1414.3 343.425C1416.44 345.407 1418.73 347.163 1421.17 348.841C1430.93 355.554 1442.76 359.52 1455.5 359.52C1489.14 359.52 1516.52 332.135 1516.52 298.495C1516.52 294.299 1519.95 290.867 1524.15 290.867C1528.34 290.867 1531.78 294.299 1531.78 298.495ZM1531.78 245.097C1531.78 249.293 1528.34 252.726 1524.15 252.726H1512.02L1490.97 273.856C1495.16 263.634 1498.06 253.26 1499.97 243.267L1501.26 241.97V235.486C1501.8 232.206 1502.18 229.002 1502.41 225.874C1502.94 224.959 1503.71 224.12 1504.62 223.51C1505.84 222.671 1507.29 222.213 1508.89 222.213C1513.09 222.213 1516.52 225.646 1516.52 229.841V237.469H1524.15C1528.34 237.469 1531.78 240.902 1531.78 245.097Z" fill="white"/>
<path d="M1501.27 520.263C1501.27 545.513 1480.75 566.032 1455.5 566.032C1448.71 566.032 1442.22 564.583 1436.43 561.837C1434.52 560.921 1432.61 559.93 1430.86 558.786C1418.2 550.7 1409.73 536.435 1409.73 520.263C1409.73 495.014 1430.25 474.494 1455.5 474.494C1459.69 474.494 1463.13 477.927 1463.13 482.122C1463.13 486.318 1459.69 489.751 1455.5 489.751C1438.64 489.751 1424.98 503.405 1424.98 520.263C1424.98 534.223 1434.37 546.046 1447.26 549.632C1448.4 549.937 1449.55 550.242 1450.69 550.395C1452.22 550.623 1453.82 550.776 1455.5 550.776C1472.36 550.776 1486.01 537.122 1486.01 520.263C1486.01 516.068 1489.44 512.635 1493.64 512.635C1497.83 512.635 1501.27 516.068 1501.27 520.263Z" fill="#909090"/>
<path d="M1531.78 520.264C1531.78 562.296 1497.53 596.546 1455.5 596.546C1435.89 596.546 1417.97 589.147 1404.46 576.942C1401.95 574.653 1399.58 572.212 1397.45 569.619C1386.08 556.269 1379.21 539.03 1379.21 520.264C1379.21 478.233 1413.47 443.982 1455.5 443.982C1459.69 443.982 1463.12 447.415 1463.12 451.611C1463.12 455.806 1459.69 459.239 1455.5 459.239C1421.86 459.239 1394.47 486.624 1394.47 520.264C1394.47 538.038 1402.1 554.057 1414.3 565.194C1416.44 567.177 1418.73 568.932 1421.17 570.61C1430.93 577.323 1442.76 581.29 1455.5 581.29C1489.14 581.29 1516.52 553.905 1516.52 520.264C1516.52 516.069 1519.95 512.636 1524.15 512.636C1528.35 512.636 1531.78 516.069 1531.78 520.264Z" fill="white"/>
<path opacity="0.15" d="M1436.42 561.838C1434.52 560.923 1432.61 559.931 1430.86 558.787C1436.81 555.965 1442.22 552.914 1447.26 549.633C1448.4 549.939 1449.54 550.244 1450.69 550.396C1452.21 550.625 1453.82 550.778 1455.49 550.778C1472.35 550.778 1486.01 537.123 1486.01 520.265C1486.01 516.069 1489.44 512.637 1493.64 512.637C1497.83 512.637 1501.26 516.069 1501.26 520.265C1501.26 545.514 1480.74 566.034 1455.49 566.034C1448.71 566.034 1442.22 564.585 1436.42 561.838Z" fill="white"/>
<path opacity="0.15" d="M1531.78 520.264C1531.78 562.296 1497.53 596.546 1455.5 596.546C1435.89 596.546 1417.97 589.147 1404.46 576.942C1401.95 574.653 1399.58 572.212 1397.45 569.619C1403.4 568.398 1409.04 566.872 1414.3 565.194C1416.44 567.177 1418.73 568.932 1421.17 570.61C1430.93 577.323 1442.76 581.29 1455.5 581.29C1489.14 581.29 1516.52 553.905 1516.52 520.264C1516.52 516.069 1519.95 512.636 1524.15 512.636C1528.34 512.636 1531.78 516.069 1531.78 520.264ZM1531.78 466.867C1531.78 471.062 1528.34 474.495 1524.15 474.495H1512.02L1490.97 495.625C1495.16 485.403 1498.06 475.029 1499.97 465.037L1501.26 463.739V457.255C1501.8 453.975 1502.18 450.772 1502.41 447.644C1502.94 446.729 1503.71 445.889 1504.62 445.279C1505.84 444.44 1507.29 443.982 1508.89 443.982C1513.09 443.982 1516.52 447.415 1516.52 451.611V459.239H1524.15C1528.34 459.239 1531.78 462.671 1531.78 466.867Z" fill="white"/>
</g>
</g>
<defs>
<clipPath id="clip0_247_5991">
<rect width="1440" height="607" fill="white"/>
</clipPath>
<clipPath id="clip1_247_5991">
<rect width="2077.01" height="863" fill="white" transform="translate(-318.502)"/>
</clipPath>
</defs>
</svg>
